<?xml version="1.0" encoding="UTF-8" standalone="no"?>
<!DOCTYPE svg PUBLIC "-//W3C//DTD SVG 1.1//EN"
 "http://www.w3.org/Graphics/SVG/1.1/DTD/svg11.dtd">
<!-- Generated by graphviz version 2.43.0 (0)
 -->
<!-- Title: G Pages: 1 -->
<svg width="1555pt" height="619pt"
 viewBox="0.00 0.00 1554.50 619.00" xmlns="http://www.w3.org/2000/svg" xmlns:xlink="http://www.w3.org/1999/xlink">
<g id="graph0" class="graph" transform="scale(1 1) rotate(0) translate(4 615)">
<title>G</title>
<polygon fill="white" stroke="transparent" points="-4,4 -4,-615 1550.5,-615 1550.5,4 -4,4"/>
<!-- 736101806 -->
<g id="node1" class="node">
<title>736101806</title>
<ellipse fill="none" stroke="black" cx="87" cy="-366" rx="27" ry="18"/>
<text text-anchor="middle" x="87" y="-362.3" font-family="Times,serif" font-size="14.00">0</text>
</g>
<!-- 563152085 -->
<g id="node2" class="node">
<title>563152085</title>
<ellipse fill="none" stroke="black" cx="159" cy="-366" rx="27" ry="18"/>
<text text-anchor="middle" x="159" y="-362.3" font-family="Times,serif" font-size="14.00">1</text>
</g>
<!-- 1961437505 -->
<g id="node5" class="node">
<title>1961437505</title>
<ellipse fill="none" stroke="black" cx="139" cy="-279" rx="27" ry="18"/>
<text text-anchor="middle" x="139" y="-275.3" font-family="Times,serif" font-size="14.00">2</text>
</g>
<!-- 563152085&#45;&gt;1961437505 -->
<g id="edge1" class="edge">
<title>563152085&#45;&gt;1961437505</title>
<path fill="none" stroke="black" d="M139.27,-353.58C131.09,-347.69 122.47,-339.69 118,-330 114.06,-321.46 116.39,-311.97 120.7,-303.58"/>
<polygon fill="black" stroke="black" points="123.72,-305.35 125.95,-294.99 117.75,-301.7 123.72,-305.35"/>
<text text-anchor="middle" x="148.5" y="-318.8" font-family="Times,serif" font-size="14.00">insert_card</text>
</g>
<!-- 3891155350 -->
<g id="node7" class="node">
<title>3891155350</title>
<ellipse fill="none" stroke="black" cx="245" cy="-279" rx="27" ry="18"/>
<text text-anchor="middle" x="245" y="-275.3" font-family="Times,serif" font-size="14.00">6</text>
</g>
<!-- 563152085&#45;&gt;3891155350 -->
<g id="edge9" class="edge">
<title>563152085&#45;&gt;3891155350</title>
<path fill="none" stroke="black" d="M171.13,-349.5C179.4,-339.29 190.84,-325.86 202,-315 207.5,-309.65 213.75,-304.23 219.74,-299.31"/>
<polygon fill="black" stroke="black" points="222.05,-301.95 227.66,-292.97 217.67,-296.49 222.05,-301.95"/>
<text text-anchor="middle" x="212.5" y="-318.8" font-family="Times,serif" font-size="14.00">exit</text>
</g>
<!-- 754189764 -->
<g id="node3" class="node">
<title>754189764</title>
<ellipse fill="none" stroke="black" cx="159" cy="-18" rx="27" ry="18"/>
<text text-anchor="middle" x="159" y="-14.3" font-family="Times,serif" font-size="14.00">3</text>
</g>
<!-- 754189764&#45;&gt;563152085 -->
<g id="edge3" class="edge">
<title>754189764&#45;&gt;563152085</title>
<path fill="none" stroke="black" d="M132.39,-21.22C87.12,-26.61 0,-44.68 0,-104 0,-280 0,-280 0,-280 0,-287.2 82.07,-327.92 128.28,-350.29"/>
<polygon fill="black" stroke="black" points="127.03,-353.57 137.56,-354.76 130.07,-347.27 127.03,-353.57"/>
<text text-anchor="middle" x="28" y="-188.3" font-family="Times,serif" font-size="14.00">eject_card</text>
</g>
<!-- 2579566841 -->
<g id="node4" class="node">
<title>2579566841</title>
<ellipse fill="none" stroke="black" cx="125" cy="-105" rx="27" ry="18"/>
<text text-anchor="middle" x="125" y="-101.3" font-family="Times,serif" font-size="14.00">5</text>
</g>
<!-- 2579566841&#45;&gt;563152085 -->
<g id="edge8" class="edge">
<title>2579566841&#45;&gt;563152085</title>
<path fill="none" stroke="black" d="M118.08,-122.41C112.77,-135.97 105.86,-155.86 103,-174 94.48,-228 95.74,-242.82 103,-297 105.02,-312.07 103.44,-317.44 112,-330 116.76,-336.97 123.37,-343.1 130.13,-348.2"/>
<polygon fill="black" stroke="black" points="128.43,-351.29 138.65,-354.1 132.42,-345.53 128.43,-351.29"/>
<text text-anchor="middle" x="113.5" y="-231.8" font-family="Times,serif" font-size="14.00">failed</text>
</g>
<!-- 2579566841&#45;&gt;754189764 -->
<g id="edge7" class="edge">
<title>2579566841&#45;&gt;754189764</title>
<path fill="none" stroke="black" d="M122.35,-86.72C121.55,-76.79 121.8,-64.29 126,-54 128.13,-48.78 131.44,-43.88 135.14,-39.5"/>
<polygon fill="black" stroke="black" points="137.73,-41.85 142.09,-32.2 132.66,-37.03 137.73,-41.85"/>
<text text-anchor="middle" x="153" y="-57.8" font-family="Times,serif" font-size="14.00">successed</text>
</g>
<!-- 1961437505&#45;&gt;754189764 -->
<g id="edge2" class="edge">
<title>1961437505&#45;&gt;754189764</title>
<path fill="none" stroke="black" d="M156.86,-264.97C163.49,-259.07 170.3,-251.51 174,-243 204.84,-172.03 178.67,-146.37 180,-69 180.11,-62.33 181.78,-60.42 180,-54 179,-50.37 177.5,-46.74 175.77,-43.27"/>
<polygon fill="black" stroke="black" points="178.78,-41.49 170.78,-34.54 172.71,-44.96 178.78,-41.49"/>
<text text-anchor="middle" x="215" y="-144.8" font-family="Times,serif" font-size="14.00">successed</text>
</g>
<!-- 3045661981 -->
<g id="node8" class="node">
<title>3045661981</title>
<ellipse fill="none" stroke="black" cx="139" cy="-192" rx="27" ry="18"/>
<text text-anchor="middle" x="139" y="-188.3" font-family="Times,serif" font-size="14.00">4</text>
</g>
<!-- 1961437505&#45;&gt;3045661981 -->
<g id="edge4" class="edge">
<title>1961437505&#45;&gt;3045661981</title>
<path fill="none" stroke="black" d="M139,-260.8C139,-249.16 139,-233.55 139,-220.24"/>
<polygon fill="black" stroke="black" points="142.5,-220.18 139,-210.18 135.5,-220.18 142.5,-220.18"/>
<text text-anchor="middle" x="154.5" y="-231.8" font-family="Times,serif" font-size="14.00">failed</text>
</g>
<!-- 858729378 -->
<g id="node6" class="node">
<title>858729378</title>
<ellipse fill="none" stroke="black" cx="159" cy="-523" rx="27" ry="18"/>
<text text-anchor="middle" x="159" y="-519.3" font-family="Times,serif" font-size="14.00">7</text>
</g>
<!-- 858729378&#45;&gt;736101806 -->
<g id="edge11" class="edge">
<title>858729378&#45;&gt;736101806</title>
<path fill="none" stroke="black" d="M151.43,-505.71C138.93,-478.8 113.88,-424.86 98.96,-392.75"/>
<polygon fill="black" stroke="black" points="102.07,-391.14 94.68,-383.54 95.72,-394.09 102.07,-391.14"/>
<text text-anchor="middle" x="118.5" y="-405.8" font-family="Times,serif" font-size="14.00">yes</text>
</g>
<!-- 858729378&#45;&gt;563152085 -->
<g id="edge12" class="edge">
<title>858729378&#45;&gt;563152085</title>
<path fill="none" stroke="black" d="M159,-504.82C159,-478.17 159,-426.61 159,-394.66"/>
<polygon fill="black" stroke="black" points="162.5,-394.26 159,-384.26 155.5,-394.26 162.5,-394.26"/>
<text text-anchor="middle" x="166" y="-405.8" font-family="Times,serif" font-size="14.00">no</text>
</g>
<!-- 3891155350&#45;&gt;563152085 -->
<g id="edge13" class="edge">
<title>3891155350&#45;&gt;563152085</title>
<path fill="none" stroke="black" d="M240.63,-296.86C237.22,-307.38 231.59,-320.64 223,-330 214.3,-339.48 202.44,-346.94 191.28,-352.5"/>
<polygon fill="black" stroke="black" points="189.76,-349.35 182.16,-356.73 192.71,-355.7 189.76,-349.35"/>
<text text-anchor="middle" x="240" y="-318.8" font-family="Times,serif" font-size="14.00">no</text>
</g>
<!-- 3891155350&#45;&gt;858729378 -->
<g id="edge10" class="edge">
<title>3891155350&#45;&gt;858729378</title>
<path fill="none" stroke="black" d="M250.04,-296.86C252.21,-306.64 253.71,-319.14 251,-330 238.17,-381.31 217.58,-387.17 195,-435 185.49,-455.14 175.9,-478.49 169.02,-495.92"/>
<polygon fill="black" stroke="black" points="165.68,-494.85 165.3,-505.44 172.2,-497.4 165.68,-494.85"/>
<text text-anchor="middle" x="254.5" y="-362.3" font-family="Times,serif" font-size="14.00">yes</text>
</g>
<!-- 3045661981&#45;&gt;754189764 -->
<g id="edge5" class="edge">
<title>3045661981&#45;&gt;754189764</title>
<path fill="none" stroke="black" d="M166.31,-190.81C192.31,-188.99 230.19,-181.72 249,-156 270.23,-126.97 286.58,-148.16 208,-54 202.32,-47.19 195.02,-41.05 187.81,-35.89"/>
<polygon fill="black" stroke="black" points="189.73,-32.96 179.47,-30.29 185.82,-38.77 189.73,-32.96"/>
<text text-anchor="middle" x="289" y="-101.3" font-family="Times,serif" font-size="14.00">successed</text>
</g>
<!-- 3045661981&#45;&gt;2579566841 -->
<g id="edge6" class="edge">
<title>3045661981&#45;&gt;2579566841</title>
<path fill="none" stroke="black" d="M136.17,-173.8C134.25,-162.16 131.68,-146.55 129.49,-133.24"/>
<polygon fill="black" stroke="black" points="132.91,-132.47 127.83,-123.18 126,-133.61 132.91,-132.47"/>
<text text-anchor="middle" x="148.5" y="-144.8" font-family="Times,serif" font-size="14.00">failed</text>
</g>
<!-- all_node -->
<g id="node9" class="node">
<title>all_node</title>
<polygon fill="none" stroke="black" points="212,-586 212,-607 1539,-607 1539,-586 212,-586"/>
<text text-anchor="start" x="215" y="-592.8" font-family="Times,serif" font-size="14.00">0 &#45;&#45; polystate.Exit</text>
<polygon fill="none" stroke="black" points="212,-565 212,-586 1539,-586 1539,-565 212,-565"/>
<text text-anchor="start" x="215" y="-571.8" font-family="Times,serif" font-size="14.00">1 &#45;&#45; exe&#45;atm.Ready</text>
<polygon fill="none" stroke="black" points="212,-544 212,-565 1539,-565 1539,-544 212,-544"/>
<text text-anchor="start" x="215" y="-550.8" font-family="Times,serif" font-size="14.00">3 &#45;&#45; exe&#45;atm.Session</text>
<polygon fill="none" stroke="black" points="212,-523 212,-544 1539,-544 1539,-523 212,-523"/>
<text text-anchor="start" x="215" y="-529.8" font-family="Times,serif" font-size="14.00">5 &#45;&#45; exe&#45;atm.CheckPin(exe&#45;atm.Session,exe&#45;atm.Ready)</text>
<polygon fill="none" stroke="black" points="212,-502 212,-523 1539,-523 1539,-502 212,-502"/>
<text text-anchor="start" x="215" y="-508.8" font-family="Times,serif" font-size="14.00">2 &#45;&#45; exe&#45;atm.CheckPin(exe&#45;atm.Session,exe&#45;atm.CheckPin(exe&#45;atm.Session,exe&#45;atm.CheckPin(exe&#45;atm.Session,exe&#45;atm.Ready)))</text>
<polygon fill="none" stroke="black" points="212,-481 212,-502 1539,-502 1539,-481 212,-481"/>
<text text-anchor="start" x="215" y="-487.8" font-family="Times,serif" font-size="14.00">7 &#45;&#45; generic.AreYouSure((function &#39;Atm&#39;),exe&#45;atm.Context,(function &#39;zgui_are_you_sure_genMsg&#39;),polystate.Exit,exe&#45;atm.Ready)</text>
<polygon fill="none" stroke="black" points="212,-460 212,-481 1539,-481 1539,-460 212,-460"/>
<text text-anchor="start" x="215" y="-466.8" font-family="Times,serif" font-size="14.00">6 &#45;&#45; generic.AreYouSure((function &#39;Atm&#39;),exe&#45;atm.Context,(function &#39;zgui_are_you_sure_genMsg&#39;),generic.AreYouSure((function &#39;Atm&#39;),exe&#45;atm.Context,(function &#39;zgui_are_you_sure_genMsg&#39;),polystate.Exit,exe&#45;atm.Ready),exe&#45;atm.Ready)</text>
<polygon fill="none" stroke="black" points="212,-439 212,-460 1539,-460 1539,-439 212,-439"/>
<text text-anchor="start" x="215" y="-445.8" font-family="Times,serif" font-size="14.00">4 &#45;&#45; exe&#45;atm.CheckPin(exe&#45;atm.Session,exe&#45;atm.CheckPin(exe&#45;atm.Session,exe&#45;atm.Ready))</text>
</g>
</g>
</svg>
