<?xml version="1.0" encoding="UTF-8" standalone="no"?>
<!DOCTYPE svg PUBLIC "-//W3C//DTD SVG 1.1//EN"
 "http://www.w3.org/Graphics/SVG/1.1/DTD/svg11.dtd">
<!-- Generated by graphviz version 2.43.0 (0)
 -->
<!-- Title: G Pages: 1 -->
<svg width="578pt" height="479pt"
 viewBox="0.00 0.00 577.94 479.00" xmlns="http://www.w3.org/2000/svg" xmlns:xlink="http://www.w3.org/1999/xlink">
<g id="graph0" class="graph" transform="scale(1 1) rotate(0) translate(4 475)">
<title>G</title>
<polygon fill="white" stroke="transparent" points="-4,4 -4,-475 573.94,-475 573.94,4 -4,4"/>
<!-- 2170947967 -->
<g id="node1" class="node">
<title>2170947967</title>
<ellipse fill="none" stroke="black" cx="212.94" cy="-453" rx="101.28" ry="18"/>
<text text-anchor="middle" x="212.94" y="-449.3" font-family="Times,serif" font-size="14.00">are_you_sure(exit, ready)</text>
</g>
<!-- 71696827 -->
<g id="node4" class="node">
<title>71696827</title>
<ellipse fill="none" stroke="black" cx="168.94" cy="-366" rx="27" ry="18"/>
<text text-anchor="middle" x="168.94" y="-362.3" font-family="Times,serif" font-size="14.00">exit</text>
</g>
<!-- 2170947967&#45;&gt;71696827 -->
<g id="edge11" class="edge">
<title>2170947967&#45;&gt;71696827</title>
<path fill="none" stroke="black" d="M198.01,-434.97C193.71,-429.49 189.28,-423.22 185.94,-417 182.03,-409.7 178.75,-401.32 176.16,-393.53"/>
<polygon fill="black" stroke="black" points="179.45,-392.3 173.15,-383.78 172.76,-394.37 179.45,-392.3"/>
<text text-anchor="middle" x="196.44" y="-405.8" font-family="Times,serif" font-size="14.00">Yes</text>
</g>
<!-- 104268310 -->
<g id="node5" class="node">
<title>104268310</title>
<ellipse fill="none" stroke="black" cx="251.94" cy="-366" rx="30.59" ry="18"/>
<text text-anchor="middle" x="251.94" y="-362.3" font-family="Times,serif" font-size="14.00">ready</text>
</g>
<!-- 2170947967&#45;&gt;104268310 -->
<g id="edge12" class="edge">
<title>2170947967&#45;&gt;104268310</title>
<path fill="none" stroke="black" d="M226.27,-434.84C230.1,-429.35 234.02,-423.11 236.94,-417 240.39,-409.81 243.23,-401.65 245.49,-394.04"/>
<polygon fill="black" stroke="black" points="248.93,-394.72 248.2,-384.15 242.18,-392.87 248.93,-394.72"/>
<text text-anchor="middle" x="251.44" y="-405.8" font-family="Times,serif" font-size="14.00">No</text>
</g>
<!-- 3601405544 -->
<g id="node2" class="node">
<title>3601405544</title>
<ellipse fill="none" stroke="black" cx="251.94" cy="-279" rx="235.06" ry="18"/>
<text text-anchor="middle" x="251.94" y="-275.3" font-family="Times,serif" font-size="14.00">checkPin(session, checkPin(session, checkPin(session, ready)))</text>
</g>
<!-- 203162373 -->
<g id="node6" class="node">
<title>203162373</title>
<ellipse fill="none" stroke="black" cx="369.94" cy="-18" rx="36.29" ry="18"/>
<text text-anchor="middle" x="369.94" y="-14.3" font-family="Times,serif" font-size="14.00">session</text>
</g>
<!-- 3601405544&#45;&gt;203162373 -->
<g id="edge2" class="edge">
<title>3601405544&#45;&gt;203162373</title>
<path fill="none" stroke="black" d="M321.33,-261.72C348.52,-251.58 376.97,-235.43 392.94,-210 425.28,-158.5 399.99,-83.64 382.68,-44.7"/>
<polygon fill="black" stroke="black" points="385.86,-43.23 378.49,-35.61 379.5,-46.16 385.86,-43.23"/>
<text text-anchor="middle" x="435.94" y="-144.8" font-family="Times,serif" font-size="14.00">Successed</text>
</g>
<!-- 1645285282 -->
<g id="node7" class="node">
<title>1645285282</title>
<ellipse fill="none" stroke="black" cx="216.94" cy="-192" rx="167.07" ry="18"/>
<text text-anchor="middle" x="216.94" y="-188.3" font-family="Times,serif" font-size="14.00">checkPin(session, checkPin(session, ready))</text>
</g>
<!-- 3601405544&#45;&gt;1645285282 -->
<g id="edge5" class="edge">
<title>3601405544&#45;&gt;1645285282</title>
<path fill="none" stroke="black" d="M244.86,-260.8C239.97,-248.93 233.38,-232.93 227.83,-219.45"/>
<polygon fill="black" stroke="black" points="231.06,-218.09 224.02,-210.18 224.59,-220.75 231.06,-218.09"/>
<text text-anchor="middle" x="253.94" y="-231.8" font-family="Times,serif" font-size="14.00">Failed</text>
</g>
<!-- 1910900956 -->
<g id="node3" class="node">
<title>1910900956</title>
<ellipse fill="none" stroke="black" cx="192.94" cy="-105" rx="98.58" ry="18"/>
<text text-anchor="middle" x="192.94" y="-101.3" font-family="Times,serif" font-size="14.00">checkPin(session, ready)</text>
</g>
<!-- 1910900956&#45;&gt;104268310 -->
<g id="edge9" class="edge">
<title>1910900956&#45;&gt;104268310</title>
<path fill="none" stroke="black" d="M135.99,-119.81C104.34,-130.09 66.34,-147.09 40.94,-174 25.71,-190.14 -17.17,-264.56 7.94,-297 63.3,-368.52 118.55,-321.26 204.94,-348 208.95,-349.24 213.13,-350.62 217.26,-352.04"/>
<polygon fill="black" stroke="black" points="216.13,-355.35 226.72,-355.39 218.46,-348.75 216.13,-355.35"/>
<text text-anchor="middle" x="26.94" y="-231.8" font-family="Times,serif" font-size="14.00">Failed</text>
</g>
<!-- 1910900956&#45;&gt;203162373 -->
<g id="edge8" class="edge">
<title>1910900956&#45;&gt;203162373</title>
<path fill="none" stroke="black" d="M211.08,-87.23C223.49,-76.48 240.76,-62.93 257.94,-54 279.63,-42.73 305.6,-34.33 327.06,-28.59"/>
<polygon fill="black" stroke="black" points="328.08,-31.95 336.89,-26.07 326.33,-25.17 328.08,-31.95"/>
<text text-anchor="middle" x="285.94" y="-57.8" font-family="Times,serif" font-size="14.00">Successed</text>
</g>
<!-- 104268310&#45;&gt;2170947967 -->
<g id="edge10" class="edge">
<title>104268310&#45;&gt;2170947967</title>
<path fill="none" stroke="black" d="M232.11,-380.04C225.03,-385.84 217.85,-393.33 213.94,-402 210.84,-408.89 209.73,-416.87 209.62,-424.4"/>
<polygon fill="black" stroke="black" points="206.13,-424.74 210.02,-434.6 213.12,-424.47 206.13,-424.74"/>
<text text-anchor="middle" x="225.44" y="-405.8" font-family="Times,serif" font-size="14.00">Exit</text>
</g>
<!-- 104268310&#45;&gt;3601405544 -->
<g id="edge1" class="edge">
<title>104268310&#45;&gt;3601405544</title>
<path fill="none" stroke="black" d="M251.94,-347.8C251.94,-336.16 251.94,-320.55 251.94,-307.24"/>
<polygon fill="black" stroke="black" points="255.44,-307.18 251.94,-297.18 248.44,-307.18 255.44,-307.18"/>
<text text-anchor="middle" x="280.94" y="-318.8" font-family="Times,serif" font-size="14.00">InsertCard</text>
</g>
<!-- 203162373&#45;&gt;104268310 -->
<g id="edge4" class="edge">
<title>203162373&#45;&gt;104268310</title>
<path fill="none" stroke="black" d="M404.67,-23.88C447.57,-32.08 514.94,-53.08 514.94,-104 514.94,-280 514.94,-280 514.94,-280 514.94,-326.25 365.82,-351.04 292.15,-360.47"/>
<polygon fill="black" stroke="black" points="291.35,-357.04 281.86,-361.75 292.21,-363.99 291.35,-357.04"/>
<text text-anchor="middle" x="542.44" y="-188.3" font-family="Times,serif" font-size="14.00">EjectCard</text>
</g>
<!-- 203162373&#45;&gt;203162373 -->
<g id="edge3" class="edge">
<title>203162373&#45;&gt;203162373</title>
<path fill="none" stroke="black" d="M402.87,-25.87C414.7,-26.04 424.34,-23.41 424.34,-18 424.34,-14.28 419.78,-11.88 413.09,-10.79"/>
<polygon fill="black" stroke="black" points="413.08,-7.28 402.87,-10.13 412.63,-14.27 413.08,-7.28"/>
<text text-anchor="middle" x="449.84" y="-14.3" font-family="Times,serif" font-size="14.00">Disponse</text>
</g>
<!-- 1645285282&#45;&gt;1910900956 -->
<g id="edge7" class="edge">
<title>1645285282&#45;&gt;1910900956</title>
<path fill="none" stroke="black" d="M212.09,-173.8C208.77,-162.05 204.3,-146.24 200.52,-132.84"/>
<polygon fill="black" stroke="black" points="203.88,-131.85 197.79,-123.18 197.14,-133.75 203.88,-131.85"/>
<text text-anchor="middle" x="223.94" y="-144.8" font-family="Times,serif" font-size="14.00">Failed</text>
</g>
<!-- 1645285282&#45;&gt;203162373 -->
<g id="edge6" class="edge">
<title>1645285282&#45;&gt;203162373</title>
<path fill="none" stroke="black" d="M241.79,-174.01C259.47,-161.21 283.14,-142.57 300.94,-123 323.14,-98.59 343.34,-66.43 356.07,-44.37"/>
<polygon fill="black" stroke="black" points="359.16,-46.02 361.05,-35.59 353.07,-42.56 359.16,-46.02"/>
<text text-anchor="middle" x="357.94" y="-101.3" font-family="Times,serif" font-size="14.00">Successed</text>
</g>
</g>
</svg>
