<?xml version="1.0" encoding="UTF-8" standalone="no"?>
<!DOCTYPE svg PUBLIC "-//W3C//DTD SVG 1.1//EN"
 "http://www.w3.org/Graphics/SVG/1.1/DTD/svg11.dtd">
<!-- Generated by graphviz version 2.43.0 (0)
 -->
<!-- Title: G Pages: 1 -->
<svg width="682pt" height="392pt"
 viewBox="0.00 0.00 682.28 392.00" xmlns="http://www.w3.org/2000/svg" xmlns:xlink="http://www.w3.org/1999/xlink">
<g id="graph0" class="graph" transform="scale(1 1) rotate(0) translate(4 388)">
<title>G</title>
<polygon fill="white" stroke="transparent" points="-4,4 -4,-388 678.28,-388 678.28,4 -4,4"/>
<!-- 104268310 -->
<g id="node1" class="node">
<title>104268310</title>
<ellipse fill="none" stroke="black" cx="542.28" cy="-366" rx="30.59" ry="18"/>
<text text-anchor="middle" x="542.28" y="-362.3" font-family="Times,serif" font-size="14.00">ready</text>
</g>
<!-- 3601405544 -->
<g id="node2" class="node">
<title>3601405544</title>
<ellipse fill="none" stroke="black" cx="235.28" cy="-279" rx="235.06" ry="18"/>
<text text-anchor="middle" x="235.28" y="-275.3" font-family="Times,serif" font-size="14.00">checkPin(session, checkPin(session, checkPin(session, ready)))</text>
</g>
<!-- 104268310&#45;&gt;3601405544 -->
<g id="edge1" class="edge">
<title>104268310&#45;&gt;3601405544</title>
<path fill="none" stroke="black" d="M515.3,-357.53C468.61,-344.6 371.34,-317.67 304.68,-299.22"/>
<polygon fill="black" stroke="black" points="305.24,-295.74 294.67,-296.44 303.37,-302.48 305.24,-295.74"/>
<text text-anchor="middle" x="436.28" y="-318.8" font-family="Times,serif" font-size="14.00">InsertCard</text>
</g>
<!-- 71696827 -->
<g id="node4" class="node">
<title>71696827</title>
<ellipse fill="none" stroke="black" cx="515.28" cy="-279" rx="27" ry="18"/>
<text text-anchor="middle" x="515.28" y="-275.3" font-family="Times,serif" font-size="14.00">exit</text>
</g>
<!-- 104268310&#45;&gt;71696827 -->
<g id="edge10" class="edge">
<title>104268310&#45;&gt;71696827</title>
<path fill="none" stroke="black" d="M536.94,-348.21C533.17,-336.33 528.04,-320.17 523.71,-306.56"/>
<polygon fill="black" stroke="black" points="526.97,-305.23 520.6,-296.76 520.29,-307.35 526.97,-305.23"/>
<text text-anchor="middle" x="541.78" y="-318.8" font-family="Times,serif" font-size="14.00">Exit</text>
</g>
<!-- 203162373 -->
<g id="node3" class="node">
<title>203162373</title>
<ellipse fill="none" stroke="black" cx="370.28" cy="-18" rx="36.29" ry="18"/>
<text text-anchor="middle" x="370.28" y="-14.3" font-family="Times,serif" font-size="14.00">session</text>
</g>
<!-- 3601405544&#45;&gt;203162373 -->
<g id="edge2" class="edge">
<title>3601405544&#45;&gt;203162373</title>
<path fill="none" stroke="black" d="M221.36,-260.73C206.31,-239.81 186.12,-203.7 199.28,-174 227.51,-110.32 296.26,-61.64 337.48,-36.97"/>
<polygon fill="black" stroke="black" points="339.47,-39.86 346.32,-31.78 335.93,-33.82 339.47,-39.86"/>
<text text-anchor="middle" x="245.28" y="-144.8" font-family="Times,serif" font-size="14.00">Successed</text>
</g>
<!-- 1645285282 -->
<g id="node5" class="node">
<title>1645285282</title>
<ellipse fill="none" stroke="black" cx="375.28" cy="-192" rx="167.07" ry="18"/>
<text text-anchor="middle" x="375.28" y="-188.3" font-family="Times,serif" font-size="14.00">checkPin(session, checkPin(session, ready))</text>
</g>
<!-- 3601405544&#45;&gt;1645285282 -->
<g id="edge5" class="edge">
<title>3601405544&#45;&gt;1645285282</title>
<path fill="none" stroke="black" d="M263.27,-261C284.93,-247.86 315.08,-229.55 338.65,-215.24"/>
<polygon fill="black" stroke="black" points="340.6,-218.15 347.33,-209.97 336.97,-212.17 340.6,-218.15"/>
<text text-anchor="middle" x="331.28" y="-231.8" font-family="Times,serif" font-size="14.00">Failed</text>
</g>
<!-- 203162373&#45;&gt;104268310 -->
<g id="edge4" class="edge">
<title>203162373&#45;&gt;104268310</title>
<path fill="none" stroke="black" d="M405.16,-23.48C473.69,-33.26 619.28,-59.29 619.28,-104 619.28,-280 619.28,-280 619.28,-280 619.28,-309.05 594.27,-332.6 572.76,-347.48"/>
<polygon fill="black" stroke="black" points="570.58,-344.72 564.14,-353.13 574.42,-350.57 570.58,-344.72"/>
<text text-anchor="middle" x="646.78" y="-188.3" font-family="Times,serif" font-size="14.00">EjectCard</text>
</g>
<!-- 203162373&#45;&gt;203162373 -->
<g id="edge3" class="edge">
<title>203162373&#45;&gt;203162373</title>
<path fill="none" stroke="black" d="M403.21,-25.87C415.03,-26.04 424.68,-23.41 424.68,-18 424.68,-14.28 420.12,-11.88 413.43,-10.79"/>
<polygon fill="black" stroke="black" points="413.41,-7.28 403.21,-10.13 412.96,-14.27 413.41,-7.28"/>
<text text-anchor="middle" x="450.18" y="-14.3" font-family="Times,serif" font-size="14.00">Disponse</text>
</g>
<!-- 1645285282&#45;&gt;203162373 -->
<g id="edge6" class="edge">
<title>1645285282&#45;&gt;203162373</title>
<path fill="none" stroke="black" d="M358.99,-173.86C347.95,-160.98 334.31,-142.32 328.28,-123 323.51,-107.73 323.91,-102.39 328.28,-87 332.76,-71.21 342.07,-55.49 350.79,-43.15"/>
<polygon fill="black" stroke="black" points="353.82,-44.94 356.95,-34.81 348.19,-40.78 353.82,-44.94"/>
<text text-anchor="middle" x="356.28" y="-101.3" font-family="Times,serif" font-size="14.00">Successed</text>
</g>
<!-- 1910900956 -->
<g id="node6" class="node">
<title>1910900956</title>
<ellipse fill="none" stroke="black" cx="492.28" cy="-105" rx="98.58" ry="18"/>
<text text-anchor="middle" x="492.28" y="-101.3" font-family="Times,serif" font-size="14.00">checkPin(session, ready)</text>
</g>
<!-- 1645285282&#45;&gt;1910900956 -->
<g id="edge7" class="edge">
<title>1645285282&#45;&gt;1910900956</title>
<path fill="none" stroke="black" d="M398.67,-174C416.57,-161 441.41,-142.96 461.01,-128.72"/>
<polygon fill="black" stroke="black" points="463.29,-131.39 469.32,-122.68 459.18,-125.72 463.29,-131.39"/>
<text text-anchor="middle" x="458.28" y="-144.8" font-family="Times,serif" font-size="14.00">Failed</text>
</g>
<!-- 1910900956&#45;&gt;104268310 -->
<g id="edge9" class="edge">
<title>1910900956&#45;&gt;104268310</title>
<path fill="none" stroke="black" d="M512.71,-122.69C526.37,-135.21 543.26,-153.64 551.28,-174 586.68,-263.91 560.41,-308.55 556.28,-330 555.72,-332.89 554.93,-335.85 554,-338.76"/>
<polygon fill="black" stroke="black" points="550.65,-337.71 550.46,-348.3 557.22,-340.15 550.65,-337.71"/>
<text text-anchor="middle" x="585.28" y="-231.8" font-family="Times,serif" font-size="14.00">Failed</text>
</g>
<!-- 1910900956&#45;&gt;203162373 -->
<g id="edge8" class="edge">
<title>1910900956&#45;&gt;203162373</title>
<path fill="none" stroke="black" d="M468.47,-87.41C448.48,-73.48 419.87,-53.55 398.69,-38.79"/>
<polygon fill="black" stroke="black" points="400.6,-35.86 390.4,-33.02 396.6,-41.6 400.6,-35.86"/>
<text text-anchor="middle" x="467.28" y="-57.8" font-family="Times,serif" font-size="14.00">Successed</text>
</g>
</g>
</svg>
