<?xml version="1.0" encoding="UTF-8" standalone="no"?>
<!DOCTYPE svg PUBLIC "-//W3C//DTD SVG 1.1//EN"
 "http://www.w3.org/Graphics/SVG/1.1/DTD/svg11.dtd">
<!-- Generated by graphviz version 2.43.0 (0)
 -->
<!-- Title: fsm_state_graph Pages: 1 -->
<svg width="1224pt" height="587pt"
 viewBox="0.00 0.00 1224.00 587.00" xmlns="http://www.w3.org/2000/svg" xmlns:xlink="http://www.w3.org/1999/xlink">
<g id="graph0" class="graph" transform="scale(1 1) rotate(0) translate(4 583)">
<title>fsm_state_graph</title>
<polygon fill="white" stroke="transparent" points="-4,4 -4,-583 1220,-583 1220,4 -4,4"/>
<g id="clust1" class="cluster">
<title>cluster_Atm</title>
<polygon fill="none" stroke="black" points="8,-8 8,-501 448,-501 448,-8 8,-8"/>
<text text-anchor="middle" x="228" y="-485.8" font-family="Times,serif" font-size="14.00">Atm_state_graph</text>
</g>
<g id="clust2" class="cluster">
<title>cluster_Atm_state</title>
<polygon fill="none" stroke="black" points="456,-356 456,-571 1208,-571 1208,-356 456,-356"/>
<text text-anchor="middle" x="832" y="-555.8" font-family="Times,serif" font-size="14.00">Atm_state</text>
</g>
<!-- 563152085 -->
<g id="node1" class="node">
<title>563152085</title>
<ellipse fill="none" stroke="black" cx="241" cy="-452" rx="27" ry="18"/>
<text text-anchor="middle" x="241" y="-448.3" font-family="Times,serif" font-size="14.00">0</text>
</g>
<!-- 563152085&#45;&gt;563152085 -->
<g id="edge20" class="edge">
<title>563152085&#45;&gt;563152085</title>
<path fill="none" stroke="blue" d="M254.36,-467.75C269.12,-478.25 286,-473 286,-452 286,-435.27 275.28,-428.53 263.46,-431.8"/>
<polygon fill="blue" stroke="blue" points="261.81,-428.71 254.36,-436.25 264.88,-435 261.81,-428.71"/>
<text text-anchor="middle" x="318.5" y="-448.3" font-family="Times,serif" font-size="14.00">no_trasition</text>
</g>
<!-- 1961437505 -->
<g id="node2" class="node">
<title>1961437505</title>
<ellipse fill="none" stroke="black" cx="63" cy="-295" rx="27" ry="18"/>
<text text-anchor="middle" x="63" y="-291.3" font-family="Times,serif" font-size="14.00">1</text>
</g>
<!-- 563152085&#45;&gt;1961437505 -->
<g id="edge1" class="edge">
<title>563152085&#45;&gt;1961437505</title>
<path fill="none" stroke="blue" d="M225.2,-437.24C193.8,-409.9 123.38,-348.58 86.52,-316.48"/>
<polygon fill="blue" stroke="blue" points="88.6,-313.65 78.76,-309.72 84,-318.93 88.6,-313.65"/>
<text text-anchor="middle" x="145.5" y="-334.8" font-family="Times,serif" font-size="14.00">insert_card</text>
</g>
<!-- 2176067892 -->
<g id="node6" class="node">
<title>2176067892</title>
<ellipse fill="none" stroke="black" cx="275" cy="-295" rx="27" ry="18"/>
<text text-anchor="middle" x="275" y="-291.3" font-family="Times,serif" font-size="14.00">5</text>
</g>
<!-- 563152085&#45;&gt;2176067892 -->
<g id="edge13" class="edge">
<title>563152085&#45;&gt;2176067892</title>
<path fill="none" stroke="black" d="M240.57,-433.81C240.49,-410.06 242.19,-366.16 254,-331 255.2,-327.43 256.8,-323.84 258.6,-320.38"/>
<polygon fill="black" stroke="black" points="261.66,-322.08 263.62,-311.67 255.59,-318.58 261.66,-322.08"/>
<text text-anchor="middle" x="264.5" y="-334.8" font-family="Times,serif" font-size="14.00">exit</text>
</g>
<!-- 1961437505&#45;&gt;1961437505 -->
<g id="edge12" class="edge">
<title>1961437505&#45;&gt;1961437505</title>
<path fill="none" stroke="blue" d="M87.53,-302.75C98.51,-303.49 108,-300.91 108,-295 108,-291.03 103.72,-288.56 97.57,-287.59"/>
<polygon fill="blue" stroke="blue" points="97.65,-284.09 87.53,-287.25 97.41,-291.09 97.65,-284.09"/>
<text text-anchor="middle" x="140.5" y="-291.3" font-family="Times,serif" font-size="14.00">no_trasition</text>
</g>
<!-- 754189764 -->
<g id="node3" class="node">
<title>754189764</title>
<ellipse fill="none" stroke="black" cx="120" cy="-34" rx="27" ry="18"/>
<text text-anchor="middle" x="120" y="-30.3" font-family="Times,serif" font-size="14.00">2</text>
</g>
<!-- 1961437505&#45;&gt;754189764 -->
<g id="edge2" class="edge">
<title>1961437505&#45;&gt;754189764</title>
<path fill="none" stroke="blue" d="M51.9,-278.42C43.21,-265.18 31.8,-245.32 27,-226 19.6,-196.19 21.06,-186.06 31,-157 45.58,-114.38 54.82,-105.14 83,-70 86.9,-65.14 91.45,-60.3 96.01,-55.84"/>
<polygon fill="blue" stroke="blue" points="98.66,-58.16 103.56,-48.76 93.87,-53.05 98.66,-58.16"/>
<text text-anchor="middle" x="58" y="-160.8" font-family="Times,serif" font-size="14.00">successed</text>
</g>
<!-- 3045661981 -->
<g id="node4" class="node">
<title>3045661981</title>
<ellipse fill="none" stroke="black" cx="63" cy="-208" rx="27" ry="18"/>
<text text-anchor="middle" x="63" y="-204.3" font-family="Times,serif" font-size="14.00">3</text>
</g>
<!-- 1961437505&#45;&gt;3045661981 -->
<g id="edge5" class="edge">
<title>1961437505&#45;&gt;3045661981</title>
<path fill="none" stroke="blue" d="M63,-276.8C63,-265.16 63,-249.55 63,-236.24"/>
<polygon fill="blue" stroke="blue" points="66.5,-236.18 63,-226.18 59.5,-236.18 66.5,-236.18"/>
<text text-anchor="middle" x="78.5" y="-247.8" font-family="Times,serif" font-size="14.00">failed</text>
</g>
<!-- 754189764&#45;&gt;563152085 -->
<g id="edge3" class="edge">
<title>754189764&#45;&gt;563152085</title>
<path fill="none" stroke="blue" d="M146.77,-36.88C185.74,-41.21 256.96,-55.57 289,-103 297.96,-116.26 295.12,-124.22 289,-139 276.73,-168.62 250.27,-160.38 238,-190 220.81,-231.49 232.04,-365.22 237.98,-423.46"/>
<polygon fill="blue" stroke="blue" points="234.54,-424.15 239.06,-433.74 241.5,-423.43 234.54,-424.15"/>
<text text-anchor="middle" x="266" y="-204.3" font-family="Times,serif" font-size="14.00">eject_card</text>
</g>
<!-- 754189764&#45;&gt;754189764 -->
<g id="edge4" class="edge">
<title>754189764&#45;&gt;754189764</title>
<path fill="none" stroke="blue" d="M144.53,-41.75C155.51,-42.49 165,-39.91 165,-34 165,-30.03 160.72,-27.56 154.57,-26.59"/>
<polygon fill="blue" stroke="blue" points="154.65,-23.09 144.53,-26.25 154.41,-30.09 154.65,-23.09"/>
<text text-anchor="middle" x="197.5" y="-30.3" font-family="Times,serif" font-size="14.00">no_trasition</text>
</g>
<!-- 3045661981&#45;&gt;754189764 -->
<g id="edge6" class="edge">
<title>3045661981&#45;&gt;754189764</title>
<path fill="none" stroke="blue" d="M77,-192.54C81.77,-186.65 86.53,-179.47 89,-172 91.09,-165.67 90.53,-163.49 89,-157 86.95,-148.29 82.05,-147.71 80,-139 76.32,-123.43 75.8,-118.44 80,-103 84.34,-87.05 93.48,-71.02 101.93,-58.54"/>
<polygon fill="blue" stroke="blue" points="104.96,-60.31 107.88,-50.12 99.25,-56.27 104.96,-60.31"/>
<text text-anchor="middle" x="107" y="-117.3" font-family="Times,serif" font-size="14.00">successed</text>
</g>
<!-- 3045661981&#45;&gt;3045661981 -->
<g id="edge11" class="edge">
<title>3045661981&#45;&gt;3045661981</title>
<path fill="none" stroke="blue" d="M87.53,-215.75C98.51,-216.49 108,-213.91 108,-208 108,-204.03 103.72,-201.56 97.57,-200.59"/>
<polygon fill="blue" stroke="blue" points="97.65,-197.09 87.53,-200.25 97.41,-204.09 97.65,-197.09"/>
<text text-anchor="middle" x="140.5" y="-204.3" font-family="Times,serif" font-size="14.00">no_trasition</text>
</g>
<!-- 2579566841 -->
<g id="node5" class="node">
<title>2579566841</title>
<ellipse fill="none" stroke="black" cx="170" cy="-121" rx="27" ry="18"/>
<text text-anchor="middle" x="170" y="-117.3" font-family="Times,serif" font-size="14.00">4</text>
</g>
<!-- 3045661981&#45;&gt;2579566841 -->
<g id="edge7" class="edge">
<title>3045661981&#45;&gt;2579566841</title>
<path fill="none" stroke="blue" d="M79.72,-193.72C97.2,-179.83 124.85,-157.87 144.95,-141.9"/>
<polygon fill="blue" stroke="blue" points="147.39,-144.43 153.05,-135.47 143.04,-138.95 147.39,-144.43"/>
<text text-anchor="middle" x="137.5" y="-160.8" font-family="Times,serif" font-size="14.00">failed</text>
</g>
<!-- 2579566841&#45;&gt;563152085 -->
<g id="edge9" class="edge">
<title>2579566841&#45;&gt;563152085</title>
<path fill="none" stroke="blue" d="M173.09,-139.03C175.56,-152.78 179.08,-172.62 182,-190 187.14,-220.63 186.78,-228.57 193,-259 205.14,-318.44 223.37,-387.22 233.51,-424.19"/>
<polygon fill="blue" stroke="blue" points="230.23,-425.45 236.27,-434.16 236.98,-423.59 230.23,-425.45"/>
<text text-anchor="middle" x="208.5" y="-247.8" font-family="Times,serif" font-size="14.00">failed</text>
</g>
<!-- 2579566841&#45;&gt;754189764 -->
<g id="edge8" class="edge">
<title>2579566841&#45;&gt;754189764</title>
<path fill="none" stroke="blue" d="M160.6,-104.01C153.26,-91.55 142.95,-74.01 134.55,-59.74"/>
<polygon fill="blue" stroke="blue" points="137.45,-57.76 129.36,-50.92 131.42,-61.31 137.45,-57.76"/>
<text text-anchor="middle" x="174" y="-73.8" font-family="Times,serif" font-size="14.00">successed</text>
</g>
<!-- 2579566841&#45;&gt;2579566841 -->
<g id="edge10" class="edge">
<title>2579566841&#45;&gt;2579566841</title>
<path fill="none" stroke="blue" d="M194.53,-128.75C205.51,-129.49 215,-126.91 215,-121 215,-117.03 210.72,-114.56 204.57,-113.59"/>
<polygon fill="blue" stroke="blue" points="204.65,-110.09 194.53,-113.25 204.41,-117.09 204.65,-110.09"/>
<text text-anchor="middle" x="247.5" y="-117.3" font-family="Times,serif" font-size="14.00">no_trasition</text>
</g>
<!-- 2176067892&#45;&gt;563152085 -->
<g id="edge18" class="edge">
<title>2176067892&#45;&gt;563152085</title>
<path fill="none" stroke="blue" d="M276.32,-313.23C276.73,-322.92 276.71,-335.2 275,-346 270.63,-373.65 260.18,-403.94 252.01,-424.85"/>
<polygon fill="blue" stroke="blue" points="248.69,-423.72 248.21,-434.31 255.18,-426.33 248.69,-423.72"/>
<text text-anchor="middle" x="283" y="-334.8" font-family="Times,serif" font-size="14.00">no</text>
</g>
<!-- 2176067892&#45;&gt;2176067892 -->
<g id="edge19" class="edge">
<title>2176067892&#45;&gt;2176067892</title>
<path fill="none" stroke="blue" d="M299.53,-302.75C310.51,-303.49 320,-300.91 320,-295 320,-291.03 315.72,-288.56 309.57,-287.59"/>
<polygon fill="blue" stroke="blue" points="309.65,-284.09 299.53,-287.25 309.41,-291.09 309.65,-284.09"/>
<text text-anchor="middle" x="352.5" y="-291.3" font-family="Times,serif" font-size="14.00">no_trasition</text>
</g>
<!-- 270931825 -->
<g id="node7" class="node">
<title>270931825</title>
<ellipse fill="none" stroke="black" cx="330" cy="-208" rx="27" ry="18"/>
<text text-anchor="middle" x="330" y="-204.3" font-family="Times,serif" font-size="14.00">6</text>
</g>
<!-- 2176067892&#45;&gt;270931825 -->
<g id="edge14" class="edge">
<title>2176067892&#45;&gt;270931825</title>
<path fill="none" stroke="blue" d="M285.35,-278.01C293.49,-265.43 304.97,-247.68 314.26,-233.33"/>
<polygon fill="blue" stroke="blue" points="317.21,-235.21 319.7,-224.92 311.33,-231.41 317.21,-235.21"/>
<text text-anchor="middle" x="314.5" y="-247.8" font-family="Times,serif" font-size="14.00">yes</text>
</g>
<!-- 270931825&#45;&gt;563152085 -->
<g id="edge16" class="edge">
<title>270931825&#45;&gt;563152085</title>
<path fill="none" stroke="blue" d="M348,-221.73C363.51,-233.9 384.8,-253.79 394,-277 399.9,-291.87 400.5,-298.38 394,-313 368.74,-369.8 307.28,-413.07 270.4,-435.01"/>
<polygon fill="blue" stroke="blue" points="268.48,-432.08 261.59,-440.13 271.99,-438.13 268.48,-432.08"/>
<text text-anchor="middle" x="405" y="-291.3" font-family="Times,serif" font-size="14.00">no</text>
</g>
<!-- 270931825&#45;&gt;270931825 -->
<g id="edge17" class="edge">
<title>270931825&#45;&gt;270931825</title>
<path fill="none" stroke="blue" d="M354.53,-215.75C365.51,-216.49 375,-213.91 375,-208 375,-204.03 370.72,-201.56 364.57,-200.59"/>
<polygon fill="blue" stroke="blue" points="364.65,-197.09 354.53,-200.25 364.41,-204.09 364.65,-197.09"/>
<text text-anchor="middle" x="407.5" y="-204.3" font-family="Times,serif" font-size="14.00">no_trasition</text>
</g>
<!-- 736101806 -->
<g id="node8" class="node">
<title>736101806</title>
<ellipse fill="none" stroke="black" cx="345" cy="-121" rx="27" ry="18"/>
<text text-anchor="middle" x="345" y="-117.3" font-family="Times,serif" font-size="14.00">7</text>
</g>
<!-- 270931825&#45;&gt;736101806 -->
<g id="edge15" class="edge">
<title>270931825&#45;&gt;736101806</title>
<path fill="none" stroke="blue" d="M333.04,-189.8C335.09,-178.16 337.84,-162.55 340.19,-149.24"/>
<polygon fill="blue" stroke="blue" points="343.68,-149.63 341.97,-139.18 336.78,-148.41 343.68,-149.63"/>
<text text-anchor="middle" x="347.5" y="-160.8" font-family="Times,serif" font-size="14.00">yes</text>
</g>
<!-- all_node -->
<g id="node9" class="node">
<title>all_node</title>
<polygon fill="none" stroke="black" points="472,-515 472,-536 1192,-536 1192,-515 472,-515"/>
<text text-anchor="start" x="475" y="-521.8" font-family="Times,serif" font-size="14.00">0 &#45;&#45; exe&#45;atm.Ready</text>
<polygon fill="none" stroke="black" points="472,-494 472,-515 1192,-515 1192,-494 472,-494"/>
<text text-anchor="start" x="475" y="-500.8" font-family="Times,serif" font-size="14.00">1 &#45;&#45; exe&#45;atm.CheckPin(exe&#45;atm.Session,exe&#45;atm.CheckPin(exe&#45;atm.Session,exe&#45;atm.CheckPin(exe&#45;atm.Session,exe&#45;atm.Ready)))</text>
<polygon fill="none" stroke="black" points="472,-473 472,-494 1192,-494 1192,-473 472,-473"/>
<text text-anchor="start" x="475" y="-479.8" font-family="Times,serif" font-size="14.00">2 &#45;&#45; exe&#45;atm.Session</text>
<polygon fill="none" stroke="black" points="472,-452 472,-473 1192,-473 1192,-452 472,-452"/>
<text text-anchor="start" x="475" y="-458.8" font-family="Times,serif" font-size="14.00">3 &#45;&#45; exe&#45;atm.CheckPin(exe&#45;atm.Session,exe&#45;atm.CheckPin(exe&#45;atm.Session,exe&#45;atm.Ready))</text>
<polygon fill="none" stroke="black" points="472,-431 472,-452 1192,-452 1192,-431 472,-431"/>
<text text-anchor="start" x="475" y="-437.8" font-family="Times,serif" font-size="14.00">4 &#45;&#45; exe&#45;atm.CheckPin(exe&#45;atm.Session,exe&#45;atm.Ready)</text>
<polygon fill="none" stroke="black" points="472,-410 472,-431 1192,-431 1192,-410 472,-410"/>
<text text-anchor="start" x="475" y="-416.8" font-family="Times,serif" font-size="14.00">5 &#45;&#45; generic.AreYouSure((function &#39;Atm&#39;),generic.AreYouSure((function &#39;Atm&#39;),polystate.Exit,exe&#45;atm.Ready),exe&#45;atm.Ready)</text>
<polygon fill="none" stroke="black" points="472,-389 472,-410 1192,-410 1192,-389 472,-389"/>
<text text-anchor="start" x="475" y="-395.8" font-family="Times,serif" font-size="14.00">6 &#45;&#45; generic.AreYouSure((function &#39;Atm&#39;),polystate.Exit,exe&#45;atm.Ready)</text>
<polygon fill="none" stroke="black" points="472,-368 472,-389 1192,-389 1192,-368 472,-368"/>
<text text-anchor="start" x="475" y="-374.8" font-family="Times,serif" font-size="14.00">7 &#45;&#45; polystate.Exit</text>
</g>
</g>
</svg>
