<?xml version="1.0" encoding="UTF-8" standalone="no"?>
<!DOCTYPE svg PUBLIC "-//W3C//DTD SVG 1.1//EN"
 "http://www.w3.org/Graphics/SVG/1.1/DTD/svg11.dtd">
<!-- Generated by graphviz version 2.43.0 (0)
 -->
<!-- Title: G Pages: 1 -->
<svg width="146pt" height="131pt"
 viewBox="0.00 0.00 146.00 131.00" xmlns="http://www.w3.org/2000/svg" xmlns:xlink="http://www.w3.org/1999/xlink">
<g id="graph0" class="graph" transform="scale(1 1) rotate(0) translate(4 127)">
<title>G</title>
<polygon fill="white" stroke="transparent" points="-4,4 -4,-127 142,-127 142,4 -4,4"/>
<!-- 6422626 -->
<g id="node1" class="node">
<title>6422626</title>
<ellipse fill="none" stroke="black" cx="63" cy="-105" rx="27" ry="18"/>
<text text-anchor="middle" x="63" y="-101.3" font-family="Times,serif" font-size="14.00">a</text>
</g>
<!-- 6488163 -->
<g id="node2" class="node">
<title>6488163</title>
<ellipse fill="none" stroke="black" cx="27" cy="-18" rx="27" ry="18"/>
<text text-anchor="middle" x="27" y="-14.3" font-family="Times,serif" font-size="14.00">b</text>
</g>
<!-- 6422626&#45;&gt;6488163 -->
<g id="edge2" class="edge">
<title>6422626&#45;&gt;6488163</title>
<path fill="none" stroke="black" d="M41.89,-93.7C32.44,-87.87 22.26,-79.61 17,-69 13.35,-61.64 13.66,-53.04 15.54,-45.08"/>
<polygon fill="black" stroke="black" points="18.9,-46.05 18.58,-35.46 12.23,-43.94 18.9,-46.05"/>
<text text-anchor="middle" x="29" y="-57.8" font-family="Times,serif" font-size="14.00">ToB</text>
</g>
<!-- 71696827 -->
<g id="node3" class="node">
<title>71696827</title>
<ellipse fill="none" stroke="black" cx="111" cy="-18" rx="27" ry="18"/>
<text text-anchor="middle" x="111" y="-14.3" font-family="Times,serif" font-size="14.00">exit</text>
</g>
<!-- 6422626&#45;&gt;71696827 -->
<g id="edge1" class="edge">
<title>6422626&#45;&gt;71696827</title>
<path fill="none" stroke="black" d="M72.03,-88.01C79.02,-75.63 88.84,-58.23 96.88,-44.01"/>
<polygon fill="black" stroke="black" points="99.98,-45.63 101.85,-35.21 93.88,-42.19 99.98,-45.63"/>
<text text-anchor="middle" x="100.5" y="-57.8" font-family="Times,serif" font-size="14.00">Exit</text>
</g>
<!-- 6488163&#45;&gt;6422626 -->
<g id="edge3" class="edge">
<title>6488163&#45;&gt;6422626</title>
<path fill="none" stroke="black" d="M33.98,-35.47C39.05,-47.46 46.03,-63.94 51.88,-77.74"/>
<polygon fill="black" stroke="black" points="48.76,-79.36 55.89,-87.21 55.21,-76.63 48.76,-79.36"/>
<text text-anchor="middle" x="59.5" y="-57.8" font-family="Times,serif" font-size="14.00">ToA</text>
</g>
</g>
</svg>
