<?xml version="1.0" encoding="UTF-8" standalone="no"?>
<!DOCTYPE svg PUBLIC "-//W3C//DTD SVG 1.1//EN"
 "http://www.w3.org/Graphics/SVG/1.1/DTD/svg11.dtd">
<!-- Generated by graphviz version 2.43.0 (0)
 -->
<!-- Title: G Pages: 1 -->
<svg width="246pt" height="166pt"
 viewBox="0.00 0.00 245.50 166.00" xmlns="http://www.w3.org/2000/svg" xmlns:xlink="http://www.w3.org/1999/xlink">
<g id="graph0" class="graph" transform="scale(1 1) rotate(0) translate(4 162)">
<title>G</title>
<polygon fill="white" stroke="transparent" points="-4,4 -4,-162 241.5,-162 241.5,4 -4,4"/>
<!-- 736101806 -->
<g id="node1" class="node">
<title>736101806</title>
<ellipse fill="none" stroke="black" cx="27" cy="-18" rx="27" ry="18"/>
<text text-anchor="middle" x="27" y="-14.3" font-family="Times,serif" font-size="14.00">0</text>
</g>
<!-- 348455827 -->
<g id="node2" class="node">
<title>348455827</title>
<ellipse fill="none" stroke="black" cx="71" cy="-122.5" rx="27" ry="18"/>
<text text-anchor="middle" x="71" y="-118.8" font-family="Times,serif" font-size="14.00">1</text>
</g>
<!-- 348455827&#45;&gt;736101806 -->
<g id="edge1" class="edge">
<title>348455827&#45;&gt;736101806</title>
<path fill="none" stroke="black" d="M61.39,-105.32C55.59,-95.13 48.31,-81.56 43,-69 39.84,-61.53 36.95,-53.21 34.51,-45.53"/>
<polygon fill="black" stroke="black" points="37.85,-44.49 31.59,-35.94 31.16,-46.53 37.85,-44.49"/>
<text text-anchor="middle" x="53.5" y="-57.8" font-family="Times,serif" font-size="14.00">exit</text>
</g>
<!-- 348521364 -->
<g id="node3" class="node">
<title>348521364</title>
<ellipse fill="none" stroke="black" cx="110" cy="-18" rx="27" ry="18"/>
<text text-anchor="middle" x="110" y="-14.3" font-family="Times,serif" font-size="14.00">2</text>
</g>
<!-- 348455827&#45;&gt;348521364 -->
<g id="edge2" class="edge">
<title>348455827&#45;&gt;348521364</title>
<path fill="none" stroke="black" d="M67.68,-104.62C65.71,-90.46 64.82,-70.05 72,-54 74.69,-47.98 78.97,-42.54 83.7,-37.83"/>
<polygon fill="black" stroke="black" points="86.18,-40.31 91.35,-31.06 81.54,-35.07 86.18,-40.31"/>
<text text-anchor="middle" x="85.5" y="-57.8" font-family="Times,serif" font-size="14.00">to_B</text>
</g>
<!-- 348521364&#45;&gt;348455827 -->
<g id="edge3" class="edge">
<title>348521364&#45;&gt;348455827</title>
<path fill="none" stroke="black" d="M107.45,-35.99C105.69,-45.83 102.94,-58.33 99,-69 95.54,-78.4 90.68,-88.2 85.98,-96.76"/>
<polygon fill="black" stroke="black" points="82.93,-95.06 81.02,-105.48 89.01,-98.52 82.93,-95.06"/>
<text text-anchor="middle" x="117" y="-57.8" font-family="Times,serif" font-size="14.00">to_A</text>
</g>
<!-- all_node -->
<g id="node4" class="node">
<title>all_node</title>
<polygon fill="none" stroke="black" points="125,-132.5 125,-153.5 230,-153.5 230,-132.5 125,-132.5"/>
<text text-anchor="start" x="128" y="-139.3" font-family="Times,serif" font-size="14.00">0 &#45;&#45; polystate.Exit</text>
<polygon fill="none" stroke="black" points="125,-111.5 125,-132.5 230,-132.5 230,-111.5 125,-111.5"/>
<text text-anchor="start" x="128" y="-118.3" font-family="Times,serif" font-size="14.00">1 &#45;&#45; exe&#45;cont.A</text>
<polygon fill="none" stroke="black" points="125,-90.5 125,-111.5 230,-111.5 230,-90.5 125,-90.5"/>
<text text-anchor="start" x="128" y="-97.3" font-family="Times,serif" font-size="14.00">2 &#45;&#45; exe&#45;cont.B</text>
</g>
</g>
</svg>
