<?xml version="1.0" encoding="UTF-8" standalone="no"?>
<!DOCTYPE svg PUBLIC "-//W3C//DTD SVG 1.1//EN"
 "http://www.w3.org/Graphics/SVG/1.1/DTD/svg11.dtd">
<!-- Generated by graphviz version 2.43.0 (0)
 -->
<!-- Title: fsm_state_graph Pages: 1 -->
<svg width="389pt" height="221pt"
 viewBox="0.00 0.00 389.00 221.00" xmlns="http://www.w3.org/2000/svg" xmlns:xlink="http://www.w3.org/1999/xlink">
<g id="graph0" class="graph" transform="scale(1 1) rotate(0) translate(4 217)">
<title>fsm_state_graph</title>
<polygon fill="white" stroke="transparent" points="-4,4 -4,-217 385,-217 385,4 -4,4"/>
<g id="clust1" class="cluster">
<title>cluster_transitions</title>
<polygon fill="none" stroke="black" points="8,-8 8,-187.5 221,-187.5 221,-8 8,-8"/>
<text text-anchor="middle" x="114.5" y="-172.3" font-family="Times,serif" font-size="14.00">State transitions for Cont</text>
</g>
<g id="clust2" class="cluster">
<title>cluster_names</title>
<polygon fill="none" stroke="black" points="229,-95 229,-205 373,-205 373,-95 229,-95"/>
<text text-anchor="middle" x="301" y="-189.8" font-family="Times,serif" font-size="14.00">State names for Cont</text>
</g>
<!-- 0 -->
<g id="node1" class="node">
<title>0</title>
<ellipse fill="none" stroke="black" cx="103" cy="-138.5" rx="27" ry="18"/>
<text text-anchor="middle" x="103" y="-134.8" font-family="Times,serif" font-size="14.00">0</text>
</g>
<!-- 1 -->
<g id="node2" class="node">
<title>1</title>
<ellipse fill="none" stroke="black" cx="43" cy="-34" rx="27" ry="18"/>
<text text-anchor="middle" x="43" y="-30.3" font-family="Times,serif" font-size="14.00">1</text>
</g>
<!-- 0&#45;&gt;1 -->
<g id="edge1" class="edge">
<title>0&#45;&gt;1</title>
<path fill="none" stroke="blue" d="M85.22,-124.92C73.21,-115.39 58.12,-101.21 50,-85 46.49,-78 44.58,-69.79 43.57,-62.07"/>
<polygon fill="blue" stroke="blue" points="47.05,-61.67 42.71,-52.01 40.08,-62.27 47.05,-61.67"/>
<text text-anchor="middle" x="60.5" y="-73.8" font-family="Times,serif" font-size="14.00">exit</text>
</g>
<!-- 2 -->
<g id="node3" class="node">
<title>2</title>
<ellipse fill="none" stroke="black" cx="128" cy="-34" rx="27" ry="18"/>
<text text-anchor="middle" x="128" y="-30.3" font-family="Times,serif" font-size="14.00">2</text>
</g>
<!-- 0&#45;&gt;2 -->
<g id="edge2" class="edge">
<title>0&#45;&gt;2</title>
<path fill="none" stroke="blue" d="M90.62,-122.27C80.84,-108.27 70.18,-87.14 79,-70 83.13,-61.98 90.03,-55.39 97.38,-50.18"/>
<polygon fill="blue" stroke="blue" points="99.48,-52.99 106.07,-44.69 95.74,-47.08 99.48,-52.99"/>
<text text-anchor="middle" x="92.5" y="-73.8" font-family="Times,serif" font-size="14.00">to_B</text>
</g>
<!-- 0&#45;&gt;2 -->
<g id="edge3" class="edge">
<title>0&#45;&gt;2</title>
<path fill="none" stroke="black" d="M107.13,-120.57C111.02,-104.62 116.91,-80.47 121.44,-61.88"/>
<polygon fill="black" stroke="black" points="124.9,-62.5 123.87,-51.95 118.1,-60.84 124.9,-62.5"/>
<text text-anchor="middle" x="136" y="-73.8" font-family="Times,serif" font-size="14.00">to_B1</text>
</g>
<!-- 2&#45;&gt;0 -->
<g id="edge4" class="edge">
<title>2&#45;&gt;0</title>
<path fill="none" stroke="blue" d="M144.24,-48.95C153.54,-58.71 162.39,-72.24 157,-85 151.32,-98.44 140.34,-110.13 129.75,-119.05"/>
<polygon fill="blue" stroke="blue" points="127.5,-116.37 121.83,-125.32 131.84,-121.86 127.5,-116.37"/>
<text text-anchor="middle" x="172" y="-73.8" font-family="Times,serif" font-size="14.00">to_A</text>
</g>
<!-- all_node -->
<g id="node4" class="node">
<title>all_node</title>
<polygon fill="none" stroke="black" points="245,-148.5 245,-169.5 357,-169.5 357,-148.5 245,-148.5"/>
<text text-anchor="start" x="248" y="-155.3" font-family="Times,serif" font-size="14.00"> 0 &#45;&#45; exe&#45;cont.A </text>
<polygon fill="none" stroke="black" points="245,-127.5 245,-148.5 357,-148.5 357,-127.5 245,-127.5"/>
<text text-anchor="start" x="248" y="-134.3" font-family="Times,serif" font-size="14.00"> 1 &#45;&#45; polystate.Exit </text>
<polygon fill="none" stroke="black" points="245,-106.5 245,-127.5 357,-127.5 357,-106.5 245,-106.5"/>
<text text-anchor="start" x="248" y="-113.3" font-family="Times,serif" font-size="14.00"> 2 &#45;&#45; exe&#45;cont.B </text>
</g>
</g>
</svg>
