<?xml version="1.0" encoding="UTF-8" standalone="no"?>
<!DOCTYPE svg PUBLIC "-//W3C//DTD SVG 1.1//EN"
 "http://www.w3.org/Graphics/SVG/1.1/DTD/svg11.dtd">
<!-- Generated by graphviz version 2.43.0 (0)
 -->
<!-- Title: fsm_state_graph Pages: 1 -->
<svg width="592pt" height="437pt"
 viewBox="0.00 0.00 592.00 437.00" xmlns="http://www.w3.org/2000/svg" xmlns:xlink="http://www.w3.org/1999/xlink">
<g id="graph0" class="graph" transform="scale(1 1) rotate(0) translate(4 433)">
<title>fsm_state_graph</title>
<polygon fill="white" stroke="transparent" points="-4,4 -4,-433 588,-433 588,4 -4,4"/>
<g id="clust1" class="cluster">
<title>cluster_transitions</title>
<polygon fill="none" stroke="black" points="8,-8 8,-382.5 212,-382.5 212,-8 8,-8"/>
<text text-anchor="middle" x="110" y="-367.3" font-family="Times,serif" font-size="14.00">State transitions for Counter</text>
</g>
<g id="clust2" class="cluster">
<title>cluster_names</title>
<polygon fill="none" stroke="black" points="220,-269 220,-421 576,-421 576,-269 220,-269"/>
<text text-anchor="middle" x="398" y="-405.8" font-family="Times,serif" font-size="14.00">State names for Counter</text>
</g>
<!-- 0 -->
<g id="node1" class="node">
<title>0</title>
<ellipse fill="none" stroke="black" cx="133" cy="-333.5" rx="27" ry="18"/>
<text text-anchor="middle" x="133" y="-329.8" font-family="Times,serif" font-size="14.00">0</text>
</g>
<!-- 1 -->
<g id="node2" class="node">
<title>1</title>
<ellipse fill="none" stroke="black" cx="164" cy="-34" rx="27" ry="18"/>
<text text-anchor="middle" x="164" y="-30.3" font-family="Times,serif" font-size="14.00">1</text>
</g>
<!-- 0&#45;&gt;1 -->
<g id="edge1" class="edge">
<title>0&#45;&gt;1</title>
<path fill="none" stroke="blue" d="M139.47,-315.76C151.88,-282.63 178.65,-206.1 188,-139 192.23,-108.63 197.08,-99.29 188,-70 186.78,-66.07 184.96,-62.2 182.85,-58.54"/>
<polygon fill="blue" stroke="blue" points="185.62,-56.38 177.19,-49.97 179.78,-60.24 185.62,-56.38"/>
<text text-anchor="middle" x="198.5" y="-160.8" font-family="Times,serif" font-size="14.00">to_B</text>
</g>
<!-- 2 -->
<g id="node3" class="node">
<title>2</title>
<ellipse fill="none" stroke="black" cx="43" cy="-208" rx="27" ry="18"/>
<text text-anchor="middle" x="43" y="-204.3" font-family="Times,serif" font-size="14.00">2</text>
</g>
<!-- 0&#45;&gt;2 -->
<g id="edge2" class="edge">
<title>0&#45;&gt;2</title>
<path fill="none" stroke="blue" d="M121.78,-317.11C106.36,-295.94 78.44,-257.64 60.32,-232.77"/>
<polygon fill="blue" stroke="blue" points="63.08,-230.61 54.36,-224.59 57.42,-234.73 63.08,-230.61"/>
<text text-anchor="middle" x="87.5" y="-247.8" font-family="Times,serif" font-size="14.00">exit</text>
</g>
<!-- 1&#45;&gt;0 -->
<g id="edge3" class="edge">
<title>1&#45;&gt;0</title>
<path fill="none" stroke="blue" d="M165.75,-52.31C167.32,-73.26 168.28,-109.42 160,-139 157.53,-147.81 152.72,-148.26 150,-157 134.28,-207.5 132.03,-269.79 132.24,-304.94"/>
<polygon fill="blue" stroke="blue" points="128.74,-305.4 132.38,-315.35 135.74,-305.31 128.74,-305.4"/>
<text text-anchor="middle" x="164" y="-160.8" font-family="Times,serif" font-size="14.00">to_A</text>
</g>
<!-- 2&#45;&gt;1 -->
<g id="edge5" class="edge">
<title>2&#45;&gt;1</title>
<path fill="none" stroke="blue" d="M60.24,-193.96C80.9,-178.06 113.88,-151.75 123,-139 139.86,-115.42 151,-83.96 157.36,-61.84"/>
<polygon fill="blue" stroke="blue" points="160.76,-62.67 160.03,-52.1 154.01,-60.82 160.76,-62.67"/>
<text text-anchor="middle" x="149" y="-117.3" font-family="Times,serif" font-size="14.00">no</text>
</g>
<!-- 2&#45;&gt;2 -->
<g id="edge6" class="edge">
<title>2&#45;&gt;2</title>
<path fill="none" stroke="blue" d="M67.53,-215.75C78.51,-216.49 88,-213.91 88,-208 88,-204.03 83.72,-201.56 77.57,-200.59"/>
<polygon fill="blue" stroke="blue" points="77.65,-197.09 67.53,-200.25 77.41,-204.09 77.65,-197.09"/>
<text text-anchor="middle" x="101" y="-204.3" font-family="Times,serif" font-size="14.00">retry</text>
</g>
<!-- 3 -->
<g id="node4" class="node">
<title>3</title>
<ellipse fill="none" stroke="black" cx="43" cy="-121" rx="27" ry="18"/>
<text text-anchor="middle" x="43" y="-117.3" font-family="Times,serif" font-size="14.00">3</text>
</g>
<!-- 2&#45;&gt;3 -->
<g id="edge4" class="edge">
<title>2&#45;&gt;3</title>
<path fill="none" stroke="blue" d="M43,-189.8C43,-178.16 43,-162.55 43,-149.24"/>
<polygon fill="blue" stroke="blue" points="46.5,-149.18 43,-139.18 39.5,-149.18 46.5,-149.18"/>
<text text-anchor="middle" x="52.5" y="-160.8" font-family="Times,serif" font-size="14.00">yes</text>
</g>
<!-- 3&#45;&gt;1 -->
<g id="edge8" class="edge">
<title>3&#45;&gt;1</title>
<path fill="none" stroke="blue" d="M60.85,-107.46C81.14,-93.21 114.44,-69.82 137.7,-53.48"/>
<polygon fill="blue" stroke="blue" points="139.9,-56.21 146.07,-47.59 135.88,-50.48 139.9,-56.21"/>
<text text-anchor="middle" x="117" y="-73.8" font-family="Times,serif" font-size="14.00">no</text>
</g>
<!-- 3&#45;&gt;3 -->
<g id="edge9" class="edge">
<title>3&#45;&gt;3</title>
<path fill="none" stroke="blue" d="M67.53,-128.75C78.51,-129.49 88,-126.91 88,-121 88,-117.03 83.72,-114.56 77.57,-113.59"/>
<polygon fill="blue" stroke="blue" points="77.65,-110.09 67.53,-113.25 77.41,-117.09 77.65,-110.09"/>
<text text-anchor="middle" x="101" y="-117.3" font-family="Times,serif" font-size="14.00">retry</text>
</g>
<!-- 4 -->
<g id="node5" class="node">
<title>4</title>
<ellipse fill="none" stroke="black" cx="43" cy="-34" rx="27" ry="18"/>
<text text-anchor="middle" x="43" y="-30.3" font-family="Times,serif" font-size="14.00">4</text>
</g>
<!-- 3&#45;&gt;4 -->
<g id="edge7" class="edge">
<title>3&#45;&gt;4</title>
<path fill="none" stroke="blue" d="M43,-102.8C43,-91.16 43,-75.55 43,-62.24"/>
<polygon fill="blue" stroke="blue" points="46.5,-62.18 43,-52.18 39.5,-62.18 46.5,-62.18"/>
<text text-anchor="middle" x="52.5" y="-73.8" font-family="Times,serif" font-size="14.00">yes</text>
</g>
<!-- all_node -->
<g id="node6" class="node">
<title>all_node</title>
<polygon fill="none" stroke="black" points="237,-364.5 237,-385.5 560,-385.5 560,-364.5 237,-364.5"/>
<text text-anchor="start" x="240" y="-371.3" font-family="Times,serif" font-size="14.00"> 0 &#45;&#45; exe&#45;counter.A </text>
<polygon fill="none" stroke="black" points="237,-343.5 237,-364.5 560,-364.5 560,-343.5 237,-343.5"/>
<text text-anchor="start" x="240" y="-350.3" font-family="Times,serif" font-size="14.00"> 1 &#45;&#45; exe&#45;counter.B </text>
<polygon fill="none" stroke="black" points="237,-322.5 237,-343.5 560,-343.5 560,-322.5 237,-322.5"/>
<text text-anchor="start" x="240" y="-329.3" font-family="Times,serif" font-size="14.00"> 2 &#45;&#45; exe&#45;counter.YesOrNo((function &#39;Example&#39;),{3},{1}) </text>
<polygon fill="none" stroke="black" points="237,-301.5 237,-322.5 560,-322.5 560,-301.5 237,-301.5"/>
<text text-anchor="start" x="240" y="-308.3" font-family="Times,serif" font-size="14.00"> 3 &#45;&#45; exe&#45;counter.YesOrNo((function &#39;Example&#39;),{4},{1}) </text>
<polygon fill="none" stroke="black" points="237,-280.5 237,-301.5 560,-301.5 560,-280.5 237,-280.5"/>
<text text-anchor="start" x="240" y="-287.3" font-family="Times,serif" font-size="14.00"> 4 &#45;&#45; polystate.Exit </text>
</g>
</g>
</svg>
