<?xml version="1.0" encoding="UTF-8" standalone="no"?>
<!DOCTYPE svg PUBLIC "-//W3C//DTD SVG 1.1//EN"
 "http://www.w3.org/Graphics/SVG/1.1/DTD/svg11.dtd">
<!-- Generated by graphviz version 2.43.0 (0)
 -->
<!-- Title: G Pages: 1 -->
<svg width="440pt" height="218pt"
 viewBox="0.00 0.00 440.09 218.00" xmlns="http://www.w3.org/2000/svg" xmlns:xlink="http://www.w3.org/1999/xlink">
<g id="graph0" class="graph" transform="scale(1 1) rotate(0) translate(4 214)">
<title>G</title>
<polygon fill="white" stroke="transparent" points="-4,4 -4,-214 436.09,-214 436.09,4 -4,4"/>
<!-- 769656121 -->
<g id="node1" class="node">
<title>769656121</title>
<ellipse fill="none" stroke="black" cx="285.15" cy="-192" rx="58.49" ry="18"/>
<text text-anchor="middle" x="285.15" y="-188.3" font-family="Times,serif" font-size="14.00">select(exit, a)</text>
</g>
<!-- 769656121&#45;&gt;769656121 -->
<g id="edge7" class="edge">
<title>769656121&#45;&gt;769656121</title>
<path fill="none" stroke="black" d="M338.06,-199.78C351.53,-199.27 361.65,-196.68 361.65,-192 361.65,-188.6 356.31,-186.3 348.22,-185.11"/>
<polygon fill="black" stroke="black" points="348.33,-181.6 338.06,-184.22 347.72,-188.58 348.33,-181.6"/>
<text text-anchor="middle" x="377.15" y="-188.3" font-family="Times,serif" font-size="14.00">Retry</text>
</g>
<!-- 6422626 -->
<g id="node2" class="node">
<title>6422626</title>
<ellipse fill="none" stroke="black" cx="213.15" cy="-105" rx="27" ry="18"/>
<text text-anchor="middle" x="213.15" y="-101.3" font-family="Times,serif" font-size="14.00">a</text>
</g>
<!-- 769656121&#45;&gt;6422626 -->
<g id="edge6" class="edge">
<title>769656121&#45;&gt;6422626</title>
<path fill="none" stroke="black" d="M259.88,-175.5C252.26,-170 244.29,-163.33 238.15,-156 232.24,-148.94 227.27,-140.25 223.37,-132.1"/>
<polygon fill="black" stroke="black" points="226.54,-130.62 219.28,-122.92 220.15,-133.47 226.54,-130.62"/>
<text text-anchor="middle" x="259.65" y="-144.8" font-family="Times,serif" font-size="14.00">SelectB</text>
</g>
<!-- 71696827 -->
<g id="node4" class="node">
<title>71696827</title>
<ellipse fill="none" stroke="black" cx="285.15" cy="-105" rx="27" ry="18"/>
<text text-anchor="middle" x="285.15" y="-101.3" font-family="Times,serif" font-size="14.00">exit</text>
</g>
<!-- 769656121&#45;&gt;71696827 -->
<g id="edge5" class="edge">
<title>769656121&#45;&gt;71696827</title>
<path fill="none" stroke="black" d="M285.15,-173.8C285.15,-162.16 285.15,-146.55 285.15,-133.24"/>
<polygon fill="black" stroke="black" points="288.65,-133.18 285.15,-123.18 281.65,-133.18 288.65,-133.18"/>
<text text-anchor="middle" x="306.65" y="-144.8" font-family="Times,serif" font-size="14.00">SelectA</text>
</g>
<!-- 6488163 -->
<g id="node3" class="node">
<title>6488163</title>
<ellipse fill="none" stroke="black" cx="63.15" cy="-18" rx="27" ry="18"/>
<text text-anchor="middle" x="63.15" y="-14.3" font-family="Times,serif" font-size="14.00">b</text>
</g>
<!-- 6422626&#45;&gt;6488163 -->
<g id="edge1" class="edge">
<title>6422626&#45;&gt;6488163</title>
<path fill="none" stroke="black" d="M185.97,-103.62C134.79,-102.26 27.15,-96.17 4.15,-69 -8.06,-54.58 10.98,-40.91 30.61,-31.51"/>
<polygon fill="black" stroke="black" points="32.14,-34.66 39.85,-27.39 29.29,-28.27 32.14,-34.66"/>
<text text-anchor="middle" x="52.65" y="-57.8" font-family="Times,serif" font-size="14.00">AddOneThenToB</text>
</g>
<!-- 2192181431 -->
<g id="node5" class="node">
<title>2192181431</title>
<ellipse fill="none" stroke="black" cx="290.15" cy="-18" rx="92.88" ry="18"/>
<text text-anchor="middle" x="290.15" y="-14.3" font-family="Times,serif" font-size="14.00">select(select(exit, a), a)</text>
</g>
<!-- 6422626&#45;&gt;2192181431 -->
<g id="edge3" class="edge">
<title>6422626&#45;&gt;2192181431</title>
<path fill="none" stroke="black" d="M221.68,-87.71C227.51,-77.42 235.84,-64.2 245.15,-54 248.99,-49.8 253.37,-45.71 257.86,-41.91"/>
<polygon fill="black" stroke="black" points="260.36,-44.4 265.96,-35.41 255.97,-38.94 260.36,-44.4"/>
<text text-anchor="middle" x="256.65" y="-57.8" font-family="Times,serif" font-size="14.00">Exit</text>
</g>
<!-- 6488163&#45;&gt;6422626 -->
<g id="edge2" class="edge">
<title>6488163&#45;&gt;6422626</title>
<path fill="none" stroke="black" d="M79.47,-32.41C93.03,-43.15 113.12,-58.17 132.15,-69 147.44,-77.7 165.31,-85.64 180.37,-91.75"/>
<polygon fill="black" stroke="black" points="179.22,-95.06 189.81,-95.49 181.8,-88.55 179.22,-95.06"/>
<text text-anchor="middle" x="181.15" y="-57.8" font-family="Times,serif" font-size="14.00">AddOneThenToA</text>
</g>
<!-- 2192181431&#45;&gt;769656121 -->
<g id="edge4" class="edge">
<title>2192181431&#45;&gt;769656121</title>
<path fill="none" stroke="black" d="M311.49,-35.57C316.85,-40.85 321.98,-47.14 325.15,-54 373.23,-158.05 342.11,-136.17 332.15,-156 329.58,-161.11 325.87,-165.67 321.65,-169.67"/>
<polygon fill="black" stroke="black" points="319.13,-167.21 313.62,-176.26 323.57,-172.62 319.13,-167.21"/>
<text text-anchor="middle" x="372.65" y="-101.3" font-family="Times,serif" font-size="14.00">SelectA</text>
</g>
<!-- 2192181431&#45;&gt;6422626 -->
<g id="edge8" class="edge">
<title>2192181431&#45;&gt;6422626</title>
<path fill="none" stroke="black" d="M285.4,-36.14C281.9,-46.5 276.3,-59.5 268.15,-69 261.42,-76.84 252.5,-83.54 243.8,-88.91"/>
<polygon fill="black" stroke="black" points="241.84,-86.01 234.92,-94.03 245.33,-92.07 241.84,-86.01"/>
<text text-anchor="middle" x="299.65" y="-57.8" font-family="Times,serif" font-size="14.00">SelectB</text>
</g>
<!-- 2192181431&#45;&gt;2192181431 -->
<g id="edge9" class="edge">
<title>2192181431&#45;&gt;2192181431</title>
<path fill="none" stroke="black" d="M374.8,-25.44C390.25,-24.5 401.09,-22.02 401.09,-18 401.09,-14.92 394.74,-12.75 384.83,-11.47"/>
<polygon fill="black" stroke="black" points="385.08,-7.98 374.8,-10.56 384.44,-14.95 385.08,-7.98"/>
<text text-anchor="middle" x="416.59" y="-14.3" font-family="Times,serif" font-size="14.00">Retry</text>
</g>
</g>
</svg>
