<?xml version="1.0" encoding="UTF-8" standalone="no"?>
<!DOCTYPE svg PUBLIC "-//W3C//DTD SVG 1.1//EN"
 "http://www.w3.org/Graphics/SVG/1.1/DTD/svg11.dtd">
<!-- Generated by graphviz version 2.43.0 (0)
 -->
<!-- Title: G Pages: 1 -->
<svg width="730pt" height="382pt"
 viewBox="0.00 0.00 729.50 382.00" xmlns="http://www.w3.org/2000/svg" xmlns:xlink="http://www.w3.org/1999/xlink">
<g id="graph0" class="graph" transform="scale(1 1) rotate(0) translate(4 378)">
<title>G</title>
<polygon fill="white" stroke="transparent" points="-4,4 -4,-378 725.5,-378 725.5,4 -4,4"/>
<!-- 736101806 -->
<g id="node1" class="node">
<title>736101806</title>
<ellipse fill="none" stroke="black" cx="27" cy="-192" rx="27" ry="18"/>
<text text-anchor="middle" x="27" y="-188.3" font-family="Times,serif" font-size="14.00">0</text>
</g>
<!-- 594347232 -->
<g id="node2" class="node">
<title>594347232</title>
<ellipse fill="none" stroke="black" cx="99" cy="-192" rx="27" ry="18"/>
<text text-anchor="middle" x="99" y="-188.3" font-family="Times,serif" font-size="14.00">2</text>
</g>
<!-- 594281695 -->
<g id="node5" class="node">
<title>594281695</title>
<ellipse fill="none" stroke="black" cx="64" cy="-105" rx="27" ry="18"/>
<text text-anchor="middle" x="64" y="-101.3" font-family="Times,serif" font-size="14.00">1</text>
</g>
<!-- 594347232&#45;&gt;594281695 -->
<g id="edge2" class="edge">
<title>594347232&#45;&gt;594281695</title>
<path fill="none" stroke="black" d="M76.73,-181.8C65.97,-176.08 54.1,-167.59 48,-156 43.85,-148.12 45.2,-138.96 48.46,-130.66"/>
<polygon fill="black" stroke="black" points="51.72,-131.95 52.94,-121.43 45.42,-128.9 51.72,-131.95"/>
<text text-anchor="middle" x="62" y="-144.8" font-family="Times,serif" font-size="14.00">to_A</text>
</g>
<!-- 3577614934 -->
<g id="node3" class="node">
<title>3577614934</title>
<ellipse fill="none" stroke="black" cx="99" cy="-317.5" rx="27" ry="18"/>
<text text-anchor="middle" x="99" y="-313.8" font-family="Times,serif" font-size="14.00">4</text>
</g>
<!-- 3577614934&#45;&gt;736101806 -->
<g id="edge5" class="edge">
<title>3577614934&#45;&gt;736101806</title>
<path fill="none" stroke="black" d="M89.59,-300.35C77.35,-279.37 55.86,-242.5 41.52,-217.91"/>
<polygon fill="black" stroke="black" points="44.48,-216.03 36.42,-209.15 38.43,-219.55 44.48,-216.03"/>
<text text-anchor="middle" x="64.5" y="-231.8" font-family="Times,serif" font-size="14.00">yes</text>
</g>
<!-- 3577614934&#45;&gt;594347232 -->
<g id="edge6" class="edge">
<title>3577614934&#45;&gt;594347232</title>
<path fill="none" stroke="black" d="M99,-299.33C99,-278.87 99,-244.42 99,-220.3"/>
<polygon fill="black" stroke="black" points="102.5,-220.03 99,-210.03 95.5,-220.03 102.5,-220.03"/>
<text text-anchor="middle" x="106" y="-231.8" font-family="Times,serif" font-size="14.00">no</text>
</g>
<!-- 3577614934&#45;&gt;3577614934 -->
<g id="edge7" class="edge">
<title>3577614934&#45;&gt;3577614934</title>
<path fill="none" stroke="black" d="M117.02,-331.06C130.46,-335.79 144,-331.27 144,-317.5 144,-307.17 136.38,-302.05 126.9,-302.13"/>
<polygon fill="black" stroke="black" points="126.22,-298.69 117.02,-303.94 127.49,-305.58 126.22,-298.69"/>
<text text-anchor="middle" x="157" y="-313.8" font-family="Times,serif" font-size="14.00">retry</text>
</g>
<!-- 1098718974 -->
<g id="node4" class="node">
<title>1098718974</title>
<ellipse fill="none" stroke="black" cx="127" cy="-18" rx="27" ry="18"/>
<text text-anchor="middle" x="127" y="-14.3" font-family="Times,serif" font-size="14.00">3</text>
</g>
<!-- 1098718974&#45;&gt;594347232 -->
<g id="edge8" class="edge">
<title>1098718974&#45;&gt;594347232</title>
<path fill="none" stroke="black" d="M126.77,-36.13C126.08,-62.33 123.39,-113.75 113,-156 112.26,-159.02 111.31,-162.12 110.26,-165.17"/>
<polygon fill="black" stroke="black" points="106.96,-163.99 106.67,-174.58 113.5,-166.48 106.96,-163.99"/>
<text text-anchor="middle" x="130" y="-101.3" font-family="Times,serif" font-size="14.00">no</text>
</g>
<!-- 1098718974&#45;&gt;3577614934 -->
<g id="edge4" class="edge">
<title>1098718974&#45;&gt;3577614934</title>
<path fill="none" stroke="black" d="M133.67,-35.48C135.73,-41.25 137.78,-47.82 139,-54 141.85,-68.41 140.56,-72.31 141,-87 142.66,-141.71 145.73,-156.33 135,-210 129.35,-238.25 118.24,-269.33 109.86,-290.59"/>
<polygon fill="black" stroke="black" points="106.6,-289.31 106.11,-299.9 113.09,-291.93 106.6,-289.31"/>
<text text-anchor="middle" x="151.5" y="-144.8" font-family="Times,serif" font-size="14.00">yes</text>
</g>
<!-- 1098718974&#45;&gt;1098718974 -->
<g id="edge9" class="edge">
<title>1098718974&#45;&gt;1098718974</title>
<path fill="none" stroke="black" d="M151.53,-25.75C162.51,-26.49 172,-23.91 172,-18 172,-14.03 167.72,-11.56 161.57,-10.59"/>
<polygon fill="black" stroke="black" points="161.65,-7.09 151.53,-10.25 161.41,-14.09 161.65,-7.09"/>
<text text-anchor="middle" x="185" y="-14.3" font-family="Times,serif" font-size="14.00">retry</text>
</g>
<!-- 594281695&#45;&gt;594347232 -->
<g id="edge1" class="edge">
<title>594281695&#45;&gt;594347232</title>
<path fill="none" stroke="black" d="M70.78,-122.47C75.72,-134.46 82.51,-150.94 88.19,-164.74"/>
<polygon fill="black" stroke="black" points="85.04,-166.29 92.09,-174.21 91.51,-163.63 85.04,-166.29"/>
<text text-anchor="middle" x="97.5" y="-144.8" font-family="Times,serif" font-size="14.00">to_B</text>
</g>
<!-- 594281695&#45;&gt;1098718974 -->
<g id="edge3" class="edge">
<title>594281695&#45;&gt;1098718974</title>
<path fill="none" stroke="black" d="M71.77,-87.54C76.88,-77.44 84.07,-64.47 92,-54 95.65,-49.17 99.95,-44.35 104.26,-39.9"/>
<polygon fill="black" stroke="black" points="106.76,-42.34 111.4,-32.81 101.83,-37.37 106.76,-42.34"/>
<text text-anchor="middle" x="102.5" y="-57.8" font-family="Times,serif" font-size="14.00">exit</text>
</g>
<!-- all_node -->
<g id="node6" class="node">
<title>all_node</title>
<polygon fill="none" stroke="black" points="197,-348.5 197,-369.5 714,-369.5 714,-348.5 197,-348.5"/>
<text text-anchor="start" x="200" y="-355.3" font-family="Times,serif" font-size="14.00">0 &#45;&#45; polystate.Exit</text>
<polygon fill="none" stroke="black" points="197,-327.5 197,-348.5 714,-348.5 714,-327.5 197,-327.5"/>
<text text-anchor="start" x="200" y="-334.3" font-family="Times,serif" font-size="14.00">2 &#45;&#45; exe&#45;counter.B</text>
<polygon fill="none" stroke="black" points="197,-306.5 197,-327.5 714,-327.5 714,-306.5 197,-306.5"/>
<text text-anchor="start" x="200" y="-313.3" font-family="Times,serif" font-size="14.00">4 &#45;&#45; exe&#45;counter.YesOrNo(polystate.Exit,exe&#45;counter.B)</text>
<polygon fill="none" stroke="black" points="197,-285.5 197,-306.5 714,-306.5 714,-285.5 197,-285.5"/>
<text text-anchor="start" x="200" y="-292.3" font-family="Times,serif" font-size="14.00">3 &#45;&#45; exe&#45;counter.YesOrNo(exe&#45;counter.YesOrNo(polystate.Exit,exe&#45;counter.B),exe&#45;counter.B)</text>
<polygon fill="none" stroke="black" points="197,-264.5 197,-285.5 714,-285.5 714,-264.5 197,-264.5"/>
<text text-anchor="start" x="200" y="-271.3" font-family="Times,serif" font-size="14.00">1 &#45;&#45; exe&#45;counter.A</text>
</g>
</g>
</svg>
