<?xml version="1.0" encoding="UTF-8" standalone="no"?>
<!DOCTYPE svg PUBLIC "-//W3C//DTD SVG 1.1//EN"
 "http://www.w3.org/Graphics/SVG/1.1/DTD/svg11.dtd">
<!-- Generated by graphviz version 2.43.0 (0)
 -->
<!-- Title: G Pages: 1 -->
<svg width="525pt" height="305pt"
 viewBox="0.00 0.00 525.27 305.00" xmlns="http://www.w3.org/2000/svg" xmlns:xlink="http://www.w3.org/1999/xlink">
<g id="graph0" class="graph" transform="scale(1 1) rotate(0) translate(4 301)">
<title>G</title>
<polygon fill="white" stroke="transparent" points="-4,4 -4,-301 521.27,-301 521.27,4 -4,4"/>
<!-- 6422626 -->
<g id="node1" class="node">
<title>6422626</title>
<ellipse fill="none" stroke="black" cx="243.88" cy="-279" rx="27" ry="18"/>
<text text-anchor="middle" x="243.88" y="-275.3" font-family="Times,serif" font-size="14.00">a</text>
</g>
<!-- 6488163 -->
<g id="node2" class="node">
<title>6488163</title>
<ellipse fill="none" stroke="black" cx="37.88" cy="-192" rx="27" ry="18"/>
<text text-anchor="middle" x="37.88" y="-188.3" font-family="Times,serif" font-size="14.00">b</text>
</g>
<!-- 6422626&#45;&gt;6488163 -->
<g id="edge1" class="edge">
<title>6422626&#45;&gt;6488163</title>
<path fill="none" stroke="black" d="M216.7,-278.28C159.8,-278.23 31.15,-274.53 3.88,-243 -4.33,-233.51 2.54,-221.98 12.2,-212.39"/>
<polygon fill="black" stroke="black" points="14.79,-214.76 19.92,-205.49 10.13,-209.54 14.79,-214.76"/>
<text text-anchor="middle" x="52.38" y="-231.8" font-family="Times,serif" font-size="14.00">AddOneThenToB</text>
</g>
<!-- 3459910481 -->
<g id="node4" class="node">
<title>3459910481</title>
<ellipse fill="none" stroke="black" cx="243.88" cy="-192" rx="126.18" ry="18"/>
<text text-anchor="middle" x="243.88" y="-188.3" font-family="Times,serif" font-size="14.00">yes_or_no(yes_or_no(exit, a), a)</text>
</g>
<!-- 6422626&#45;&gt;3459910481 -->
<g id="edge3" class="edge">
<title>6422626&#45;&gt;3459910481</title>
<path fill="none" stroke="black" d="M243.88,-260.8C243.88,-249.16 243.88,-233.55 243.88,-220.24"/>
<polygon fill="black" stroke="black" points="247.38,-220.18 243.88,-210.18 240.38,-220.18 247.38,-220.18"/>
<text text-anchor="middle" x="255.38" y="-231.8" font-family="Times,serif" font-size="14.00">Exit</text>
</g>
<!-- 6488163&#45;&gt;6422626 -->
<g id="edge2" class="edge">
<title>6488163&#45;&gt;6422626</title>
<path fill="none" stroke="black" d="M58.67,-203.89C79.43,-214.55 112.41,-230.91 141.88,-243 164.25,-252.18 190.02,-261.01 210.06,-267.5"/>
<polygon fill="black" stroke="black" points="209.09,-270.86 219.68,-270.58 211.22,-264.2 209.09,-270.86"/>
<text text-anchor="middle" x="190.88" y="-231.8" font-family="Times,serif" font-size="14.00">AddOneThenToA</text>
</g>
<!-- 71696827 -->
<g id="node3" class="node">
<title>71696827</title>
<ellipse fill="none" stroke="black" cx="392.88" cy="-18" rx="27" ry="18"/>
<text text-anchor="middle" x="392.88" y="-14.3" font-family="Times,serif" font-size="14.00">exit</text>
</g>
<!-- 3459910481&#45;&gt;6422626 -->
<g id="edge8" class="edge">
<title>3459910481&#45;&gt;6422626</title>
<path fill="none" stroke="black" d="M259.26,-210.08C265.89,-219.51 271.41,-231.6 267.88,-243 266.66,-246.93 264.84,-250.8 262.73,-254.46"/>
<polygon fill="black" stroke="black" points="259.66,-252.76 257.07,-263.03 265.5,-256.62 259.66,-252.76"/>
<text text-anchor="middle" x="277.38" y="-231.8" font-family="Times,serif" font-size="14.00">No</text>
</g>
<!-- 3459910481&#45;&gt;3459910481 -->
<g id="edge9" class="edge">
<title>3459910481&#45;&gt;3459910481</title>
<path fill="none" stroke="black" d="M359.77,-199.11C376.62,-197.98 387.97,-195.61 387.97,-192 387.97,-189.18 381.04,-187.12 369.98,-185.81"/>
<polygon fill="black" stroke="black" points="370.04,-182.3 359.77,-184.89 369.42,-189.28 370.04,-182.3"/>
<text text-anchor="middle" x="403.47" y="-188.3" font-family="Times,serif" font-size="14.00">Retry</text>
</g>
<!-- 1140262534 -->
<g id="node5" class="node">
<title>1140262534</title>
<ellipse fill="none" stroke="black" cx="392.88" cy="-105" rx="75.29" ry="18"/>
<text text-anchor="middle" x="392.88" y="-101.3" font-family="Times,serif" font-size="14.00">yes_or_no(exit, a)</text>
</g>
<!-- 3459910481&#45;&gt;1140262534 -->
<g id="edge4" class="edge">
<title>3459910481&#45;&gt;1140262534</title>
<path fill="none" stroke="black" d="M272.96,-174.41C296.75,-160.84 330.53,-141.57 356.18,-126.94"/>
<polygon fill="black" stroke="black" points="357.93,-129.97 364.88,-121.97 354.46,-123.89 357.93,-129.97"/>
<text text-anchor="middle" x="337.38" y="-144.8" font-family="Times,serif" font-size="14.00">Yes</text>
</g>
<!-- 1140262534&#45;&gt;6422626 -->
<g id="edge6" class="edge">
<title>1140262534&#45;&gt;6422626</title>
<path fill="none" stroke="black" d="M407.18,-122.8C423.85,-144.53 446.83,-182.8 427.88,-210 394.79,-257.5 324.52,-271.9 281.03,-276.22"/>
<polygon fill="black" stroke="black" points="280.52,-272.75 270.86,-277.09 281.12,-279.72 280.52,-272.75"/>
<text text-anchor="middle" x="443.38" y="-188.3" font-family="Times,serif" font-size="14.00">No</text>
</g>
<!-- 1140262534&#45;&gt;71696827 -->
<g id="edge5" class="edge">
<title>1140262534&#45;&gt;71696827</title>
<path fill="none" stroke="black" d="M392.88,-86.8C392.88,-75.16 392.88,-59.55 392.88,-46.24"/>
<polygon fill="black" stroke="black" points="396.38,-46.18 392.88,-36.18 389.38,-46.18 396.38,-46.18"/>
<text text-anchor="middle" x="403.38" y="-57.8" font-family="Times,serif" font-size="14.00">Yes</text>
</g>
<!-- 1140262534&#45;&gt;1140262534 -->
<g id="edge7" class="edge">
<title>1140262534&#45;&gt;1140262534</title>
<path fill="none" stroke="black" d="M461.29,-112.62C475.8,-111.85 486.27,-109.31 486.27,-105 486.27,-101.77 480.38,-99.53 471.32,-98.29"/>
<polygon fill="black" stroke="black" points="471.57,-94.8 461.29,-97.38 470.94,-101.77 471.57,-94.8"/>
<text text-anchor="middle" x="501.77" y="-101.3" font-family="Times,serif" font-size="14.00">Retry</text>
</g>
</g>
</svg>
