<?xml version="1.0" encoding="UTF-8" standalone="no"?>
<!DOCTYPE svg PUBLIC "-//W3C//DTD SVG 1.1//EN"
 "http://www.w3.org/Graphics/SVG/1.1/DTD/svg11.dtd">
<!-- Generated by graphviz version 2.43.0 (0)
 -->
<!-- Title: G Pages: 1 -->
<svg width="243pt" height="218pt"
 viewBox="0.00 0.00 243.29 218.00" xmlns="http://www.w3.org/2000/svg" xmlns:xlink="http://www.w3.org/1999/xlink">
<g id="graph0" class="graph" transform="scale(1 1) rotate(0) translate(4 214)">
<title>G</title>
<polygon fill="white" stroke="transparent" points="-4,4 -4,-214 239.29,-214 239.29,4 -4,4"/>
<!-- 70779317 -->
<g id="node1" class="node">
<title>70779317</title>
<ellipse fill="none" stroke="black" cx="33" cy="-192" rx="27" ry="18"/>
<text text-anchor="middle" x="33" y="-188.3" font-family="Times,serif" font-size="14.00">init</text>
</g>
<!-- 71696827 -->
<g id="node2" class="node">
<title>71696827</title>
<ellipse fill="none" stroke="black" cx="27" cy="-18" rx="27" ry="18"/>
<text text-anchor="middle" x="27" y="-14.3" font-family="Times,serif" font-size="14.00">exit</text>
</g>
<!-- 70779317&#45;&gt;71696827 -->
<g id="edge6" class="edge">
<title>70779317&#45;&gt;71696827</title>
<path fill="none" stroke="black" d="M32.18,-173.96C31.53,-160.2 30.63,-140.36 30,-123 29.05,-97.02 28.22,-67.38 27.68,-46.41"/>
<polygon fill="black" stroke="black" points="31.17,-46.21 27.42,-36.3 24.17,-46.39 31.17,-46.21"/>
<text text-anchor="middle" x="41.5" y="-101.3" font-family="Times,serif" font-size="14.00">Exit</text>
</g>
<!-- 68878758 -->
<g id="node4" class="node">
<title>68878758</title>
<ellipse fill="none" stroke="black" cx="91" cy="-105" rx="28.7" ry="18"/>
<text text-anchor="middle" x="91" y="-101.3" font-family="Times,serif" font-size="14.00">main</text>
</g>
<!-- 70779317&#45;&gt;68878758 -->
<g id="edge1" class="edge">
<title>70779317&#45;&gt;68878758</title>
<path fill="none" stroke="black" d="M43.64,-175.41C52.25,-162.79 64.53,-144.79 74.43,-130.28"/>
<polygon fill="black" stroke="black" points="77.49,-132.01 80.23,-121.78 71.71,-128.07 77.49,-132.01"/>
<text text-anchor="middle" x="94.5" y="-144.8" font-family="Times,serif" font-size="14.00">GotoMain</text>
</g>
<!-- 1071187558 -->
<g id="node3" class="node">
<title>1071187558</title>
<ellipse fill="none" stroke="black" cx="156" cy="-18" rx="79.09" ry="18"/>
<text text-anchor="middle" x="156" y="-14.3" font-family="Times,serif" font-size="14.00">action(main, main)</text>
</g>
<!-- 1071187558&#45;&gt;68878758 -->
<g id="edge5" class="edge">
<title>1071187558&#45;&gt;68878758</title>
<path fill="none" stroke="black" d="M152.83,-36.44C150.34,-46.66 146.06,-59.4 139,-69 134.02,-75.78 127.33,-81.79 120.54,-86.83"/>
<polygon fill="black" stroke="black" points="118.27,-84.15 112,-92.69 122.23,-89.92 118.27,-84.15"/>
<text text-anchor="middle" x="157" y="-57.8" font-family="Times,serif" font-size="14.00">OK</text>
</g>
<!-- 68878758&#45;&gt;71696827 -->
<g id="edge3" class="edge">
<title>68878758&#45;&gt;71696827</title>
<path fill="none" stroke="black" d="M72.8,-90.72C65.39,-84.68 57.14,-77.08 51,-69 45.53,-61.81 40.85,-53.17 37.11,-45.11"/>
<polygon fill="black" stroke="black" points="40.22,-43.48 33.03,-35.71 33.8,-46.27 40.22,-43.48"/>
<text text-anchor="middle" x="62.5" y="-57.8" font-family="Times,serif" font-size="14.00">Exit</text>
</g>
<!-- 68878758&#45;&gt;1071187558 -->
<g id="edge4" class="edge">
<title>68878758&#45;&gt;1071187558</title>
<path fill="none" stroke="black" d="M89.43,-86.98C89.3,-76.66 90.7,-63.67 97,-54 100.54,-48.56 105.25,-43.86 110.46,-39.82"/>
<polygon fill="black" stroke="black" points="112.69,-42.53 118.98,-34 108.74,-36.75 112.69,-42.53"/>
<text text-anchor="middle" x="118" y="-57.8" font-family="Times,serif" font-size="14.00">Modify</text>
</g>
<!-- 68878758&#45;&gt;68878758 -->
<g id="edge2" class="edge">
<title>68878758&#45;&gt;68878758</title>
<path fill="none" stroke="black" d="M116.88,-112.78C128.04,-113.42 137.6,-110.82 137.6,-105 137.6,-101.09 133.28,-98.63 127.07,-97.64"/>
<polygon fill="black" stroke="black" points="127.01,-94.13 116.88,-97.22 126.72,-101.12 127.01,-94.13"/>
<text text-anchor="middle" x="151.1" y="-101.3" font-family="Times,serif" font-size="14.00">Print</text>
</g>
</g>
</svg>
