<?xml version="1.0" encoding="UTF-8" standalone="no"?>
<!DOCTYPE svg PUBLIC "-//W3C//DTD SVG 1.1//EN"
 "http://www.w3.org/Graphics/SVG/1.1/DTD/svg11.dtd">
<!-- Generated by graphviz version 2.43.0 (0)
 -->
<!-- Title: G Pages: 1 -->
<svg width="1662pt" height="466pt"
 viewBox="0.00 0.00 1661.89 466.00" xmlns="http://www.w3.org/2000/svg" xmlns:xlink="http://www.w3.org/1999/xlink">
<g id="graph0" class="graph" transform="scale(1 1) rotate(0) translate(4 462)">
<title>G</title>
<polygon fill="white" stroke="transparent" points="-4,4 -4,-462 1657.89,-462 1657.89,4 -4,4"/>
<!-- 736101806 -->
<g id="node1" class="node">
<title>736101806</title>
<ellipse fill="none" stroke="black" cx="370.39" cy="-192" rx="27" ry="18"/>
<text text-anchor="middle" x="370.39" y="-188.3" font-family="Times,serif" font-size="14.00">0</text>
</g>
<!-- 1021923353 -->
<g id="node2" class="node">
<title>1021923353</title>
<ellipse fill="none" stroke="black" cx="72.39" cy="-105" rx="27" ry="18"/>
<text text-anchor="middle" x="72.39" y="-101.3" font-family="Times,serif" font-size="14.00">8</text>
</g>
<!-- 575014105 -->
<g id="node4" class="node">
<title>575014105</title>
<ellipse fill="none" stroke="black" cx="294.39" cy="-192" rx="27" ry="18"/>
<text text-anchor="middle" x="294.39" y="-188.3" font-family="Times,serif" font-size="14.00">1</text>
</g>
<!-- 1021923353&#45;&gt;575014105 -->
<g id="edge13" class="edge">
<title>1021923353&#45;&gt;575014105</title>
<path fill="none" stroke="black" d="M91.9,-117.56C111.11,-128.57 141.53,-145.05 169.39,-156 198.88,-167.59 233.69,-177.01 259.08,-183.14"/>
<polygon fill="black" stroke="black" points="258.46,-186.59 269,-185.49 260.07,-179.78 258.46,-186.59"/>
<text text-anchor="middle" x="179.39" y="-144.8" font-family="Times,serif" font-size="14.00">OK</text>
</g>
<!-- 1155213653 -->
<g id="node3" class="node">
<title>1155213653</title>
<ellipse fill="none" stroke="black" cx="196.39" cy="-105" rx="27" ry="18"/>
<text text-anchor="middle" x="196.39" y="-101.3" font-family="Times,serif" font-size="14.00">5</text>
</g>
<!-- 761267644 -->
<g id="node8" class="node">
<title>761267644</title>
<ellipse fill="none" stroke="black" cx="364.39" cy="-18" rx="27" ry="18"/>
<text text-anchor="middle" x="364.39" y="-14.3" font-family="Times,serif" font-size="14.00">6</text>
</g>
<!-- 1155213653&#45;&gt;761267644 -->
<g id="edge8" class="edge">
<title>1155213653&#45;&gt;761267644</title>
<path fill="none" stroke="black" d="M217.33,-93.41C246.83,-78.48 300.81,-51.17 334.52,-34.11"/>
<polygon fill="black" stroke="black" points="336.11,-37.23 343.45,-29.59 332.95,-30.98 336.11,-37.23"/>
<text text-anchor="middle" x="301.39" y="-57.8" font-family="Times,serif" font-size="14.00">OK</text>
</g>
<!-- 575014105&#45;&gt;1021923353 -->
<g id="edge12" class="edge">
<title>575014105&#45;&gt;1021923353</title>
<path fill="none" stroke="black" d="M267.51,-189.75C198.94,-186.3 21.72,-175.54 4.39,-156 -9.96,-139.81 14.86,-125.66 38.45,-116.59"/>
<polygon fill="black" stroke="black" points="39.8,-119.82 48.02,-113.13 37.42,-113.24 39.8,-119.82"/>
<text text-anchor="middle" x="59.89" y="-144.8" font-family="Times,serif" font-size="14.00">modify_areYouSure</text>
</g>
<!-- 575014105&#45;&gt;1155213653 -->
<g id="edge7" class="edge">
<title>575014105&#45;&gt;1155213653</title>
<path fill="none" stroke="black" d="M267.6,-189.15C245.15,-186.03 214.29,-177.78 198.39,-156 193.62,-149.46 192.05,-141.06 192,-133.02"/>
<polygon fill="black" stroke="black" points="195.5,-133.04 192.64,-122.84 188.51,-132.59 195.5,-133.04"/>
<text text-anchor="middle" x="218.39" y="-144.8" font-family="Times,serif" font-size="14.00">modify</text>
</g>
<!-- 177294319 -->
<g id="node5" class="node">
<title>177294319</title>
<ellipse fill="none" stroke="black" cx="285.39" cy="-105" rx="27" ry="18"/>
<text text-anchor="middle" x="285.39" y="-101.3" font-family="Times,serif" font-size="14.00">7</text>
</g>
<!-- 575014105&#45;&gt;177294319 -->
<g id="edge10" class="edge">
<title>575014105&#45;&gt;177294319</title>
<path fill="none" stroke="black" d="M272.28,-181.55C261.8,-175.81 250.31,-167.37 244.39,-156 238.22,-144.14 246.66,-132.5 257.46,-123.43"/>
<polygon fill="black" stroke="black" points="259.68,-126.14 265.56,-117.32 255.47,-120.55 259.68,-126.14"/>
<text text-anchor="middle" x="284.39" y="-144.8" font-family="Times,serif" font-size="14.00">modify_action</text>
</g>
<!-- 1294214807 -->
<g id="node7" class="node">
<title>1294214807</title>
<ellipse fill="none" stroke="black" cx="501.39" cy="-105" rx="27" ry="18"/>
<text text-anchor="middle" x="501.39" y="-101.3" font-family="Times,serif" font-size="14.00">3</text>
</g>
<!-- 575014105&#45;&gt;1294214807 -->
<g id="edge4" class="edge">
<title>575014105&#45;&gt;1294214807</title>
<path fill="none" stroke="black" d="M316.22,-181.19C322.07,-178.71 328.42,-176.14 334.39,-174 361,-164.46 368.97,-166.06 395.39,-156 421.77,-145.95 450.7,-132.11 471.65,-121.54"/>
<polygon fill="black" stroke="black" points="473.37,-124.59 480.69,-116.93 470.19,-118.35 473.37,-124.59"/>
<text text-anchor="middle" x="441.39" y="-144.8" font-family="Times,serif" font-size="14.00">add</text>
</g>
<!-- 2590190734 -->
<g id="node9" class="node">
<title>2590190734</title>
<ellipse fill="none" stroke="black" cx="333.39" cy="-359.5" rx="27" ry="18"/>
<text text-anchor="middle" x="333.39" y="-355.8" font-family="Times,serif" font-size="14.00">2</text>
</g>
<!-- 575014105&#45;&gt;2590190734 -->
<g id="edge1" class="edge">
<title>575014105&#45;&gt;2590190734</title>
<path fill="none" stroke="black" d="M290.84,-210.23C289.38,-219.92 288.44,-232.2 290.39,-243 296.17,-275.1 310.31,-309.93 320.81,-332.85"/>
<polygon fill="black" stroke="black" points="317.78,-334.63 325.19,-342.2 324.12,-331.66 317.78,-334.63"/>
<text text-anchor="middle" x="300.89" y="-231.8" font-family="Times,serif" font-size="14.00">exit</text>
</g>
<!-- 177294319&#45;&gt;575014105 -->
<g id="edge11" class="edge">
<title>177294319&#45;&gt;575014105</title>
<path fill="none" stroke="black" d="M304.59,-117.93C312.25,-123.83 320.24,-131.69 324.39,-141 328.81,-150.91 324.27,-161.29 317.5,-170"/>
<polygon fill="black" stroke="black" points="314.88,-167.68 310.84,-177.48 320.11,-172.33 314.88,-167.68"/>
<text text-anchor="middle" x="336.39" y="-144.8" font-family="Times,serif" font-size="14.00">OK</text>
</g>
<!-- 491390045 -->
<g id="node6" class="node">
<title>491390045</title>
<ellipse fill="none" stroke="black" cx="546.39" cy="-18" rx="27" ry="18"/>
<text text-anchor="middle" x="546.39" y="-14.3" font-family="Times,serif" font-size="14.00">4</text>
</g>
<!-- 491390045&#45;&gt;575014105 -->
<g id="edge6" class="edge">
<title>491390045&#45;&gt;575014105</title>
<path fill="none" stroke="black" d="M550.41,-36.05C554.67,-58.75 558.23,-98.86 537.39,-123 476.6,-193.41 423.93,-148.76 334.39,-174 331.36,-174.85 328.26,-175.88 325.19,-177"/>
<polygon fill="black" stroke="black" points="323.62,-173.86 315.62,-180.8 326.2,-180.36 323.62,-173.86"/>
<text text-anchor="middle" x="579.89" y="-101.3" font-family="Times,serif" font-size="14.00">add_entry</text>
</g>
<!-- 1294214807&#45;&gt;491390045 -->
<g id="edge5" class="edge">
<title>1294214807&#45;&gt;491390045</title>
<path fill="none" stroke="black" d="M510.07,-87.61C516.54,-75.38 525.51,-58.44 532.91,-44.46"/>
<polygon fill="black" stroke="black" points="536.15,-45.81 537.74,-35.34 529.97,-42.54 536.15,-45.81"/>
<text text-anchor="middle" x="537.39" y="-57.8" font-family="Times,serif" font-size="14.00">OK</text>
</g>
<!-- 761267644&#45;&gt;575014105 -->
<g id="edge9" class="edge">
<title>761267644&#45;&gt;575014105</title>
<path fill="none" stroke="black" d="M367.15,-36.1C370.67,-63.63 373.77,-118.46 350.39,-156 344.71,-165.12 335.68,-172.26 326.51,-177.64"/>
<polygon fill="black" stroke="black" points="324.63,-174.67 317.42,-182.44 327.9,-180.86 324.63,-174.67"/>
<text text-anchor="middle" x="406.89" y="-101.3" font-family="Times,serif" font-size="14.00">modify_entry</text>
</g>
<!-- 2590190734&#45;&gt;736101806 -->
<g id="edge2" class="edge">
<title>2590190734&#45;&gt;736101806</title>
<path fill="none" stroke="black" d="M337.21,-341.41C343.63,-312.67 356.65,-254.44 364.34,-220.08"/>
<polygon fill="black" stroke="black" points="367.77,-220.77 366.53,-210.24 360.94,-219.24 367.77,-220.77"/>
<text text-anchor="middle" x="372.89" y="-231.8" font-family="Times,serif" font-size="14.00">yes</text>
</g>
<!-- 2590190734&#45;&gt;575014105 -->
<g id="edge3" class="edge">
<title>2590190734&#45;&gt;575014105</title>
<path fill="none" stroke="black" d="M332.06,-341.24C329.75,-315.91 323.99,-267.39 311.39,-228 310.36,-224.78 309.08,-221.49 307.7,-218.27"/>
<polygon fill="black" stroke="black" points="310.76,-216.55 303.34,-208.98 304.42,-219.52 310.76,-216.55"/>
<text text-anchor="middle" x="323.39" y="-231.8" font-family="Times,serif" font-size="14.00">no</text>
</g>
<!-- all_node -->
<g id="node10" class="node">
<title>all_node</title>
<polygon fill="none" stroke="black" points="387.39,-432.5 387.39,-453.5 1646.39,-453.5 1646.39,-432.5 387.39,-432.5"/>
<text text-anchor="start" x="390.39" y="-439.3" font-family="Times,serif" font-size="14.00">0 &#45;&#45; polystate.Exit</text>
<polygon fill="none" stroke="black" points="387.39,-411.5 387.39,-432.5 1646.39,-432.5 1646.39,-411.5 387.39,-411.5"/>
<text text-anchor="start" x="390.39" y="-418.3" font-family="Times,serif" font-size="14.00">8 &#45;&#45; generic.Action((function &#39;Todo&#39;),exe&#45;todo.Context,(function &#39;zgui_action_genMsg&#39;),generic.AreYouSure((function &#39;Todo&#39;),exe&#45;todo.Context,(function &#39;zgui_are_you_sure_genMsg&#39;),polystate.Exit,polystate.Exit),exe&#45;todo.Main)</text>
<polygon fill="none" stroke="black" points="387.39,-390.5 387.39,-411.5 1646.39,-411.5 1646.39,-390.5 387.39,-390.5"/>
<text text-anchor="start" x="390.39" y="-397.3" font-family="Times,serif" font-size="14.00">5 &#45;&#45; generic.Action((function &#39;Todo&#39;),exe&#45;todo.Context,(function &#39;zgui_action_genMsg&#39;),exe&#45;todo.Modify,exe&#45;todo.Modify)</text>
<polygon fill="none" stroke="black" points="387.39,-369.5 387.39,-390.5 1646.39,-390.5 1646.39,-369.5 387.39,-369.5"/>
<text text-anchor="start" x="390.39" y="-376.3" font-family="Times,serif" font-size="14.00">1 &#45;&#45; exe&#45;todo.Main</text>
<polygon fill="none" stroke="black" points="387.39,-348.5 387.39,-369.5 1646.39,-369.5 1646.39,-348.5 387.39,-348.5"/>
<text text-anchor="start" x="390.39" y="-355.3" font-family="Times,serif" font-size="14.00">7 &#45;&#45; generic.Action((function &#39;Todo&#39;),exe&#45;todo.Context,(function &#39;zgui_action_genMsg&#39;),generic.Action((function &#39;Todo&#39;),exe&#45;todo.Context,(function &#39;zgui_action_genMsg&#39;),polystate.Exit,polystate.Exit),exe&#45;todo.Main)</text>
<polygon fill="none" stroke="black" points="387.39,-327.5 387.39,-348.5 1646.39,-348.5 1646.39,-327.5 387.39,-327.5"/>
<text text-anchor="start" x="390.39" y="-334.3" font-family="Times,serif" font-size="14.00">4 &#45;&#45; exe&#45;todo.Add</text>
<polygon fill="none" stroke="black" points="387.39,-306.5 387.39,-327.5 1646.39,-327.5 1646.39,-306.5 387.39,-306.5"/>
<text text-anchor="start" x="390.39" y="-313.3" font-family="Times,serif" font-size="14.00">3 &#45;&#45; generic.Action((function &#39;Todo&#39;),exe&#45;todo.Context,(function &#39;zgui_action_genMsg&#39;),exe&#45;todo.Add,exe&#45;todo.Add)</text>
<polygon fill="none" stroke="black" points="387.39,-285.5 387.39,-306.5 1646.39,-306.5 1646.39,-285.5 387.39,-285.5"/>
<text text-anchor="start" x="390.39" y="-292.3" font-family="Times,serif" font-size="14.00">6 &#45;&#45; exe&#45;todo.Modify</text>
<polygon fill="none" stroke="black" points="387.39,-264.5 387.39,-285.5 1646.39,-285.5 1646.39,-264.5 387.39,-264.5"/>
<text text-anchor="start" x="390.39" y="-271.3" font-family="Times,serif" font-size="14.00">2 &#45;&#45; generic.AreYouSure((function &#39;Todo&#39;),exe&#45;todo.Context,(function &#39;zgui_are_you_sure_genMsg&#39;),polystate.Exit,exe&#45;todo.Main)</text>
</g>
</g>
</svg>
