<?xml version="1.0" encoding="UTF-8" standalone="no"?>
<!DOCTYPE svg PUBLIC "-//W3C//DTD SVG 1.1//EN"
 "http://www.w3.org/Graphics/SVG/1.1/DTD/svg11.dtd">
<!-- Generated by graphviz version 2.43.0 (0)
 -->
<!-- Title: G Pages: 1 -->
<svg width="1440pt" height="653pt"
 viewBox="0.00 0.00 1440.41 653.00" xmlns="http://www.w3.org/2000/svg" xmlns:xlink="http://www.w3.org/1999/xlink">
<g id="graph0" class="graph" transform="scale(1 1) rotate(0) translate(4 649)">
<title>G</title>
<polygon fill="white" stroke="transparent" points="-4,4 -4,-649 1436.41,-649 1436.41,4 -4,4"/>
<!-- 427164665 -->
<g id="node1" class="node">
<title>427164665</title>
<ellipse fill="none" stroke="black" cx="983.28" cy="-627" rx="50.89" ry="18"/>
<text text-anchor="middle" x="983.28" y="-623.3" font-family="Times,serif" font-size="14.00">action(add)</text>
</g>
<!-- 38928682 -->
<g id="node4" class="node">
<title>38928682</title>
<ellipse fill="none" stroke="black" cx="828.28" cy="-453" rx="27" ry="18"/>
<text text-anchor="middle" x="828.28" y="-449.3" font-family="Times,serif" font-size="14.00">add</text>
</g>
<!-- 427164665&#45;&gt;38928682 -->
<g id="edge13" class="edge">
<title>427164665&#45;&gt;38928682</title>
<path fill="none" stroke="black" d="M938.02,-618.74C902.81,-610.5 856.06,-593.29 832.28,-558 817.02,-535.36 818.38,-503.23 822.05,-480.68"/>
<polygon fill="black" stroke="black" points="825.51,-481.25 823.92,-470.77 818.63,-479.95 825.51,-481.25"/>
<text text-anchor="middle" x="842.28" y="-536.3" font-family="Times,serif" font-size="14.00">OK</text>
</g>
<!-- 3001813713 -->
<g id="node6" class="node">
<title>3001813713</title>
<ellipse fill="none" stroke="black" cx="983.28" cy="-540" rx="121.58" ry="18"/>
<text text-anchor="middle" x="983.28" y="-536.3" font-family="Times,serif" font-size="14.00">are_you_sure(add, action(add))</text>
</g>
<!-- 427164665&#45;&gt;3001813713 -->
<g id="edge9" class="edge">
<title>427164665&#45;&gt;3001813713</title>
<path fill="none" stroke="black" d="M983.28,-608.8C983.28,-597.16 983.28,-581.55 983.28,-568.24"/>
<polygon fill="black" stroke="black" points="986.78,-568.18 983.28,-558.18 979.78,-568.18 986.78,-568.18"/>
<text text-anchor="middle" x="1017.28" y="-579.8" font-family="Times,serif" font-size="14.00">AreYouSure</text>
</g>
<!-- 71696827 -->
<g id="node2" class="node">
<title>71696827</title>
<ellipse fill="none" stroke="black" cx="579.28" cy="-18" rx="27" ry="18"/>
<text text-anchor="middle" x="579.28" y="-14.3" font-family="Times,serif" font-size="14.00">exit</text>
</g>
<!-- 68878758 -->
<g id="node3" class="node">
<title>68878758</title>
<ellipse fill="none" stroke="black" cx="773.28" cy="-366" rx="28.7" ry="18"/>
<text text-anchor="middle" x="773.28" y="-362.3" font-family="Times,serif" font-size="14.00">main</text>
</g>
<!-- 68878758&#45;&gt;427164665 -->
<g id="edge8" class="edge">
<title>68878758&#45;&gt;427164665</title>
<path fill="none" stroke="black" d="M774.03,-384.21C775.55,-410.51 779.96,-462.07 792.28,-504 799.73,-529.38 803.04,-535.71 817.28,-558 827.63,-574.21 828.96,-580.82 845.28,-591 869.16,-605.9 899.1,-614.47 924.99,-619.39"/>
<polygon fill="black" stroke="black" points="924.6,-622.88 935.06,-621.17 925.82,-615.98 924.6,-622.88"/>
<text text-anchor="middle" x="804.28" y="-492.8" font-family="Times,serif" font-size="14.00">Add</text>
</g>
<!-- 68878758&#45;&gt;68878758 -->
<g id="edge14" class="edge">
<title>68878758&#45;&gt;68878758</title>
<path fill="none" stroke="black" d="M799.15,-373.78C810.32,-374.42 819.87,-371.82 819.87,-366 819.87,-362.09 815.56,-359.63 809.34,-358.64"/>
<polygon fill="black" stroke="black" points="809.29,-355.13 799.15,-358.22 809,-362.12 809.29,-355.13"/>
<text text-anchor="middle" x="837.87" y="-362.3" font-family="Times,serif" font-size="14.00">Delete</text>
</g>
<!-- 3460369374 -->
<g id="node10" class="node">
<title>3460369374</title>
<ellipse fill="none" stroke="black" cx="463.28" cy="-279" rx="127.28" ry="18"/>
<text text-anchor="middle" x="463.28" y="-275.3" font-family="Times,serif" font-size="14.00">action(are_you_sure(exit, main))</text>
</g>
<!-- 68878758&#45;&gt;3460369374 -->
<g id="edge1" class="edge">
<title>68878758&#45;&gt;3460369374</title>
<path fill="none" stroke="black" d="M745.49,-361.02C710.17,-355.62 647.52,-344.92 595.28,-330 566.67,-321.83 535.52,-310.17 510.66,-300.16"/>
<polygon fill="black" stroke="black" points="511.7,-296.8 501.11,-296.28 509.06,-303.29 511.7,-296.8"/>
<text text-anchor="middle" x="606.78" y="-318.8" font-family="Times,serif" font-size="14.00">Exit</text>
</g>
<!-- 692323672 -->
<g id="node11" class="node">
<title>692323672</title>
<ellipse fill="none" stroke="black" cx="830.28" cy="-279" rx="63.89" ry="18"/>
<text text-anchor="middle" x="830.28" y="-275.3" font-family="Times,serif" font-size="14.00">action(modify)</text>
</g>
<!-- 68878758&#45;&gt;692323672 -->
<g id="edge15" class="edge">
<title>68878758&#45;&gt;692323672</title>
<path fill="none" stroke="black" d="M784,-349.01C792.28,-336.67 803.89,-319.35 813.41,-305.15"/>
<polygon fill="black" stroke="black" points="816.35,-307.04 819.02,-296.79 810.54,-303.14 816.35,-307.04"/>
<text text-anchor="middle" x="826.28" y="-318.8" font-family="Times,serif" font-size="14.00">Modify</text>
</g>
<!-- 1217988296 -->
<g id="node12" class="node">
<title>1217988296</title>
<ellipse fill="none" stroke="black" cx="1133.28" cy="-279" rx="77.99" ry="18"/>
<text text-anchor="middle" x="1133.28" y="-275.3" font-family="Times,serif" font-size="14.00">action(action(add))</text>
</g>
<!-- 68878758&#45;&gt;1217988296 -->
<g id="edge21" class="edge">
<title>68878758&#45;&gt;1217988296</title>
<path fill="none" stroke="black" d="M799.75,-358.75C856.51,-345.35 991.22,-313.54 1071,-294.71"/>
<polygon fill="black" stroke="black" points="1071.99,-298.07 1080.92,-292.36 1070.38,-291.25 1071.99,-298.07"/>
<text text-anchor="middle" x="996.78" y="-318.8" font-family="Times,serif" font-size="14.00">Add_M</text>
</g>
<!-- 38928682&#45;&gt;68878758 -->
<g id="edge11" class="edge">
<title>38928682&#45;&gt;68878758</title>
<path fill="none" stroke="black" d="M817.93,-436.01C809.79,-423.43 798.3,-405.68 789.02,-391.33"/>
<polygon fill="black" stroke="black" points="791.95,-389.41 783.57,-382.92 786.07,-393.21 791.95,-389.41"/>
<text text-anchor="middle" x="831.28" y="-405.8" font-family="Times,serif" font-size="14.00">AddEntry</text>
</g>
<!-- 2569212015 -->
<g id="node5" class="node">
<title>2569212015</title>
<ellipse fill="none" stroke="black" cx="1256.28" cy="-192" rx="176.27" ry="18"/>
<text text-anchor="middle" x="1256.28" y="-188.3" font-family="Times,serif" font-size="14.00">are_you_sure(action(add), action(action(add)))</text>
</g>
<!-- 2569212015&#45;&gt;427164665 -->
<g id="edge23" class="edge">
<title>2569212015&#45;&gt;427164665</title>
<path fill="none" stroke="black" d="M1256.28,-210.26C1256.28,-227.43 1256.28,-254.54 1256.28,-278 1256.28,-541 1256.28,-541 1256.28,-541 1256.28,-585.69 1121.23,-609.56 1041.11,-619.79"/>
<polygon fill="black" stroke="black" points="1040.63,-616.33 1031.14,-621.03 1041.5,-623.27 1040.63,-616.33"/>
<text text-anchor="middle" x="1266.78" y="-405.8" font-family="Times,serif" font-size="14.00">Yes</text>
</g>
<!-- 2569212015&#45;&gt;1217988296 -->
<g id="edge24" class="edge">
<title>2569212015&#45;&gt;1217988296</title>
<path fill="none" stroke="black" d="M1240.28,-210.05C1230.04,-220.37 1216.12,-233.36 1202.28,-243 1194.5,-248.41 1185.78,-253.5 1177.22,-258.02"/>
<polygon fill="black" stroke="black" points="1175.36,-255.04 1168.04,-262.71 1178.54,-261.28 1175.36,-255.04"/>
<text text-anchor="middle" x="1227.78" y="-231.8" font-family="Times,serif" font-size="14.00">No</text>
</g>
<!-- 3001813713&#45;&gt;427164665 -->
<g id="edge12" class="edge">
<title>3001813713&#45;&gt;427164665</title>
<path fill="none" stroke="black" d="M970.61,-557.95C967.22,-563.43 964.02,-569.72 962.28,-576 960.02,-584.13 961.92,-592.69 965.34,-600.39"/>
<polygon fill="black" stroke="black" points="962.28,-602.09 970.08,-609.26 968.45,-598.79 962.28,-602.09"/>
<text text-anchor="middle" x="970.78" y="-579.8" font-family="Times,serif" font-size="14.00">No</text>
</g>
<!-- 3001813713&#45;&gt;38928682 -->
<g id="edge10" class="edge">
<title>3001813713&#45;&gt;38928682</title>
<path fill="none" stroke="black" d="M953.02,-522.41C925.44,-507.28 884.94,-485.08 857.64,-470.1"/>
<polygon fill="black" stroke="black" points="859.03,-466.87 848.58,-465.13 855.66,-473.01 859.03,-466.87"/>
<text text-anchor="middle" x="925.78" y="-492.8" font-family="Times,serif" font-size="14.00">Yes</text>
</g>
<!-- 147784329 -->
<g id="node7" class="node">
<title>147784329</title>
<ellipse fill="none" stroke="black" cx="733.28" cy="-105" rx="36.29" ry="18"/>
<text text-anchor="middle" x="733.28" y="-101.3" font-family="Times,serif" font-size="14.00">modify</text>
</g>
<!-- 147784329&#45;&gt;68878758 -->
<g id="edge18" class="edge">
<title>147784329&#45;&gt;68878758</title>
<path fill="none" stroke="black" d="M718.12,-121.76C695.8,-146.96 658.35,-198.09 674.28,-243 689.02,-284.57 724.64,-322.31 748.88,-344.46"/>
<polygon fill="black" stroke="black" points="746.83,-347.32 756.62,-351.36 751.49,-342.09 746.83,-347.32"/>
<text text-anchor="middle" x="710.28" y="-231.8" font-family="Times,serif" font-size="14.00">ModifyEntry</text>
</g>
<!-- 4085062299 -->
<g id="node8" class="node">
<title>4085062299</title>
<ellipse fill="none" stroke="black" cx="274.28" cy="-192" rx="274.05" ry="18"/>
<text text-anchor="middle" x="274.28" y="-188.3" font-family="Times,serif" font-size="14.00">are_you_sure(are_you_sure(exit, main), action(are_you_sure(exit, main)))</text>
</g>
<!-- 4085062299&#45;&gt;3460369374 -->
<g id="edge6" class="edge">
<title>4085062299&#45;&gt;3460369374</title>
<path fill="none" stroke="black" d="M367.45,-209.05C383.32,-213.83 399.21,-220.02 413.28,-228 424.51,-234.37 434.95,-243.95 443.36,-253.02"/>
<polygon fill="black" stroke="black" points="440.95,-255.58 450.19,-260.77 446.2,-250.96 440.95,-255.58"/>
<text text-anchor="middle" x="440.78" y="-231.8" font-family="Times,serif" font-size="14.00">No</text>
</g>
<!-- 2006583567 -->
<g id="node13" class="node">
<title>2006583567</title>
<ellipse fill="none" stroke="black" cx="579.28" cy="-105" rx="100.18" ry="18"/>
<text text-anchor="middle" x="579.28" y="-101.3" font-family="Times,serif" font-size="14.00">are_you_sure(exit, main)</text>
</g>
<!-- 4085062299&#45;&gt;2006583567 -->
<g id="edge3" class="edge">
<title>4085062299&#45;&gt;2006583567</title>
<path fill="none" stroke="black" d="M333.81,-174.41C386.85,-159.63 464.15,-138.08 517.78,-123.14"/>
<polygon fill="black" stroke="black" points="518.81,-126.48 527.51,-120.43 516.94,-119.74 518.81,-126.48"/>
<text text-anchor="middle" x="455.78" y="-144.8" font-family="Times,serif" font-size="14.00">Yes</text>
</g>
<!-- 95358351 -->
<g id="node9" class="node">
<title>95358351</title>
<ellipse fill="none" stroke="black" cx="914.28" cy="-192" rx="147.57" ry="18"/>
<text text-anchor="middle" x="914.28" y="-188.3" font-family="Times,serif" font-size="14.00">are_you_sure(modify, action(modify))</text>
</g>
<!-- 95358351&#45;&gt;147784329 -->
<g id="edge17" class="edge">
<title>95358351&#45;&gt;147784329</title>
<path fill="none" stroke="black" d="M878.95,-174.41C846.97,-159.39 800.13,-137.39 768.25,-122.43"/>
<polygon fill="black" stroke="black" points="769.42,-119.11 758.88,-118.02 766.44,-125.44 769.42,-119.11"/>
<text text-anchor="middle" x="845.78" y="-144.8" font-family="Times,serif" font-size="14.00">Yes</text>
</g>
<!-- 95358351&#45;&gt;692323672 -->
<g id="edge19" class="edge">
<title>95358351&#45;&gt;692323672</title>
<path fill="none" stroke="black" d="M870.02,-209.35C861.21,-214.25 852.71,-220.4 846.28,-228 840.81,-234.46 837.2,-242.8 834.83,-250.82"/>
<polygon fill="black" stroke="black" points="831.4,-250.09 832.43,-260.63 838.2,-251.75 831.4,-250.09"/>
<text text-anchor="middle" x="854.78" y="-231.8" font-family="Times,serif" font-size="14.00">No</text>
</g>
<!-- 3460369374&#45;&gt;4085062299 -->
<g id="edge2" class="edge">
<title>3460369374&#45;&gt;4085062299</title>
<path fill="none" stroke="black" d="M400,-263.33C381.87,-258.04 362.39,-251.29 345.28,-243 330.39,-235.79 315.23,-225.58 302.76,-216.27"/>
<polygon fill="black" stroke="black" points="304.66,-213.31 294.59,-210.01 300.4,-218.87 304.66,-213.31"/>
<text text-anchor="middle" x="379.28" y="-231.8" font-family="Times,serif" font-size="14.00">AreYouSure</text>
</g>
<!-- 3460369374&#45;&gt;2006583567 -->
<g id="edge7" class="edge">
<title>3460369374&#45;&gt;2006583567</title>
<path fill="none" stroke="black" d="M497.41,-261.55C517.87,-249.94 542.67,-232.46 557.28,-210 572.23,-187 577.24,-155.64 578.8,-133.38"/>
<polygon fill="black" stroke="black" points="582.31,-133.43 579.33,-123.27 575.31,-133.07 582.31,-133.43"/>
<text text-anchor="middle" x="582.28" y="-188.3" font-family="Times,serif" font-size="14.00">OK</text>
</g>
<!-- 692323672&#45;&gt;147784329 -->
<g id="edge20" class="edge">
<title>692323672&#45;&gt;147784329</title>
<path fill="none" stroke="black" d="M797.48,-263.51C776.25,-252.22 750.24,-234.37 737.28,-210 724.66,-186.28 725.35,-155.04 728.14,-133.01"/>
<polygon fill="black" stroke="black" points="731.62,-133.41 729.63,-123.01 724.7,-132.38 731.62,-133.41"/>
<text text-anchor="middle" x="747.28" y="-188.3" font-family="Times,serif" font-size="14.00">OK</text>
</g>
<!-- 692323672&#45;&gt;95358351 -->
<g id="edge16" class="edge">
<title>692323672&#45;&gt;95358351</title>
<path fill="none" stroke="black" d="M846.87,-261.21C859.22,-248.72 876.25,-231.48 890.11,-217.46"/>
<polygon fill="black" stroke="black" points="892.89,-219.62 897.43,-210.05 887.91,-214.7 892.89,-219.62"/>
<text text-anchor="middle" x="912.28" y="-231.8" font-family="Times,serif" font-size="14.00">AreYouSure</text>
</g>
<!-- 1217988296&#45;&gt;427164665 -->
<g id="edge25" class="edge">
<title>1217988296&#45;&gt;427164665</title>
<path fill="none" stroke="black" d="M1133.28,-297.26C1133.28,-314.43 1133.28,-341.54 1133.28,-365 1133.28,-541 1133.28,-541 1133.28,-541 1133.28,-585.85 1081.89,-607.31 1039.28,-617.41"/>
<polygon fill="black" stroke="black" points="1038.51,-613.99 1029.5,-619.56 1040.02,-620.83 1038.51,-613.99"/>
<text text-anchor="middle" x="1143.28" y="-449.3" font-family="Times,serif" font-size="14.00">OK</text>
</g>
<!-- 1217988296&#45;&gt;2569212015 -->
<g id="edge22" class="edge">
<title>1217988296&#45;&gt;2569212015</title>
<path fill="none" stroke="black" d="M1128.83,-260.57C1127.24,-250.09 1127.29,-237.08 1134.28,-228 1139.14,-221.68 1145.07,-216.44 1151.67,-212.11"/>
<polygon fill="black" stroke="black" points="1153.44,-215.13 1160.35,-207.1 1149.94,-209.07 1153.44,-215.13"/>
<text text-anchor="middle" x="1168.28" y="-231.8" font-family="Times,serif" font-size="14.00">AreYouSure</text>
</g>
<!-- 2006583567&#45;&gt;71696827 -->
<g id="edge4" class="edge">
<title>2006583567&#45;&gt;71696827</title>
<path fill="none" stroke="black" d="M579.28,-86.8C579.28,-75.16 579.28,-59.55 579.28,-46.24"/>
<polygon fill="black" stroke="black" points="582.78,-46.18 579.28,-36.18 575.78,-46.18 582.78,-46.18"/>
<text text-anchor="middle" x="589.78" y="-57.8" font-family="Times,serif" font-size="14.00">Yes</text>
</g>
<!-- 2006583567&#45;&gt;68878758 -->
<g id="edge5" class="edge">
<title>2006583567&#45;&gt;68878758</title>
<path fill="none" stroke="black" d="M585.69,-123.06C599.37,-158.03 633.85,-239.39 679.28,-297 696.47,-318.81 722.41,-336.85 742.69,-348.86"/>
<polygon fill="black" stroke="black" points="741.14,-352 751.56,-353.94 744.62,-345.93 741.14,-352"/>
<text text-anchor="middle" x="651.78" y="-231.8" font-family="Times,serif" font-size="14.00">No</text>
</g>
</g>
</svg>
