<?xml version="1.0" encoding="UTF-8" standalone="no"?>
<!DOCTYPE svg PUBLIC "-//W3C//DTD SVG 1.1//EN"
 "http://www.w3.org/Graphics/SVG/1.1/DTD/svg11.dtd">
<!-- Generated by graphviz version 2.43.0 (0)
 -->
<!-- Title: G Pages: 1 -->
<svg width="872pt" height="392pt"
 viewBox="0.00 0.00 871.63 392.00" xmlns="http://www.w3.org/2000/svg" xmlns:xlink="http://www.w3.org/1999/xlink">
<g id="graph0" class="graph" transform="scale(1 1) rotate(0) translate(4 388)">
<title>G</title>
<polygon fill="white" stroke="transparent" points="-4,4 -4,-388 867.63,-388 867.63,4 -4,4"/>
<!-- 1620641836 -->
<g id="node1" class="node">
<title>1620641836</title>
<ellipse fill="none" stroke="black" cx="443.54" cy="-366" rx="94.48" ry="18"/>
<text text-anchor="middle" x="443.54" y="-362.3" font-family="Times,serif" font-size="14.00">action(modify, modify)</text>
</g>
<!-- 147784329 -->
<g id="node6" class="node">
<title>147784329</title>
<ellipse fill="none" stroke="black" cx="400.54" cy="-279" rx="36.29" ry="18"/>
<text text-anchor="middle" x="400.54" y="-275.3" font-family="Times,serif" font-size="14.00">modify</text>
</g>
<!-- 1620641836&#45;&gt;147784329 -->
<g id="edge9" class="edge">
<title>1620641836&#45;&gt;147784329</title>
<path fill="none" stroke="black" d="M434.84,-347.8C428.7,-335.66 420.37,-319.19 413.45,-305.52"/>
<polygon fill="black" stroke="black" points="416.58,-303.94 408.94,-296.6 410.33,-307.1 416.58,-303.94"/>
<text text-anchor="middle" x="435.54" y="-318.8" font-family="Times,serif" font-size="14.00">OK</text>
</g>
<!-- 1334511423 -->
<g id="node2" class="node">
<title>1334511423</title>
<ellipse fill="none" stroke="black" cx="82.54" cy="-105" rx="82.59" ry="18"/>
<text text-anchor="middle" x="82.54" y="-101.3" font-family="Times,serif" font-size="14.00">action(action, main)</text>
</g>
<!-- 68878758 -->
<g id="node4" class="node">
<title>68878758</title>
<ellipse fill="none" stroke="black" cx="435.54" cy="-192" rx="28.7" ry="18"/>
<text text-anchor="middle" x="435.54" y="-188.3" font-family="Times,serif" font-size="14.00">main</text>
</g>
<!-- 1334511423&#45;&gt;68878758 -->
<g id="edge12" class="edge">
<title>1334511423&#45;&gt;68878758</title>
<path fill="none" stroke="black" d="M141.75,-117.57C172.06,-123.85 209.45,-132.12 242.54,-141 263.72,-146.68 268.42,-150.11 289.54,-156 326.6,-166.34 369.46,-176.39 399.11,-183.05"/>
<polygon fill="black" stroke="black" points="398.49,-186.5 409.02,-185.26 400.02,-179.67 398.49,-186.5"/>
<text text-anchor="middle" x="299.54" y="-144.8" font-family="Times,serif" font-size="14.00">OK</text>
</g>
<!-- 71696827 -->
<g id="node3" class="node">
<title>71696827</title>
<ellipse fill="none" stroke="black" cx="763.54" cy="-18" rx="27" ry="18"/>
<text text-anchor="middle" x="763.54" y="-14.3" font-family="Times,serif" font-size="14.00">exit</text>
</g>
<!-- 68878758&#45;&gt;1620641836 -->
<g id="edge8" class="edge">
<title>68878758&#45;&gt;1620641836</title>
<path fill="none" stroke="black" d="M451.66,-207.11C457.16,-212.95 462.65,-220.19 465.54,-228 479.16,-264.82 466.52,-310.29 455.54,-338.47"/>
<polygon fill="black" stroke="black" points="452.18,-337.44 451.62,-348.02 458.66,-340.1 452.18,-337.44"/>
<text text-anchor="middle" x="492.54" y="-275.3" font-family="Times,serif" font-size="14.00">Modify</text>
</g>
<!-- 68878758&#45;&gt;1334511423 -->
<g id="edge11" class="edge">
<title>68878758&#45;&gt;1334511423</title>
<path fill="none" stroke="black" d="M406.83,-191.24C356.2,-190.81 248.36,-186.05 163.54,-156 145.18,-149.49 126.56,-138.38 111.81,-128.28"/>
<polygon fill="black" stroke="black" points="113.79,-125.4 103.6,-122.49 109.75,-131.12 113.79,-125.4"/>
<text text-anchor="middle" x="203.04" y="-144.8" font-family="Times,serif" font-size="14.00">ModifyAction</text>
</g>
<!-- 68878758&#45;&gt;68878758 -->
<g id="edge7" class="edge">
<title>68878758&#45;&gt;68878758</title>
<path fill="none" stroke="black" d="M461.42,-199.78C472.58,-200.42 482.14,-197.82 482.14,-192 482.14,-188.09 477.83,-185.63 471.61,-184.64"/>
<polygon fill="black" stroke="black" points="471.55,-181.13 461.42,-184.22 471.27,-188.12 471.55,-181.13"/>
<text text-anchor="middle" x="500.14" y="-188.3" font-family="Times,serif" font-size="14.00">Delete</text>
</g>
<!-- 832963950 -->
<g id="node7" class="node">
<title>832963950</title>
<ellipse fill="none" stroke="black" cx="251.54" cy="-105" rx="68.49" ry="18"/>
<text text-anchor="middle" x="251.54" y="-101.3" font-family="Times,serif" font-size="14.00">action(add, add)</text>
</g>
<!-- 68878758&#45;&gt;832963950 -->
<g id="edge4" class="edge">
<title>68878758&#45;&gt;832963950</title>
<path fill="none" stroke="black" d="M410.5,-182.99C391.09,-176.49 363.68,-166.68 340.54,-156 321.94,-147.41 301.99,-136.39 285.71,-126.88"/>
<polygon fill="black" stroke="black" points="287.46,-123.84 277.07,-121.77 283.9,-129.87 287.46,-123.84"/>
<text text-anchor="middle" x="352.54" y="-144.8" font-family="Times,serif" font-size="14.00">Add</text>
</g>
<!-- 2307787219 -->
<g id="node8" class="node">
<title>2307787219</title>
<ellipse fill="none" stroke="black" cx="446.54" cy="-105" rx="108.58" ry="18"/>
<text text-anchor="middle" x="446.54" y="-101.3" font-family="Times,serif" font-size="14.00">action(are_you_sure, main)</text>
</g>
<!-- 68878758&#45;&gt;2307787219 -->
<g id="edge13" class="edge">
<title>68878758&#45;&gt;2307787219</title>
<path fill="none" stroke="black" d="M410.23,-183.43C387.08,-175.1 358.18,-160.3 370.54,-141 374.28,-135.16 379.26,-130.29 384.9,-126.22"/>
<polygon fill="black" stroke="black" points="386.93,-129.08 393.55,-120.81 383.22,-123.14 386.93,-129.08"/>
<text text-anchor="middle" x="425.04" y="-144.8" font-family="Times,serif" font-size="14.00">ModifyAreYouSure</text>
</g>
<!-- 2006583567 -->
<g id="node9" class="node">
<title>2006583567</title>
<ellipse fill="none" stroke="black" cx="763.54" cy="-105" rx="100.18" ry="18"/>
<text text-anchor="middle" x="763.54" y="-101.3" font-family="Times,serif" font-size="14.00">are_you_sure(exit, main)</text>
</g>
<!-- 68878758&#45;&gt;2006583567 -->
<g id="edge1" class="edge">
<title>68878758&#45;&gt;2006583567</title>
<path fill="none" stroke="black" d="M462.83,-186.28C496.58,-180.24 555.68,-168.99 605.54,-156 640.72,-146.84 679.65,-134.54 710.07,-124.44"/>
<polygon fill="black" stroke="black" points="711.26,-127.73 719.63,-121.24 709.04,-121.09 711.26,-127.73"/>
<text text-anchor="middle" x="669.04" y="-144.8" font-family="Times,serif" font-size="14.00">Exit</text>
</g>
<!-- 38928682 -->
<g id="node5" class="node">
<title>38928682</title>
<ellipse fill="none" stroke="black" cx="497.54" cy="-18" rx="27" ry="18"/>
<text text-anchor="middle" x="497.54" y="-14.3" font-family="Times,serif" font-size="14.00">add</text>
</g>
<!-- 38928682&#45;&gt;68878758 -->
<g id="edge6" class="edge">
<title>38928682&#45;&gt;68878758</title>
<path fill="none" stroke="black" d="M516.06,-31.59C542.11,-50.94 584.32,-89.28 564.54,-123 545.04,-156.26 503.09,-174.01 472.3,-182.94"/>
<polygon fill="black" stroke="black" points="471.08,-179.64 462.34,-185.63 472.91,-186.4 471.08,-179.64"/>
<text text-anchor="middle" x="596.54" y="-101.3" font-family="Times,serif" font-size="14.00">AddEntry</text>
</g>
<!-- 147784329&#45;&gt;68878758 -->
<g id="edge10" class="edge">
<title>147784329&#45;&gt;68878758</title>
<path fill="none" stroke="black" d="M393.61,-261.09C390.59,-251.05 388.71,-238.32 393.54,-228 396.57,-221.53 401.45,-215.84 406.83,-211.03"/>
<polygon fill="black" stroke="black" points="409.24,-213.58 414.91,-204.63 404.9,-208.1 409.24,-213.58"/>
<text text-anchor="middle" x="429.54" y="-231.8" font-family="Times,serif" font-size="14.00">ModifyEntry</text>
</g>
<!-- 832963950&#45;&gt;38928682 -->
<g id="edge5" class="edge">
<title>832963950&#45;&gt;38928682</title>
<path fill="none" stroke="black" d="M291.34,-90.25C339.51,-73.61 419.72,-45.89 464.58,-30.39"/>
<polygon fill="black" stroke="black" points="465.82,-33.66 474.13,-27.09 463.53,-27.05 465.82,-33.66"/>
<text text-anchor="middle" x="399.54" y="-57.8" font-family="Times,serif" font-size="14.00">OK</text>
</g>
<!-- 2307787219&#45;&gt;68878758 -->
<g id="edge14" class="edge">
<title>2307787219&#45;&gt;68878758</title>
<path fill="none" stroke="black" d="M468.28,-122.91C477.58,-132.29 485.15,-144.38 479.54,-156 476.28,-162.77 471,-168.63 465.21,-173.52"/>
<polygon fill="black" stroke="black" points="463.03,-170.78 457.14,-179.58 467.24,-176.38 463.03,-170.78"/>
<text text-anchor="middle" x="491.54" y="-144.8" font-family="Times,serif" font-size="14.00">OK</text>
</g>
<!-- 2006583567&#45;&gt;71696827 -->
<g id="edge2" class="edge">
<title>2006583567&#45;&gt;71696827</title>
<path fill="none" stroke="black" d="M763.54,-86.8C763.54,-75.16 763.54,-59.55 763.54,-46.24"/>
<polygon fill="black" stroke="black" points="767.04,-46.18 763.54,-36.18 760.04,-46.18 767.04,-46.18"/>
<text text-anchor="middle" x="774.04" y="-57.8" font-family="Times,serif" font-size="14.00">Yes</text>
</g>
<!-- 2006583567&#45;&gt;68878758 -->
<g id="edge3" class="edge">
<title>2006583567&#45;&gt;68878758</title>
<path fill="none" stroke="black" d="M742.72,-122.67C727.5,-133.95 705.87,-148.17 684.54,-156 613.38,-182.13 524.19,-188.92 474.18,-190.58"/>
<polygon fill="black" stroke="black" points="474.01,-187.08 464.12,-190.86 474.21,-194.08 474.01,-187.08"/>
<text text-anchor="middle" x="722.04" y="-144.8" font-family="Times,serif" font-size="14.00">No</text>
</g>
</g>
</svg>
