<?xml version="1.0" encoding="UTF-8" standalone="no"?>
<!DOCTYPE svg PUBLIC "-//W3C//DTD SVG 1.1//EN"
 "http://www.w3.org/Graphics/SVG/1.1/DTD/svg11.dtd">
<!-- Generated by graphviz version 2.43.0 (0)
 -->
<!-- Title: G Pages: 1 -->
<svg width="509pt" height="740pt"
 viewBox="0.00 0.00 509.13 740.00" xmlns="http://www.w3.org/2000/svg" xmlns:xlink="http://www.w3.org/1999/xlink">
<g id="graph0" class="graph" transform="scale(1 1) rotate(0) translate(4 736)">
<title>G</title>
<polygon fill="white" stroke="transparent" points="-4,4 -4,-736 505.13,-736 505.13,4 -4,4"/>
<!-- 1217988296 -->
<g id="node1" class="node">
<title>1217988296</title>
<ellipse fill="none" stroke="black" cx="219.13" cy="-714" rx="77.99" ry="18"/>
<text text-anchor="middle" x="219.13" y="-710.3" font-family="Times,serif" font-size="14.00">action(action(add))</text>
</g>
<!-- 2569212015 -->
<g id="node6" class="node">
<title>2569212015</title>
<ellipse fill="none" stroke="black" cx="176.13" cy="-627" rx="176.27" ry="18"/>
<text text-anchor="middle" x="176.13" y="-623.3" font-family="Times,serif" font-size="14.00">are_you_sure(action(add), action(action(add)))</text>
</g>
<!-- 1217988296&#45;&gt;2569212015 -->
<g id="edge16" class="edge">
<title>1217988296&#45;&gt;2569212015</title>
<path fill="none" stroke="black" d="M192.85,-696.93C186.57,-691.72 180.67,-685.36 177.13,-678 173.77,-671.01 172.64,-662.8 172.58,-655.08"/>
<polygon fill="black" stroke="black" points="176.08,-655.18 173.07,-645.02 169.09,-654.84 176.08,-655.18"/>
<text text-anchor="middle" x="187.13" y="-666.8" font-family="Times,serif" font-size="14.00">OK</text>
</g>
<!-- 427164665 -->
<g id="node2" class="node">
<title>427164665</title>
<ellipse fill="none" stroke="black" cx="187.13" cy="-540" rx="50.89" ry="18"/>
<text text-anchor="middle" x="187.13" y="-536.3" font-family="Times,serif" font-size="14.00">action(add)</text>
</g>
<!-- 3001813713 -->
<g id="node8" class="node">
<title>3001813713</title>
<ellipse fill="none" stroke="black" cx="178.13" cy="-453" rx="121.58" ry="18"/>
<text text-anchor="middle" x="178.13" y="-449.3" font-family="Times,serif" font-size="14.00">are_you_sure(add, action(add))</text>
</g>
<!-- 427164665&#45;&gt;3001813713 -->
<g id="edge5" class="edge">
<title>427164665&#45;&gt;3001813713</title>
<path fill="none" stroke="black" d="M175.27,-522.33C171.97,-516.77 168.82,-510.36 167.13,-504 165.16,-496.56 165.78,-488.43 167.47,-480.93"/>
<polygon fill="black" stroke="black" points="170.86,-481.79 170.28,-471.21 164.14,-479.84 170.86,-481.79"/>
<text text-anchor="middle" x="177.13" y="-492.8" font-family="Times,serif" font-size="14.00">OK</text>
</g>
<!-- 71696827 -->
<g id="node3" class="node">
<title>71696827</title>
<ellipse fill="none" stroke="black" cx="345.13" cy="-105" rx="27" ry="18"/>
<text text-anchor="middle" x="345.13" y="-101.3" font-family="Times,serif" font-size="14.00">exit</text>
</g>
<!-- 68878758 -->
<g id="node4" class="node">
<title>68878758</title>
<ellipse fill="none" stroke="black" cx="328.13" cy="-279" rx="28.7" ry="18"/>
<text text-anchor="middle" x="328.13" y="-275.3" font-family="Times,serif" font-size="14.00">main</text>
</g>
<!-- 68878758&#45;&gt;1217988296 -->
<g id="edge15" class="edge">
<title>68878758&#45;&gt;1217988296</title>
<path fill="none" stroke="black" d="M343.74,-294.34C359.05,-310.05 380.13,-336.8 380.13,-365 380.13,-628 380.13,-628 380.13,-628 380.13,-669.84 337.08,-691.14 295.5,-701.95"/>
<polygon fill="black" stroke="black" points="294.45,-698.61 285.55,-704.36 296.09,-705.41 294.45,-698.61"/>
<text text-anchor="middle" x="401.63" y="-492.8" font-family="Times,serif" font-size="14.00">Add_M</text>
</g>
<!-- 68878758&#45;&gt;427164665 -->
<g id="edge4" class="edge">
<title>68878758&#45;&gt;427164665</title>
<path fill="none" stroke="black" d="M331.31,-297.01C336.99,-332.6 345.15,-416.11 309.13,-471 292.01,-497.09 261.27,-514.13 234.94,-524.63"/>
<polygon fill="black" stroke="black" points="233.58,-521.4 225.46,-528.21 236.06,-527.95 233.58,-521.4"/>
<text text-anchor="middle" x="345.13" y="-405.8" font-family="Times,serif" font-size="14.00">Add</text>
</g>
<!-- 68878758&#45;&gt;68878758 -->
<g id="edge9" class="edge">
<title>68878758&#45;&gt;68878758</title>
<path fill="none" stroke="black" d="M354.01,-286.78C365.17,-287.42 374.73,-284.82 374.73,-279 374.73,-275.09 370.42,-272.63 364.2,-271.64"/>
<polygon fill="black" stroke="black" points="364.14,-268.13 354.01,-271.22 363.86,-275.12 364.14,-268.13"/>
<text text-anchor="middle" x="392.73" y="-275.3" font-family="Times,serif" font-size="14.00">Delete</text>
</g>
<!-- 692323672 -->
<g id="node7" class="node">
<title>692323672</title>
<ellipse fill="none" stroke="black" cx="146.13" cy="-192" rx="63.89" ry="18"/>
<text text-anchor="middle" x="146.13" y="-188.3" font-family="Times,serif" font-size="14.00">action(modify)</text>
</g>
<!-- 68878758&#45;&gt;692323672 -->
<g id="edge10" class="edge">
<title>68878758&#45;&gt;692323672</title>
<path fill="none" stroke="black" d="M305.82,-267.58C276.37,-253.82 223.97,-229.35 187.25,-212.2"/>
<polygon fill="black" stroke="black" points="188.35,-208.85 177.81,-207.79 185.39,-215.2 188.35,-208.85"/>
<text text-anchor="middle" x="269.13" y="-231.8" font-family="Times,serif" font-size="14.00">Modify</text>
</g>
<!-- 2006583567 -->
<g id="node11" class="node">
<title>2006583567</title>
<ellipse fill="none" stroke="black" cx="328.13" cy="-192" rx="100.18" ry="18"/>
<text text-anchor="middle" x="328.13" y="-188.3" font-family="Times,serif" font-size="14.00">are_you_sure(exit, main)</text>
</g>
<!-- 68878758&#45;&gt;2006583567 -->
<g id="edge1" class="edge">
<title>68878758&#45;&gt;2006583567</title>
<path fill="none" stroke="black" d="M315.8,-262.53C311.91,-256.75 308.12,-249.9 306.13,-243 303.82,-234.97 305.71,-226.54 309.18,-218.94"/>
<polygon fill="black" stroke="black" points="312.26,-220.61 314.02,-210.16 306.13,-217.22 312.26,-220.61"/>
<text text-anchor="middle" x="317.63" y="-231.8" font-family="Times,serif" font-size="14.00">Exit</text>
</g>
<!-- 38928682 -->
<g id="node5" class="node">
<title>38928682</title>
<ellipse fill="none" stroke="black" cx="229.13" cy="-366" rx="27" ry="18"/>
<text text-anchor="middle" x="229.13" y="-362.3" font-family="Times,serif" font-size="14.00">add</text>
</g>
<!-- 38928682&#45;&gt;68878758 -->
<g id="edge7" class="edge">
<title>38928682&#45;&gt;68878758</title>
<path fill="none" stroke="black" d="M236.46,-348.55C241.82,-337.95 249.93,-324.42 260.13,-315 270.06,-305.83 282.85,-298.42 294.65,-292.82"/>
<polygon fill="black" stroke="black" points="296.12,-295.99 303.82,-288.72 293.27,-289.6 296.12,-295.99"/>
<text text-anchor="middle" x="287.13" y="-318.8" font-family="Times,serif" font-size="14.00">AddEntry</text>
</g>
<!-- 2569212015&#45;&gt;1217988296 -->
<g id="edge18" class="edge">
<title>2569212015&#45;&gt;1217988296</title>
<path fill="none" stroke="black" d="M187.04,-645.2C190.43,-650.79 194.07,-657.08 197.13,-663 201,-670.46 204.82,-678.75 208.17,-686.39"/>
<polygon fill="black" stroke="black" points="204.97,-687.81 212.12,-695.62 211.4,-685.05 204.97,-687.81"/>
<text text-anchor="middle" x="213.63" y="-666.8" font-family="Times,serif" font-size="14.00">No</text>
</g>
<!-- 2569212015&#45;&gt;427164665 -->
<g id="edge17" class="edge">
<title>2569212015&#45;&gt;427164665</title>
<path fill="none" stroke="black" d="M178.36,-608.8C179.87,-597.16 181.89,-581.55 183.61,-568.24"/>
<polygon fill="black" stroke="black" points="187.1,-568.54 184.91,-558.18 180.16,-567.64 187.1,-568.54"/>
<text text-anchor="middle" x="193.63" y="-579.8" font-family="Times,serif" font-size="14.00">Yes</text>
</g>
<!-- 95358351 -->
<g id="node10" class="node">
<title>95358351</title>
<ellipse fill="none" stroke="black" cx="152.13" cy="-105" rx="147.57" ry="18"/>
<text text-anchor="middle" x="152.13" y="-101.3" font-family="Times,serif" font-size="14.00">are_you_sure(modify, action(modify))</text>
</g>
<!-- 692323672&#45;&gt;95358351 -->
<g id="edge11" class="edge">
<title>692323672&#45;&gt;95358351</title>
<path fill="none" stroke="black" d="M133.04,-174.07C127.22,-164.47 122.43,-152.18 126.13,-141 127.24,-137.66 128.8,-134.39 130.61,-131.26"/>
<polygon fill="black" stroke="black" points="133.55,-133.16 136.21,-122.91 127.73,-129.26 133.55,-133.16"/>
<text text-anchor="middle" x="136.13" y="-144.8" font-family="Times,serif" font-size="14.00">OK</text>
</g>
<!-- 3001813713&#45;&gt;427164665 -->
<g id="edge8" class="edge">
<title>3001813713&#45;&gt;427164665</title>
<path fill="none" stroke="black" d="M183.5,-471.28C184.98,-476.88 186.39,-483.15 187.13,-489 188.06,-496.29 188.37,-504.23 188.37,-511.58"/>
<polygon fill="black" stroke="black" points="184.87,-511.75 188.2,-521.81 191.87,-511.87 184.87,-511.75"/>
<text text-anchor="middle" x="197.63" y="-492.8" font-family="Times,serif" font-size="14.00">No</text>
</g>
<!-- 3001813713&#45;&gt;38928682 -->
<g id="edge6" class="edge">
<title>3001813713&#45;&gt;38928682</title>
<path fill="none" stroke="black" d="M188.45,-434.8C195.83,-422.5 205.88,-405.76 214.14,-391.99"/>
<polygon fill="black" stroke="black" points="217.38,-393.4 219.52,-383.03 211.37,-389.8 217.38,-393.4"/>
<text text-anchor="middle" x="217.63" y="-405.8" font-family="Times,serif" font-size="14.00">Yes</text>
</g>
<!-- 147784329 -->
<g id="node9" class="node">
<title>147784329</title>
<ellipse fill="none" stroke="black" cx="304.13" cy="-18" rx="36.29" ry="18"/>
<text text-anchor="middle" x="304.13" y="-14.3" font-family="Times,serif" font-size="14.00">modify</text>
</g>
<!-- 147784329&#45;&gt;68878758 -->
<g id="edge13" class="edge">
<title>147784329&#45;&gt;68878758</title>
<path fill="none" stroke="black" d="M324.36,-33.24C356.75,-57.57 418.53,-110.73 437.13,-174 441.65,-189.35 444.9,-196.01 437.13,-210 421.4,-238.36 388.37,-256.44 362.77,-266.77"/>
<polygon fill="black" stroke="black" points="361.47,-263.52 353.37,-270.36 363.96,-270.06 361.47,-263.52"/>
<text text-anchor="middle" x="465.13" y="-144.8" font-family="Times,serif" font-size="14.00">ModifyEntry</text>
</g>
<!-- 95358351&#45;&gt;692323672 -->
<g id="edge14" class="edge">
<title>95358351&#45;&gt;692323672</title>
<path fill="none" stroke="black" d="M150.92,-123.18C150.1,-134.81 149,-150.42 148.06,-163.73"/>
<polygon fill="black" stroke="black" points="144.56,-163.58 147.35,-173.8 151.54,-164.07 144.56,-163.58"/>
<text text-anchor="middle" x="158.63" y="-144.8" font-family="Times,serif" font-size="14.00">No</text>
</g>
<!-- 95358351&#45;&gt;147784329 -->
<g id="edge12" class="edge">
<title>95358351&#45;&gt;147784329</title>
<path fill="none" stroke="black" d="M182.16,-87.21C208.01,-72.75 245.23,-51.94 271.74,-37.11"/>
<polygon fill="black" stroke="black" points="273.62,-40.08 280.64,-32.14 270.2,-33.97 273.62,-40.08"/>
<text text-anchor="middle" x="248.63" y="-57.8" font-family="Times,serif" font-size="14.00">Yes</text>
</g>
<!-- 2006583567&#45;&gt;71696827 -->
<g id="edge2" class="edge">
<title>2006583567&#45;&gt;71696827</title>
<path fill="none" stroke="black" d="M331.57,-173.8C333.92,-162.09 337.07,-146.34 339.74,-132.97"/>
<polygon fill="black" stroke="black" points="343.23,-133.38 341.76,-122.89 336.36,-132 343.23,-133.38"/>
<text text-anchor="middle" x="347.63" y="-144.8" font-family="Times,serif" font-size="14.00">Yes</text>
</g>
<!-- 2006583567&#45;&gt;68878758 -->
<g id="edge3" class="edge">
<title>2006583567&#45;&gt;68878758</title>
<path fill="none" stroke="black" d="M328.77,-210.12C329.05,-219.78 329.29,-232.06 329.13,-243 329.1,-245.55 329.05,-248.21 328.99,-250.87"/>
<polygon fill="black" stroke="black" points="325.49,-250.82 328.72,-260.91 332.48,-251.01 325.49,-250.82"/>
<text text-anchor="middle" x="337.63" y="-231.8" font-family="Times,serif" font-size="14.00">No</text>
</g>
</g>
</svg>
