<?xml version="1.0" encoding="UTF-8" standalone="no"?>
<!DOCTYPE svg PUBLIC "-//W3C//DTD SVG 1.1//EN"
 "http://www.w3.org/Graphics/SVG/1.1/DTD/svg11.dtd">
<!-- Generated by graphviz version 2.43.0 (0)
 -->
<!-- Title: fsm_state_graph Pages: 1 -->
<svg width="1789pt" height="542pt"
 viewBox="0.00 0.00 1789.00 542.00" xmlns="http://www.w3.org/2000/svg" xmlns:xlink="http://www.w3.org/1999/xlink">
<g id="graph0" class="graph" transform="scale(1 1) rotate(0) translate(4 538)">
<title>fsm_state_graph</title>
<polygon fill="white" stroke="transparent" points="-4,4 -4,-538 1785,-538 1785,4 -4,4"/>
<g id="clust1" class="cluster">
<title>cluster_Todo</title>
<polygon fill="none" stroke="black" points="8,-8 8,-435 1033,-435 1033,-8 8,-8"/>
<text text-anchor="middle" x="520.5" y="-419.8" font-family="Times,serif" font-size="14.00">Todo_state_graph</text>
</g>
<g id="clust2" class="cluster">
<title>cluster_Todo_state</title>
<polygon fill="none" stroke="black" points="1041,-269 1041,-526 1773,-526 1773,-269 1041,-269"/>
<text text-anchor="middle" x="1407" y="-510.8" font-family="Times,serif" font-size="14.00">Todo_state</text>
</g>
<!-- 575014105 -->
<g id="node1" class="node">
<title>575014105</title>
<ellipse fill="none" stroke="black" cx="391" cy="-386" rx="27" ry="18"/>
<text text-anchor="middle" x="391" y="-382.3" font-family="Times,serif" font-size="14.00">0</text>
</g>
<!-- 575014105&#45;&gt;575014105 -->
<g id="edge22" class="edge">
<title>575014105&#45;&gt;575014105</title>
<path fill="none" stroke="blue" d="M402.07,-402.73C417.32,-418.01 436,-412.43 436,-386 436,-364.11 423.19,-356.52 410.13,-363.24"/>
<polygon fill="blue" stroke="blue" points="407.98,-360.48 402.07,-369.27 412.17,-366.08 407.98,-360.48"/>
<text text-anchor="middle" x="468.5" y="-382.3" font-family="Times,serif" font-size="14.00">no_trasition</text>
</g>
<!-- 3838454308 -->
<g id="node2" class="node">
<title>3838454308</title>
<ellipse fill="none" stroke="black" cx="339" cy="-208" rx="27" ry="18"/>
<text text-anchor="middle" x="339" y="-204.3" font-family="Times,serif" font-size="14.00">1</text>
</g>
<!-- 575014105&#45;&gt;3838454308 -->
<g id="edge1" class="edge">
<title>575014105&#45;&gt;3838454308</title>
<path fill="none" stroke="blue" d="M377.48,-370.12C358.28,-347.89 324.02,-303.79 311,-259 309.14,-252.6 308.79,-250.29 311,-244 312.55,-239.59 314.91,-235.31 317.63,-231.36"/>
<polygon fill="blue" stroke="blue" points="320.54,-233.32 323.94,-223.29 315.02,-229.01 320.54,-233.32"/>
<text text-anchor="middle" x="321.5" y="-247.8" font-family="Times,serif" font-size="14.00">exit</text>
</g>
<!-- 2009994374 -->
<g id="node5" class="node">
<title>2009994374</title>
<ellipse fill="none" stroke="black" cx="134" cy="-208" rx="27" ry="18"/>
<text text-anchor="middle" x="134" y="-204.3" font-family="Times,serif" font-size="14.00">4</text>
</g>
<!-- 575014105&#45;&gt;2009994374 -->
<g id="edge8" class="edge">
<title>575014105&#45;&gt;2009994374</title>
<path fill="none" stroke="blue" d="M372.93,-372.62C328.43,-342.15 213.38,-263.36 160.86,-227.39"/>
<polygon fill="blue" stroke="blue" points="162.62,-224.36 152.4,-221.6 158.67,-230.14 162.62,-224.36"/>
<text text-anchor="middle" x="212" y="-247.8" font-family="Times,serif" font-size="14.00">add</text>
</g>
<!-- 52369220 -->
<g id="node7" class="node">
<title>52369220</title>
<ellipse fill="none" stroke="black" cx="804" cy="-208" rx="27" ry="18"/>
<text text-anchor="middle" x="804" y="-204.3" font-family="Times,serif" font-size="14.00">6</text>
</g>
<!-- 575014105&#45;&gt;52369220 -->
<g id="edge12" class="edge">
<title>575014105&#45;&gt;52369220</title>
<path fill="none" stroke="blue" d="M413.66,-375.83C472.48,-351.95 634.72,-285.54 768,-226 769.8,-225.2 771.64,-224.36 773.5,-223.51"/>
<polygon fill="blue" stroke="blue" points="775.15,-226.6 782.75,-219.22 772.2,-220.25 775.15,-226.6"/>
<text text-anchor="middle" x="737" y="-247.8" font-family="Times,serif" font-size="14.00">modify</text>
</g>
<!-- 3041929165 -->
<g id="node9" class="node">
<title>3041929165</title>
<ellipse fill="none" stroke="black" cx="494" cy="-208" rx="27" ry="18"/>
<text text-anchor="middle" x="494" y="-204.3" font-family="Times,serif" font-size="14.00">8</text>
</g>
<!-- 575014105&#45;&gt;3041929165 -->
<g id="edge16" class="edge">
<title>575014105&#45;&gt;3041929165</title>
<path fill="none" stroke="blue" d="M385.23,-368.16C376.55,-339.42 363.94,-280.47 392,-244 410.54,-219.9 429.48,-236.53 458,-226 459.85,-225.32 461.73,-224.58 463.62,-223.8"/>
<polygon fill="blue" stroke="blue" points="465.2,-226.93 472.94,-219.7 462.38,-220.52 465.2,-226.93"/>
<text text-anchor="middle" x="432" y="-247.8" font-family="Times,serif" font-size="14.00">modify_action</text>
</g>
<!-- 1646078307 -->
<g id="node10" class="node">
<title>1646078307</title>
<ellipse fill="none" stroke="black" cx="649" cy="-208" rx="27" ry="18"/>
<text text-anchor="middle" x="649" y="-204.3" font-family="Times,serif" font-size="14.00">9</text>
</g>
<!-- 575014105&#45;&gt;1646078307 -->
<g id="edge19" class="edge">
<title>575014105&#45;&gt;1646078307</title>
<path fill="none" stroke="blue" d="M402.44,-369.53C424.97,-340.25 478.11,-276.72 538,-244 568.08,-227.56 580.66,-237.38 613,-226 614.91,-225.33 616.85,-224.59 618.79,-223.81"/>
<polygon fill="blue" stroke="blue" points="620.6,-226.84 628.37,-219.63 617.8,-220.42 620.6,-226.84"/>
<text text-anchor="middle" x="593.5" y="-247.8" font-family="Times,serif" font-size="14.00">modify_areYouSure</text>
</g>
<!-- 3838454308&#45;&gt;575014105 -->
<g id="edge6" class="edge">
<title>3838454308&#45;&gt;575014105</title>
<path fill="none" stroke="blue" d="M343.97,-225.82C353.01,-256.4 372.19,-321.33 383.06,-358.11"/>
<polygon fill="blue" stroke="blue" points="379.82,-359.53 386.01,-368.12 386.54,-357.54 379.82,-359.53"/>
<text text-anchor="middle" x="359" y="-247.8" font-family="Times,serif" font-size="14.00">no</text>
</g>
<!-- 3838454308&#45;&gt;3838454308 -->
<g id="edge7" class="edge">
<title>3838454308&#45;&gt;3838454308</title>
<path fill="none" stroke="blue" d="M363.53,-215.75C374.51,-216.49 384,-213.91 384,-208 384,-204.03 379.72,-201.56 373.57,-200.59"/>
<polygon fill="blue" stroke="blue" points="373.65,-197.09 363.53,-200.25 373.41,-204.09 373.65,-197.09"/>
<text text-anchor="middle" x="416.5" y="-204.3" font-family="Times,serif" font-size="14.00">no_trasition</text>
</g>
<!-- 739776489 -->
<g id="node3" class="node">
<title>739776489</title>
<ellipse fill="none" stroke="black" cx="301" cy="-121" rx="27" ry="18"/>
<text text-anchor="middle" x="301" y="-117.3" font-family="Times,serif" font-size="14.00">2</text>
</g>
<!-- 3838454308&#45;&gt;739776489 -->
<g id="edge2" class="edge">
<title>3838454308&#45;&gt;739776489</title>
<path fill="none" stroke="blue" d="M331.67,-190.61C326.26,-178.5 318.78,-161.77 312.56,-147.86"/>
<polygon fill="blue" stroke="blue" points="315.58,-146.04 308.3,-138.34 309.19,-148.9 315.58,-146.04"/>
<text text-anchor="middle" x="331.5" y="-160.8" font-family="Times,serif" font-size="14.00">yes</text>
</g>
<!-- 739776489&#45;&gt;575014105 -->
<g id="edge4" class="edge">
<title>739776489&#45;&gt;575014105</title>
<path fill="none" stroke="blue" d="M295.61,-138.76C289.73,-159.48 282.04,-195.71 289,-226 301.68,-281.22 343.7,-334.32 369.68,-363.01"/>
<polygon fill="blue" stroke="blue" points="367.19,-365.47 376.55,-370.44 372.33,-360.72 367.19,-365.47"/>
<text text-anchor="middle" x="296" y="-204.3" font-family="Times,serif" font-size="14.00">no</text>
</g>
<!-- 739776489&#45;&gt;739776489 -->
<g id="edge5" class="edge">
<title>739776489&#45;&gt;739776489</title>
<path fill="none" stroke="blue" d="M325.53,-128.75C336.51,-129.49 346,-126.91 346,-121 346,-117.03 341.72,-114.56 335.57,-113.59"/>
<polygon fill="blue" stroke="blue" points="335.65,-110.09 325.53,-113.25 335.41,-117.09 335.65,-110.09"/>
<text text-anchor="middle" x="378.5" y="-117.3" font-family="Times,serif" font-size="14.00">no_trasition</text>
</g>
<!-- 736101806 -->
<g id="node4" class="node">
<title>736101806</title>
<ellipse fill="none" stroke="black" cx="301" cy="-34" rx="27" ry="18"/>
<text text-anchor="middle" x="301" y="-30.3" font-family="Times,serif" font-size="14.00">3</text>
</g>
<!-- 739776489&#45;&gt;736101806 -->
<g id="edge3" class="edge">
<title>739776489&#45;&gt;736101806</title>
<path fill="none" stroke="blue" d="M301,-102.8C301,-91.16 301,-75.55 301,-62.24"/>
<polygon fill="blue" stroke="blue" points="304.5,-62.18 301,-52.18 297.5,-62.18 304.5,-62.18"/>
<text text-anchor="middle" x="310.5" y="-73.8" font-family="Times,serif" font-size="14.00">yes</text>
</g>
<!-- 2009994374&#45;&gt;2009994374 -->
<g id="edge11" class="edge">
<title>2009994374&#45;&gt;2009994374</title>
<path fill="none" stroke="blue" d="M158.53,-215.75C169.51,-216.49 179,-213.91 179,-208 179,-204.03 174.72,-201.56 168.57,-200.59"/>
<polygon fill="blue" stroke="blue" points="168.65,-197.09 158.53,-200.25 168.41,-204.09 168.65,-197.09"/>
<text text-anchor="middle" x="211.5" y="-204.3" font-family="Times,serif" font-size="14.00">no_trasition</text>
</g>
<!-- 491390045 -->
<g id="node6" class="node">
<title>491390045</title>
<ellipse fill="none" stroke="black" cx="66" cy="-121" rx="27" ry="18"/>
<text text-anchor="middle" x="66" y="-117.3" font-family="Times,serif" font-size="14.00">5</text>
</g>
<!-- 2009994374&#45;&gt;491390045 -->
<g id="edge9" class="edge">
<title>2009994374&#45;&gt;491390045</title>
<path fill="none" stroke="blue" d="M121.84,-191.8C111.56,-178.95 96.65,-160.32 84.83,-145.54"/>
<polygon fill="blue" stroke="blue" points="87.26,-142.97 78.28,-137.35 81.79,-147.35 87.26,-142.97"/>
<text text-anchor="middle" x="114" y="-160.8" font-family="Times,serif" font-size="14.00">OK</text>
</g>
<!-- 491390045&#45;&gt;575014105 -->
<g id="edge10" class="edge">
<title>491390045&#45;&gt;575014105</title>
<path fill="none" stroke="black" d="M55.73,-137.73C43.08,-159.29 25.31,-198.46 43,-226 113.33,-335.46 279.75,-370.5 354.06,-380.92"/>
<polygon fill="black" stroke="black" points="353.96,-384.44 364.33,-382.29 354.88,-377.5 353.96,-384.44"/>
<text text-anchor="middle" x="70.5" y="-204.3" font-family="Times,serif" font-size="14.00">add_entry</text>
</g>
<!-- 52369220&#45;&gt;52369220 -->
<g id="edge15" class="edge">
<title>52369220&#45;&gt;52369220</title>
<path fill="none" stroke="blue" d="M828.53,-215.75C839.51,-216.49 849,-213.91 849,-208 849,-204.03 844.72,-201.56 838.57,-200.59"/>
<polygon fill="blue" stroke="blue" points="838.65,-197.09 828.53,-200.25 838.41,-204.09 838.65,-197.09"/>
<text text-anchor="middle" x="881.5" y="-204.3" font-family="Times,serif" font-size="14.00">no_trasition</text>
</g>
<!-- 761267644 -->
<g id="node8" class="node">
<title>761267644</title>
<ellipse fill="none" stroke="black" cx="877" cy="-121" rx="27" ry="18"/>
<text text-anchor="middle" x="877" y="-117.3" font-family="Times,serif" font-size="14.00">7</text>
</g>
<!-- 52369220&#45;&gt;761267644 -->
<g id="edge13" class="edge">
<title>52369220&#45;&gt;761267644</title>
<path fill="none" stroke="blue" d="M817.05,-191.8C828.26,-178.75 844.59,-159.74 857.38,-144.85"/>
<polygon fill="blue" stroke="blue" points="860.2,-146.93 864.06,-137.06 854.89,-142.37 860.2,-146.93"/>
<text text-anchor="middle" x="854" y="-160.8" font-family="Times,serif" font-size="14.00">OK</text>
</g>
<!-- 761267644&#45;&gt;575014105 -->
<g id="edge14" class="edge">
<title>761267644&#45;&gt;575014105</title>
<path fill="none" stroke="black" d="M892.03,-136.17C912.51,-157.22 944.35,-197.34 923,-226 861.92,-308.01 536.7,-363.29 427.09,-379.82"/>
<polygon fill="black" stroke="black" points="426.55,-376.36 417.18,-381.3 427.58,-383.29 426.55,-376.36"/>
<text text-anchor="middle" x="967.5" y="-204.3" font-family="Times,serif" font-size="14.00">modify_entry</text>
</g>
<!-- 3041929165&#45;&gt;575014105 -->
<g id="edge17" class="edge">
<title>3041929165&#45;&gt;575014105</title>
<path fill="none" stroke="blue" d="M487.5,-225.52C483.42,-235.41 477.83,-248.14 472,-259 452.16,-295.93 425.19,-336.31 407.93,-361.16"/>
<polygon fill="blue" stroke="blue" points="404.91,-359.37 402.05,-369.57 410.65,-363.38 404.91,-359.37"/>
<text text-anchor="middle" x="489" y="-247.8" font-family="Times,serif" font-size="14.00">OK</text>
</g>
<!-- 3041929165&#45;&gt;3041929165 -->
<g id="edge18" class="edge">
<title>3041929165&#45;&gt;3041929165</title>
<path fill="none" stroke="blue" d="M518.53,-215.75C529.51,-216.49 539,-213.91 539,-208 539,-204.03 534.72,-201.56 528.57,-200.59"/>
<polygon fill="blue" stroke="blue" points="528.65,-197.09 518.53,-200.25 528.41,-204.09 528.65,-197.09"/>
<text text-anchor="middle" x="571.5" y="-204.3" font-family="Times,serif" font-size="14.00">no_trasition</text>
</g>
<!-- 1646078307&#45;&gt;575014105 -->
<g id="edge20" class="edge">
<title>1646078307&#45;&gt;575014105</title>
<path fill="none" stroke="blue" d="M653.27,-225.99C654.88,-236.29 655.07,-249.28 649,-259 599.81,-337.77 485.56,-368.63 427.01,-379.58"/>
<polygon fill="blue" stroke="blue" points="426.32,-376.15 417.09,-381.35 427.55,-383.04 426.32,-376.15"/>
<text text-anchor="middle" x="663" y="-247.8" font-family="Times,serif" font-size="14.00">OK</text>
</g>
<!-- 1646078307&#45;&gt;1646078307 -->
<g id="edge21" class="edge">
<title>1646078307&#45;&gt;1646078307</title>
<path fill="none" stroke="blue" d="M673.53,-215.75C684.51,-216.49 694,-213.91 694,-208 694,-204.03 689.72,-201.56 683.57,-200.59"/>
<polygon fill="blue" stroke="blue" points="683.65,-197.09 673.53,-200.25 683.41,-204.09 683.65,-197.09"/>
<text text-anchor="middle" x="726.5" y="-204.3" font-family="Times,serif" font-size="14.00">no_trasition</text>
</g>
<!-- all_node -->
<g id="node11" class="node">
<title>all_node</title>
<polygon fill="none" stroke="black" points="1057,-470 1057,-491 1757,-491 1757,-470 1057,-470"/>
<text text-anchor="start" x="1060" y="-476.8" font-family="Times,serif" font-size="14.00">0 &#45;&#45; exe&#45;todo.Main</text>
<polygon fill="none" stroke="black" points="1057,-449 1057,-470 1757,-470 1757,-449 1057,-449"/>
<text text-anchor="start" x="1060" y="-455.8" font-family="Times,serif" font-size="14.00">1 &#45;&#45; generic.AreYouSure((function &#39;Todo&#39;),generic.AreYouSure((function &#39;Todo&#39;),polystate.Exit,exe&#45;todo.Main),exe&#45;todo.Main)</text>
<polygon fill="none" stroke="black" points="1057,-428 1057,-449 1757,-449 1757,-428 1057,-428"/>
<text text-anchor="start" x="1060" y="-434.8" font-family="Times,serif" font-size="14.00">2 &#45;&#45; generic.AreYouSure((function &#39;Todo&#39;),polystate.Exit,exe&#45;todo.Main)</text>
<polygon fill="none" stroke="black" points="1057,-407 1057,-428 1757,-428 1757,-407 1057,-407"/>
<text text-anchor="start" x="1060" y="-413.8" font-family="Times,serif" font-size="14.00">3 &#45;&#45; polystate.Exit</text>
<polygon fill="none" stroke="black" points="1057,-386 1057,-407 1757,-407 1757,-386 1057,-386"/>
<text text-anchor="start" x="1060" y="-392.8" font-family="Times,serif" font-size="14.00">4 &#45;&#45; generic.Action((function &#39;Todo&#39;),exe&#45;todo.Add,exe&#45;todo.Add)</text>
<polygon fill="none" stroke="black" points="1057,-365 1057,-386 1757,-386 1757,-365 1057,-365"/>
<text text-anchor="start" x="1060" y="-371.8" font-family="Times,serif" font-size="14.00">5 &#45;&#45; exe&#45;todo.Add</text>
<polygon fill="none" stroke="black" points="1057,-344 1057,-365 1757,-365 1757,-344 1057,-344"/>
<text text-anchor="start" x="1060" y="-350.8" font-family="Times,serif" font-size="14.00">6 &#45;&#45; generic.Action((function &#39;Todo&#39;),exe&#45;todo.Modify,exe&#45;todo.Modify)</text>
<polygon fill="none" stroke="black" points="1057,-323 1057,-344 1757,-344 1757,-323 1057,-323"/>
<text text-anchor="start" x="1060" y="-329.8" font-family="Times,serif" font-size="14.00">7 &#45;&#45; exe&#45;todo.Modify</text>
<polygon fill="none" stroke="black" points="1057,-302 1057,-323 1757,-323 1757,-302 1057,-302"/>
<text text-anchor="start" x="1060" y="-308.8" font-family="Times,serif" font-size="14.00">8 &#45;&#45; generic.Action((function &#39;Todo&#39;),generic.Action((function &#39;Todo&#39;),polystate.Exit,polystate.Exit),exe&#45;todo.Main)</text>
<polygon fill="none" stroke="black" points="1057,-281 1057,-302 1757,-302 1757,-281 1057,-281"/>
<text text-anchor="start" x="1060" y="-287.8" font-family="Times,serif" font-size="14.00">9 &#45;&#45; generic.Action((function &#39;Todo&#39;),generic.AreYouSure((function &#39;Todo&#39;),polystate.Exit,polystate.Exit),exe&#45;todo.Main)</text>
</g>
</g>
</svg>
