<?xml version="1.0" encoding="UTF-8" standalone="no"?>
<!DOCTYPE svg PUBLIC "-//W3C//DTD SVG 1.1//EN"
 "http://www.w3.org/Graphics/SVG/1.1/DTD/svg11.dtd">
<!-- Generated by graphviz version 2.43.0 (0)
 -->
<!-- Title: G Pages: 1 -->
<svg width="636pt" height="392pt"
 viewBox="0.00 0.00 636.08 392.00" xmlns="http://www.w3.org/2000/svg" xmlns:xlink="http://www.w3.org/1999/xlink">
<g id="graph0" class="graph" transform="scale(1 1) rotate(0) translate(4 388)">
<title>G</title>
<polygon fill="white" stroke="transparent" points="-4,4 -4,-388 632.08,-388 632.08,4 -4,4"/>
<!-- 427164665 -->
<g id="node1" class="node">
<title>427164665</title>
<ellipse fill="none" stroke="black" cx="428.09" cy="-366" rx="50.89" ry="18"/>
<text text-anchor="middle" x="428.09" y="-362.3" font-family="Times,serif" font-size="14.00">action(add)</text>
</g>
<!-- 38928682 -->
<g id="node4" class="node">
<title>38928682</title>
<ellipse fill="none" stroke="black" cx="428.09" cy="-279" rx="27" ry="18"/>
<text text-anchor="middle" x="428.09" y="-275.3" font-family="Times,serif" font-size="14.00">add</text>
</g>
<!-- 427164665&#45;&gt;38928682 -->
<g id="edge5" class="edge">
<title>427164665&#45;&gt;38928682</title>
<path fill="none" stroke="black" d="M428.09,-347.8C428.09,-336.16 428.09,-320.55 428.09,-307.24"/>
<polygon fill="black" stroke="black" points="431.59,-307.18 428.09,-297.18 424.59,-307.18 431.59,-307.18"/>
<text text-anchor="middle" x="438.09" y="-318.8" font-family="Times,serif" font-size="14.00">OK</text>
</g>
<!-- 71696827 -->
<g id="node2" class="node">
<title>71696827</title>
<ellipse fill="none" stroke="black" cx="100.09" cy="-18" rx="27" ry="18"/>
<text text-anchor="middle" x="100.09" y="-14.3" font-family="Times,serif" font-size="14.00">exit</text>
</g>
<!-- 68878758 -->
<g id="node3" class="node">
<title>68878758</title>
<ellipse fill="none" stroke="black" cx="359.09" cy="-192" rx="28.7" ry="18"/>
<text text-anchor="middle" x="359.09" y="-188.3" font-family="Times,serif" font-size="14.00">main</text>
</g>
<!-- 68878758&#45;&gt;427164665 -->
<g id="edge4" class="edge">
<title>68878758&#45;&gt;427164665</title>
<path fill="none" stroke="black" d="M357.4,-209.99C355.97,-231.25 355.82,-268.35 368.09,-297 375.48,-314.26 389.01,-330.19 401.35,-342.29"/>
<polygon fill="black" stroke="black" points="399.13,-345.01 408.81,-349.31 403.92,-339.91 399.13,-345.01"/>
<text text-anchor="middle" x="380.09" y="-275.3" font-family="Times,serif" font-size="14.00">Add</text>
</g>
<!-- 68878758&#45;&gt;68878758 -->
<g id="edge7" class="edge">
<title>68878758&#45;&gt;68878758</title>
<path fill="none" stroke="black" d="M384.97,-199.78C396.13,-200.42 405.69,-197.82 405.69,-192 405.69,-188.09 401.37,-185.63 395.16,-184.64"/>
<polygon fill="black" stroke="black" points="395.1,-181.13 384.97,-184.22 394.82,-188.12 395.1,-181.13"/>
<text text-anchor="middle" x="423.69" y="-188.3" font-family="Times,serif" font-size="14.00">Delete</text>
</g>
<!-- 692323672 -->
<g id="node5" class="node">
<title>692323672</title>
<ellipse fill="none" stroke="black" cx="282.09" cy="-105" rx="63.89" ry="18"/>
<text text-anchor="middle" x="282.09" y="-101.3" font-family="Times,serif" font-size="14.00">action(modify)</text>
</g>
<!-- 68878758&#45;&gt;692323672 -->
<g id="edge8" class="edge">
<title>68878758&#45;&gt;692323672</title>
<path fill="none" stroke="black" d="M344.85,-176.12C338.99,-169.94 332.17,-162.67 326.09,-156 318.62,-147.79 310.56,-138.71 303.41,-130.56"/>
<polygon fill="black" stroke="black" points="305.83,-128.02 296.62,-122.79 300.56,-132.63 305.83,-128.02"/>
<text text-anchor="middle" x="347.09" y="-144.8" font-family="Times,serif" font-size="14.00">Modify</text>
</g>
<!-- 1217988296 -->
<g id="node7" class="node">
<title>1217988296</title>
<ellipse fill="none" stroke="black" cx="550.09" cy="-105" rx="77.99" ry="18"/>
<text text-anchor="middle" x="550.09" y="-101.3" font-family="Times,serif" font-size="14.00">action(action(add))</text>
</g>
<!-- 68878758&#45;&gt;1217988296 -->
<g id="edge11" class="edge">
<title>68878758&#45;&gt;1217988296</title>
<path fill="none" stroke="black" d="M377.35,-177.92C393.31,-166.94 417.41,-151.41 440.09,-141 456.08,-133.66 474.03,-127.24 490.73,-121.97"/>
<polygon fill="black" stroke="black" points="491.85,-125.28 500.39,-119 489.8,-118.59 491.85,-125.28"/>
<text text-anchor="middle" x="461.59" y="-144.8" font-family="Times,serif" font-size="14.00">Add_M</text>
</g>
<!-- 2006583567 -->
<g id="node8" class="node">
<title>2006583567</title>
<ellipse fill="none" stroke="black" cx="100.09" cy="-105" rx="100.18" ry="18"/>
<text text-anchor="middle" x="100.09" y="-101.3" font-family="Times,serif" font-size="14.00">are_you_sure(exit, main)</text>
</g>
<!-- 68878758&#45;&gt;2006583567 -->
<g id="edge1" class="edge">
<title>68878758&#45;&gt;2006583567</title>
<path fill="none" stroke="black" d="M331.28,-187.53C297.95,-182.81 240.73,-172.97 194.09,-156 173.87,-148.64 152.59,-137.63 135.41,-127.82"/>
<polygon fill="black" stroke="black" points="136.72,-124.53 126.32,-122.52 133.19,-130.58 136.72,-124.53"/>
<text text-anchor="middle" x="205.59" y="-144.8" font-family="Times,serif" font-size="14.00">Exit</text>
</g>
<!-- 38928682&#45;&gt;68878758 -->
<g id="edge6" class="edge">
<title>38928682&#45;&gt;68878758</title>
<path fill="none" stroke="black" d="M415.76,-262.8C405.22,-249.83 389.91,-230.97 377.86,-216.12"/>
<polygon fill="black" stroke="black" points="380.57,-213.91 371.55,-208.35 375.14,-218.32 380.57,-213.91"/>
<text text-anchor="middle" x="425.09" y="-231.8" font-family="Times,serif" font-size="14.00">AddEntry</text>
</g>
<!-- 147784329 -->
<g id="node6" class="node">
<title>147784329</title>
<ellipse fill="none" stroke="black" cx="348.09" cy="-18" rx="36.29" ry="18"/>
<text text-anchor="middle" x="348.09" y="-14.3" font-family="Times,serif" font-size="14.00">modify</text>
</g>
<!-- 692323672&#45;&gt;147784329 -->
<g id="edge9" class="edge">
<title>692323672&#45;&gt;147784329</title>
<path fill="none" stroke="black" d="M295.13,-87.21C304.84,-74.71 318.23,-57.45 329.12,-43.43"/>
<polygon fill="black" stroke="black" points="332.16,-45.23 335.53,-35.18 326.63,-40.93 332.16,-45.23"/>
<text text-anchor="middle" x="329.09" y="-57.8" font-family="Times,serif" font-size="14.00">OK</text>
</g>
<!-- 147784329&#45;&gt;68878758 -->
<g id="edge10" class="edge">
<title>147784329&#45;&gt;68878758</title>
<path fill="none" stroke="black" d="M353.51,-35.84C361.16,-61.66 373.58,-112.6 368.09,-156 367.75,-158.71 367.26,-161.51 366.69,-164.29"/>
<polygon fill="black" stroke="black" points="363.27,-163.54 364.36,-174.08 370.08,-165.16 363.27,-163.54"/>
<text text-anchor="middle" x="406.09" y="-101.3" font-family="Times,serif" font-size="14.00">ModifyEntry</text>
</g>
<!-- 1217988296&#45;&gt;427164665 -->
<g id="edge12" class="edge">
<title>1217988296&#45;&gt;427164665</title>
<path fill="none" stroke="black" d="M543.88,-123.1C529.75,-161.28 493.19,-255.96 452.09,-330 450.27,-333.29 448.22,-336.65 446.1,-339.93"/>
<polygon fill="black" stroke="black" points="443.14,-338.07 440.47,-348.32 448.95,-341.97 443.14,-338.07"/>
<text text-anchor="middle" x="511.09" y="-231.8" font-family="Times,serif" font-size="14.00">OK</text>
</g>
<!-- 2006583567&#45;&gt;71696827 -->
<g id="edge2" class="edge">
<title>2006583567&#45;&gt;71696827</title>
<path fill="none" stroke="black" d="M100.09,-86.8C100.09,-75.16 100.09,-59.55 100.09,-46.24"/>
<polygon fill="black" stroke="black" points="103.59,-46.18 100.09,-36.18 96.59,-46.18 103.59,-46.18"/>
<text text-anchor="middle" x="110.59" y="-57.8" font-family="Times,serif" font-size="14.00">Yes</text>
</g>
<!-- 2006583567&#45;&gt;68878758 -->
<g id="edge3" class="edge">
<title>2006583567&#45;&gt;68878758</title>
<path fill="none" stroke="black" d="M150.65,-120.55C171.32,-126.65 195.42,-133.95 217.09,-141 254.44,-153.15 296.87,-168.27 325.55,-178.68"/>
<polygon fill="black" stroke="black" points="324.5,-182.02 335.09,-182.15 326.89,-175.44 324.5,-182.02"/>
<text text-anchor="middle" x="269.59" y="-144.8" font-family="Times,serif" font-size="14.00">No</text>
</g>
</g>
</svg>
