<?xml version="1.0" encoding="UTF-8" standalone="no"?>
<!DOCTYPE svg PUBLIC "-//W3C//DTD SVG 1.1//EN"
 "http://www.w3.org/Graphics/SVG/1.1/DTD/svg11.dtd">
<!-- Generated by graphviz version 2.43.0 (0)
 -->
<!-- Title: fsm_state_graph Pages: 1 -->
<svg width="1591pt" height="542pt"
 viewBox="0.00 0.00 1591.00 542.00" xmlns="http://www.w3.org/2000/svg" xmlns:xlink="http://www.w3.org/1999/xlink">
<g id="graph0" class="graph" transform="scale(1 1) rotate(0) translate(4 538)">
<title>fsm_state_graph</title>
<polygon fill="white" stroke="transparent" points="-4,4 -4,-538 1587,-538 1587,4 -4,4"/>
<g id="clust1" class="cluster">
<title>cluster_transitions</title>
<polygon fill="none" stroke="black" points="8,-8 8,-435 1033,-435 1033,-8 8,-8"/>
<text text-anchor="middle" x="520.5" y="-419.8" font-family="Times,serif" font-size="14.00">State transitions for Todo</text>
</g>
<g id="clust2" class="cluster">
<title>cluster_names</title>
<polygon fill="none" stroke="black" points="1041,-269 1041,-526 1575,-526 1575,-269 1041,-269"/>
<text text-anchor="middle" x="1308" y="-510.8" font-family="Times,serif" font-size="14.00">State names for Todo</text>
</g>
<!-- 0 -->
<g id="node1" class="node">
<title>0</title>
<ellipse fill="none" stroke="black" cx="450" cy="-386" rx="27" ry="18"/>
<text text-anchor="middle" x="450" y="-382.3" font-family="Times,serif" font-size="14.00">0</text>
</g>
<!-- 0&#45;&gt;0 -->
<g id="edge6" class="edge">
<title>0&#45;&gt;0</title>
<path fill="none" stroke="blue" d="M461.07,-402.73C476.32,-418.01 495,-412.43 495,-386 495,-364.11 482.19,-356.52 469.13,-363.24"/>
<polygon fill="blue" stroke="blue" points="466.98,-360.48 461.07,-369.27 471.17,-366.08 466.98,-360.48"/>
<text text-anchor="middle" x="527.5" y="-382.3" font-family="Times,serif" font-size="14.00">no_trasition</text>
</g>
<!-- 1 -->
<g id="node2" class="node">
<title>1</title>
<ellipse fill="none" stroke="black" cx="649" cy="-208" rx="27" ry="18"/>
<text text-anchor="middle" x="649" y="-204.3" font-family="Times,serif" font-size="14.00">1</text>
</g>
<!-- 0&#45;&gt;1 -->
<g id="edge1" class="edge">
<title>0&#45;&gt;1</title>
<path fill="none" stroke="blue" d="M465.62,-371.19C500.49,-340.35 584.86,-265.73 625.86,-229.46"/>
<polygon fill="blue" stroke="blue" points="628.29,-231.99 633.46,-222.75 623.65,-226.75 628.29,-231.99"/>
<text text-anchor="middle" x="616.5" y="-247.8" font-family="Times,serif" font-size="14.00">exit</text>
</g>
<!-- 4 -->
<g id="node3" class="node">
<title>4</title>
<ellipse fill="none" stroke="black" cx="134" cy="-208" rx="27" ry="18"/>
<text text-anchor="middle" x="134" y="-204.3" font-family="Times,serif" font-size="14.00">4</text>
</g>
<!-- 0&#45;&gt;4 -->
<g id="edge2" class="edge">
<title>0&#45;&gt;4</title>
<path fill="none" stroke="blue" d="M429.75,-373.72C375.46,-343.49 226.49,-260.52 163.14,-225.23"/>
<polygon fill="blue" stroke="blue" points="164.52,-221.99 154.08,-220.18 161.11,-228.11 164.52,-221.99"/>
<text text-anchor="middle" x="228" y="-247.8" font-family="Times,serif" font-size="14.00">add</text>
</g>
<!-- 6 -->
<g id="node4" class="node">
<title>6</title>
<ellipse fill="none" stroke="black" cx="804" cy="-208" rx="27" ry="18"/>
<text text-anchor="middle" x="804" y="-204.3" font-family="Times,serif" font-size="14.00">6</text>
</g>
<!-- 0&#45;&gt;6 -->
<g id="edge3" class="edge">
<title>0&#45;&gt;6</title>
<path fill="none" stroke="blue" d="M471.08,-374.52C531.22,-344.62 703.73,-258.85 773.84,-224"/>
<polygon fill="blue" stroke="blue" points="775.63,-227.01 783.03,-219.43 772.51,-220.75 775.63,-227.01"/>
<text text-anchor="middle" x="747" y="-247.8" font-family="Times,serif" font-size="14.00">modify</text>
</g>
<!-- 8 -->
<g id="node5" class="node">
<title>8</title>
<ellipse fill="none" stroke="black" cx="339" cy="-208" rx="27" ry="18"/>
<text text-anchor="middle" x="339" y="-204.3" font-family="Times,serif" font-size="14.00">8</text>
</g>
<!-- 0&#45;&gt;8 -->
<g id="edge4" class="edge">
<title>0&#45;&gt;8</title>
<path fill="none" stroke="blue" d="M428.9,-374.4C395.27,-356.16 330.66,-315.29 305,-259 300.22,-248.51 305.8,-237.82 313.73,-229.03"/>
<polygon fill="blue" stroke="blue" points="316.38,-231.33 321.1,-221.85 311.49,-226.32 316.38,-231.33"/>
<text text-anchor="middle" x="345" y="-247.8" font-family="Times,serif" font-size="14.00">modify_action</text>
</g>
<!-- 9 -->
<g id="node6" class="node">
<title>9</title>
<ellipse fill="none" stroke="black" cx="494" cy="-208" rx="27" ry="18"/>
<text text-anchor="middle" x="494" y="-204.3" font-family="Times,serif" font-size="14.00">9</text>
</g>
<!-- 0&#45;&gt;9 -->
<g id="edge5" class="edge">
<title>0&#45;&gt;9</title>
<path fill="none" stroke="blue" d="M445.67,-367.9C439.61,-340.28 431.41,-284.83 451,-244 454.26,-237.2 459.56,-231.28 465.34,-226.34"/>
<polygon fill="blue" stroke="blue" points="467.53,-229.07 473.37,-220.23 463.29,-223.5 467.53,-229.07"/>
<text text-anchor="middle" x="506.5" y="-247.8" font-family="Times,serif" font-size="14.00">modify_areYouSure</text>
</g>
<!-- 1&#45;&gt;0 -->
<g id="edge8" class="edge">
<title>1&#45;&gt;0</title>
<path fill="none" stroke="blue" d="M645.64,-226.03C642.96,-236.34 638.41,-249.34 631,-259 590.35,-312.02 521.01,-351.31 480.99,-370.94"/>
<polygon fill="blue" stroke="blue" points="479.45,-367.8 471.96,-375.29 482.49,-374.11 479.45,-367.8"/>
<text text-anchor="middle" x="646" y="-247.8" font-family="Times,serif" font-size="14.00">no</text>
</g>
<!-- 1&#45;&gt;1 -->
<g id="edge9" class="edge">
<title>1&#45;&gt;1</title>
<path fill="none" stroke="blue" d="M673.53,-215.75C684.51,-216.49 694,-213.91 694,-208 694,-204.03 689.72,-201.56 683.57,-200.59"/>
<polygon fill="blue" stroke="blue" points="683.65,-197.09 673.53,-200.25 683.41,-204.09 683.65,-197.09"/>
<text text-anchor="middle" x="726.5" y="-204.3" font-family="Times,serif" font-size="14.00">no_trasition</text>
</g>
<!-- 2 -->
<g id="node7" class="node">
<title>2</title>
<ellipse fill="none" stroke="black" cx="378" cy="-121" rx="27" ry="18"/>
<text text-anchor="middle" x="378" y="-117.3" font-family="Times,serif" font-size="14.00">2</text>
</g>
<!-- 1&#45;&gt;2 -->
<g id="edge7" class="edge">
<title>1&#45;&gt;2</title>
<path fill="none" stroke="blue" d="M627.92,-196.36C623.08,-194.11 617.91,-191.86 613,-190 543.56,-163.75 459.4,-141.65 412.98,-130.26"/>
<polygon fill="blue" stroke="blue" points="413.67,-126.83 403.12,-127.87 412.02,-133.63 413.67,-126.83"/>
<text text-anchor="middle" x="564.5" y="-160.8" font-family="Times,serif" font-size="14.00">yes</text>
</g>
<!-- 4&#45;&gt;4 -->
<g id="edge14" class="edge">
<title>4&#45;&gt;4</title>
<path fill="none" stroke="blue" d="M158.53,-215.75C169.51,-216.49 179,-213.91 179,-208 179,-204.03 174.72,-201.56 168.57,-200.59"/>
<polygon fill="blue" stroke="blue" points="168.65,-197.09 158.53,-200.25 168.41,-204.09 168.65,-197.09"/>
<text text-anchor="middle" x="211.5" y="-204.3" font-family="Times,serif" font-size="14.00">no_trasition</text>
</g>
<!-- 5 -->
<g id="node9" class="node">
<title>5</title>
<ellipse fill="none" stroke="black" cx="66" cy="-121" rx="27" ry="18"/>
<text text-anchor="middle" x="66" y="-117.3" font-family="Times,serif" font-size="14.00">5</text>
</g>
<!-- 4&#45;&gt;5 -->
<g id="edge13" class="edge">
<title>4&#45;&gt;5</title>
<path fill="none" stroke="blue" d="M121.84,-191.8C111.56,-178.95 96.65,-160.32 84.83,-145.54"/>
<polygon fill="blue" stroke="blue" points="87.26,-142.97 78.28,-137.35 81.79,-147.35 87.26,-142.97"/>
<text text-anchor="middle" x="114" y="-160.8" font-family="Times,serif" font-size="14.00">OK</text>
</g>
<!-- 6&#45;&gt;6 -->
<g id="edge17" class="edge">
<title>6&#45;&gt;6</title>
<path fill="none" stroke="blue" d="M828.53,-215.75C839.51,-216.49 849,-213.91 849,-208 849,-204.03 844.72,-201.56 838.57,-200.59"/>
<polygon fill="blue" stroke="blue" points="838.65,-197.09 828.53,-200.25 838.41,-204.09 838.65,-197.09"/>
<text text-anchor="middle" x="881.5" y="-204.3" font-family="Times,serif" font-size="14.00">no_trasition</text>
</g>
<!-- 7 -->
<g id="node10" class="node">
<title>7</title>
<ellipse fill="none" stroke="black" cx="877" cy="-121" rx="27" ry="18"/>
<text text-anchor="middle" x="877" y="-117.3" font-family="Times,serif" font-size="14.00">7</text>
</g>
<!-- 6&#45;&gt;7 -->
<g id="edge16" class="edge">
<title>6&#45;&gt;7</title>
<path fill="none" stroke="blue" d="M817.05,-191.8C828.26,-178.75 844.59,-159.74 857.38,-144.85"/>
<polygon fill="blue" stroke="blue" points="860.2,-146.93 864.06,-137.06 854.89,-142.37 860.2,-146.93"/>
<text text-anchor="middle" x="854" y="-160.8" font-family="Times,serif" font-size="14.00">OK</text>
</g>
<!-- 8&#45;&gt;0 -->
<g id="edge19" class="edge">
<title>8&#45;&gt;0</title>
<path fill="none" stroke="blue" d="M358.69,-220.81C367.59,-226.88 377.72,-234.92 385,-244 413.07,-278.98 432.11,-328.05 442,-358.12"/>
<polygon fill="blue" stroke="blue" points="438.75,-359.44 445.12,-367.91 445.42,-357.32 438.75,-359.44"/>
<text text-anchor="middle" x="404" y="-247.8" font-family="Times,serif" font-size="14.00">OK</text>
</g>
<!-- 8&#45;&gt;8 -->
<g id="edge20" class="edge">
<title>8&#45;&gt;8</title>
<path fill="none" stroke="blue" d="M363.53,-215.75C374.51,-216.49 384,-213.91 384,-208 384,-204.03 379.72,-201.56 373.57,-200.59"/>
<polygon fill="blue" stroke="blue" points="373.65,-197.09 363.53,-200.25 373.41,-204.09 373.65,-197.09"/>
<text text-anchor="middle" x="416.5" y="-204.3" font-family="Times,serif" font-size="14.00">no_trasition</text>
</g>
<!-- 9&#45;&gt;0 -->
<g id="edge21" class="edge">
<title>9&#45;&gt;0</title>
<path fill="none" stroke="blue" d="M519.3,-214.92C534.54,-219.93 552.73,-228.81 562,-244 565.47,-249.69 564.37,-252.77 562,-259 544.84,-304.12 503.3,-343.4 475.92,-365.64"/>
<polygon fill="blue" stroke="blue" points="473.58,-363.03 467.92,-371.98 477.93,-368.51 473.58,-363.03"/>
<text text-anchor="middle" x="574" y="-247.8" font-family="Times,serif" font-size="14.00">OK</text>
</g>
<!-- 9&#45;&gt;9 -->
<g id="edge22" class="edge">
<title>9&#45;&gt;9</title>
<path fill="none" stroke="blue" d="M518.53,-215.75C529.51,-216.49 539,-213.91 539,-208 539,-204.03 534.72,-201.56 528.57,-200.59"/>
<polygon fill="blue" stroke="blue" points="528.65,-197.09 518.53,-200.25 528.41,-204.09 528.65,-197.09"/>
<text text-anchor="middle" x="571.5" y="-204.3" font-family="Times,serif" font-size="14.00">no_trasition</text>
</g>
<!-- 2&#45;&gt;0 -->
<g id="edge11" class="edge">
<title>2&#45;&gt;0</title>
<path fill="none" stroke="blue" d="M356.06,-131.55C334.5,-142.28 302.88,-161.94 289,-190 281.91,-204.34 286.65,-210.17 289,-226 291.25,-241.16 290.54,-246.22 299,-259 331.18,-307.61 387.61,-347.43 421.62,-368.56"/>
<polygon fill="blue" stroke="blue" points="419.81,-371.55 430.17,-373.77 423.45,-365.57 419.81,-371.55"/>
<text text-anchor="middle" x="296" y="-204.3" font-family="Times,serif" font-size="14.00">no</text>
</g>
<!-- 2&#45;&gt;2 -->
<g id="edge12" class="edge">
<title>2&#45;&gt;2</title>
<path fill="none" stroke="blue" d="M402.53,-128.75C413.51,-129.49 423,-126.91 423,-121 423,-117.03 418.72,-114.56 412.57,-113.59"/>
<polygon fill="blue" stroke="blue" points="412.65,-110.09 402.53,-113.25 412.41,-117.09 412.65,-110.09"/>
<text text-anchor="middle" x="455.5" y="-117.3" font-family="Times,serif" font-size="14.00">no_trasition</text>
</g>
<!-- 3 -->
<g id="node8" class="node">
<title>3</title>
<ellipse fill="none" stroke="black" cx="378" cy="-34" rx="27" ry="18"/>
<text text-anchor="middle" x="378" y="-30.3" font-family="Times,serif" font-size="14.00">3</text>
</g>
<!-- 2&#45;&gt;3 -->
<g id="edge10" class="edge">
<title>2&#45;&gt;3</title>
<path fill="none" stroke="blue" d="M378,-102.8C378,-91.16 378,-75.55 378,-62.24"/>
<polygon fill="blue" stroke="blue" points="381.5,-62.18 378,-52.18 374.5,-62.18 381.5,-62.18"/>
<text text-anchor="middle" x="387.5" y="-73.8" font-family="Times,serif" font-size="14.00">yes</text>
</g>
<!-- 5&#45;&gt;0 -->
<g id="edge15" class="edge">
<title>5&#45;&gt;0</title>
<path fill="none" stroke="black" d="M55.51,-137.88C42.6,-159.6 24.54,-198.97 43,-226 128.75,-351.56 329.71,-377.97 412.91,-383.53"/>
<polygon fill="black" stroke="black" points="412.73,-387.02 422.92,-384.13 413.15,-380.03 412.73,-387.02"/>
<text text-anchor="middle" x="70.5" y="-204.3" font-family="Times,serif" font-size="14.00">add_entry</text>
</g>
<!-- 7&#45;&gt;0 -->
<g id="edge18" class="edge">
<title>7&#45;&gt;0</title>
<path fill="none" stroke="black" d="M891.9,-136.08C912.23,-157.01 943.86,-196.98 923,-226 819.64,-369.79 579.78,-385.33 487.3,-385.75"/>
<polygon fill="black" stroke="black" points="487.03,-382.25 477.02,-385.74 487.02,-389.25 487.03,-382.25"/>
<text text-anchor="middle" x="966.5" y="-204.3" font-family="Times,serif" font-size="14.00">modify_entry</text>
</g>
<!-- all_node -->
<g id="node11" class="node">
<title>all_node</title>
<polygon fill="none" stroke="black" points="1057,-470 1057,-491 1559,-491 1559,-470 1057,-470"/>
<text text-anchor="start" x="1060" y="-476.8" font-family="Times,serif" font-size="14.00"> 0 &#45;&#45; exe&#45;todo.Main </text>
<polygon fill="none" stroke="black" points="1057,-449 1057,-470 1559,-470 1559,-449 1057,-449"/>
<text text-anchor="start" x="1060" y="-455.8" font-family="Times,serif" font-size="14.00"> 1 &#45;&#45; generic.AreYouSure((function &#39;Todo&#39;),{2},{0}) </text>
<polygon fill="none" stroke="black" points="1057,-428 1057,-449 1559,-449 1559,-428 1057,-428"/>
<text text-anchor="start" x="1060" y="-434.8" font-family="Times,serif" font-size="14.00"> 2 &#45;&#45; generic.AreYouSure((function &#39;Todo&#39;),{3},{0}) </text>
<polygon fill="none" stroke="black" points="1057,-407 1057,-428 1559,-428 1559,-407 1057,-407"/>
<text text-anchor="start" x="1060" y="-413.8" font-family="Times,serif" font-size="14.00"> 3 &#45;&#45; polystate.Exit </text>
<polygon fill="none" stroke="black" points="1057,-386 1057,-407 1559,-407 1559,-386 1057,-386"/>
<text text-anchor="start" x="1060" y="-392.8" font-family="Times,serif" font-size="14.00"> 4 &#45;&#45; generic.Action((function &#39;Todo&#39;),{5},{5}) </text>
<polygon fill="none" stroke="black" points="1057,-365 1057,-386 1559,-386 1559,-365 1057,-365"/>
<text text-anchor="start" x="1060" y="-371.8" font-family="Times,serif" font-size="14.00"> 5 &#45;&#45; exe&#45;todo.Add </text>
<polygon fill="none" stroke="black" points="1057,-344 1057,-365 1559,-365 1559,-344 1057,-344"/>
<text text-anchor="start" x="1060" y="-350.8" font-family="Times,serif" font-size="14.00"> 6 &#45;&#45; generic.Action((function &#39;Todo&#39;),{7},{7}) </text>
<polygon fill="none" stroke="black" points="1057,-323 1057,-344 1559,-344 1559,-323 1057,-323"/>
<text text-anchor="start" x="1060" y="-329.8" font-family="Times,serif" font-size="14.00"> 7 &#45;&#45; exe&#45;todo.Modify </text>
<polygon fill="none" stroke="black" points="1057,-302 1057,-323 1559,-323 1559,-302 1057,-302"/>
<text text-anchor="start" x="1060" y="-308.8" font-family="Times,serif" font-size="14.00"> 8 &#45;&#45; generic.Action((function &#39;Todo&#39;),generic.Action((function &#39;Todo&#39;),{3},{3}),{0}) </text>
<polygon fill="none" stroke="black" points="1057,-281 1057,-302 1559,-302 1559,-281 1057,-281"/>
<text text-anchor="start" x="1060" y="-287.8" font-family="Times,serif" font-size="14.00"> 9 &#45;&#45; generic.Action((function &#39;Todo&#39;),generic.AreYouSure((function &#39;Todo&#39;),{3},{3}),{0}) </text>
</g>
</g>
</svg>
