<?xml version="1.0" encoding="UTF-8" standalone="no"?>
<!DOCTYPE svg PUBLIC "-//W3C//DTD SVG 1.1//EN"
 "http://www.w3.org/Graphics/SVG/1.1/DTD/svg11.dtd">
<!-- Generated by graphviz version 2.43.0 (0)
 -->
<!-- Title: G Pages: 1 -->
<svg width="490pt" height="392pt"
 viewBox="0.00 0.00 489.99 392.00" xmlns="http://www.w3.org/2000/svg" xmlns:xlink="http://www.w3.org/1999/xlink">
<g id="graph0" class="graph" transform="scale(1 1) rotate(0) translate(4 388)">
<title>G</title>
<polygon fill="white" stroke="transparent" points="-4,4 -4,-388 485.99,-388 485.99,4 -4,4"/>
<!-- 427164665 -->
<g id="node1" class="node">
<title>427164665</title>
<ellipse fill="none" stroke="black" cx="305" cy="-366" rx="50.89" ry="18"/>
<text text-anchor="middle" x="305" y="-362.3" font-family="Times,serif" font-size="14.00">action(add)</text>
</g>
<!-- 38928682 -->
<g id="node4" class="node">
<title>38928682</title>
<ellipse fill="none" stroke="black" cx="305" cy="-279" rx="27" ry="18"/>
<text text-anchor="middle" x="305" y="-275.3" font-family="Times,serif" font-size="14.00">add</text>
</g>
<!-- 427164665&#45;&gt;38928682 -->
<g id="edge3" class="edge">
<title>427164665&#45;&gt;38928682</title>
<path fill="none" stroke="black" d="M305,-347.8C305,-336.16 305,-320.55 305,-307.24"/>
<polygon fill="black" stroke="black" points="308.5,-307.18 305,-297.18 301.5,-307.18 308.5,-307.18"/>
<text text-anchor="middle" x="315" y="-318.8" font-family="Times,serif" font-size="14.00">OK</text>
</g>
<!-- 71696827 -->
<g id="node2" class="node">
<title>71696827</title>
<ellipse fill="none" stroke="black" cx="27" cy="-105" rx="27" ry="18"/>
<text text-anchor="middle" x="27" y="-101.3" font-family="Times,serif" font-size="14.00">exit</text>
</g>
<!-- 68878758 -->
<g id="node3" class="node">
<title>68878758</title>
<ellipse fill="none" stroke="black" cx="236" cy="-192" rx="28.7" ry="18"/>
<text text-anchor="middle" x="236" y="-188.3" font-family="Times,serif" font-size="14.00">main</text>
</g>
<!-- 68878758&#45;&gt;427164665 -->
<g id="edge2" class="edge">
<title>68878758&#45;&gt;427164665</title>
<path fill="none" stroke="black" d="M234.31,-209.99C232.88,-231.25 232.73,-268.35 245,-297 252.39,-314.26 265.92,-330.19 278.26,-342.29"/>
<polygon fill="black" stroke="black" points="276.04,-345.01 285.72,-349.31 280.83,-339.91 276.04,-345.01"/>
<text text-anchor="middle" x="257" y="-275.3" font-family="Times,serif" font-size="14.00">Add</text>
</g>
<!-- 68878758&#45;&gt;71696827 -->
<g id="edge1" class="edge">
<title>68878758&#45;&gt;71696827</title>
<path fill="none" stroke="black" d="M211.52,-182.65C191.81,-175.81 163.46,-165.71 139,-156 104.77,-142.41 96.54,-138.2 63,-123 61.21,-122.19 59.36,-121.34 57.51,-120.49"/>
<polygon fill="black" stroke="black" points="58.81,-117.23 48.27,-116.18 55.85,-123.58 58.81,-117.23"/>
<text text-anchor="middle" x="150.5" y="-144.8" font-family="Times,serif" font-size="14.00">Exit</text>
</g>
<!-- 68878758&#45;&gt;68878758 -->
<g id="edge5" class="edge">
<title>68878758&#45;&gt;68878758</title>
<path fill="none" stroke="black" d="M261.88,-199.78C273.04,-200.42 282.6,-197.82 282.6,-192 282.6,-188.09 278.28,-185.63 272.07,-184.64"/>
<polygon fill="black" stroke="black" points="272.01,-181.13 261.88,-184.22 271.72,-188.12 272.01,-181.13"/>
<text text-anchor="middle" x="300.6" y="-188.3" font-family="Times,serif" font-size="14.00">Delete</text>
</g>
<!-- 692323672 -->
<g id="node5" class="node">
<title>692323672</title>
<ellipse fill="none" stroke="black" cx="136" cy="-105" rx="63.89" ry="18"/>
<text text-anchor="middle" x="136" y="-101.3" font-family="Times,serif" font-size="14.00">action(modify)</text>
</g>
<!-- 68878758&#45;&gt;692323672 -->
<g id="edge6" class="edge">
<title>68878758&#45;&gt;692323672</title>
<path fill="none" stroke="black" d="M214.8,-179.71C203.88,-173.43 190.66,-165.05 180,-156 171.18,-148.51 162.54,-139.24 155.28,-130.73"/>
<polygon fill="black" stroke="black" points="157.85,-128.35 148.78,-122.88 152.46,-132.81 157.85,-128.35"/>
<text text-anchor="middle" x="201" y="-144.8" font-family="Times,serif" font-size="14.00">Modify</text>
</g>
<!-- 1217988296 -->
<g id="node7" class="node">
<title>1217988296</title>
<ellipse fill="none" stroke="black" cx="404" cy="-105" rx="77.99" ry="18"/>
<text text-anchor="middle" x="404" y="-101.3" font-family="Times,serif" font-size="14.00">action(action(add))</text>
</g>
<!-- 68878758&#45;&gt;1217988296 -->
<g id="edge9" class="edge">
<title>68878758&#45;&gt;1217988296</title>
<path fill="none" stroke="black" d="M254.78,-178.13C270.87,-167.42 294.87,-152.18 317,-141 328.93,-134.97 342.15,-129.22 354.61,-124.17"/>
<polygon fill="black" stroke="black" points="355.95,-127.4 363.96,-120.46 353.37,-120.9 355.95,-127.4"/>
<text text-anchor="middle" x="338.5" y="-144.8" font-family="Times,serif" font-size="14.00">Add_M</text>
</g>
<!-- 38928682&#45;&gt;68878758 -->
<g id="edge4" class="edge">
<title>38928682&#45;&gt;68878758</title>
<path fill="none" stroke="black" d="M292.66,-262.8C282.13,-249.83 266.82,-230.97 254.77,-216.12"/>
<polygon fill="black" stroke="black" points="257.48,-213.91 248.46,-208.35 252.05,-218.32 257.48,-213.91"/>
<text text-anchor="middle" x="302" y="-231.8" font-family="Times,serif" font-size="14.00">AddEntry</text>
</g>
<!-- 147784329 -->
<g id="node6" class="node">
<title>147784329</title>
<ellipse fill="none" stroke="black" cx="186" cy="-18" rx="36.29" ry="18"/>
<text text-anchor="middle" x="186" y="-14.3" font-family="Times,serif" font-size="14.00">modify</text>
</g>
<!-- 692323672&#45;&gt;147784329 -->
<g id="edge7" class="edge">
<title>692323672&#45;&gt;147784329</title>
<path fill="none" stroke="black" d="M145.88,-87.21C153.12,-74.9 163.06,-58 171.24,-44.09"/>
<polygon fill="black" stroke="black" points="174.26,-45.86 176.31,-35.47 168.23,-42.31 174.26,-45.86"/>
<text text-anchor="middle" x="174" y="-57.8" font-family="Times,serif" font-size="14.00">OK</text>
</g>
<!-- 147784329&#45;&gt;68878758 -->
<g id="edge8" class="edge">
<title>147784329&#45;&gt;68878758</title>
<path fill="none" stroke="black" d="M192.11,-35.94C196.95,-49.63 203.76,-69.45 209,-87 216.76,-113 224.42,-143.02 229.58,-164.1"/>
<polygon fill="black" stroke="black" points="226.22,-165.07 231.98,-173.96 233.02,-163.42 226.22,-165.07"/>
<text text-anchor="middle" x="255" y="-101.3" font-family="Times,serif" font-size="14.00">ModifyEntry</text>
</g>
<!-- 1217988296&#45;&gt;427164665 -->
<g id="edge10" class="edge">
<title>1217988296&#45;&gt;427164665</title>
<path fill="none" stroke="black" d="M400.19,-123C391.19,-161.37 366.51,-257.06 329,-330 327.28,-333.34 325.3,-336.74 323.22,-340.04"/>
<polygon fill="black" stroke="black" points="320.25,-338.18 317.62,-348.45 326.07,-342.07 320.25,-338.18"/>
<text text-anchor="middle" x="380" y="-231.8" font-family="Times,serif" font-size="14.00">OK</text>
</g>
</g>
</svg>
